{
.appVersion = "1060";
copyright = "Copyright 2016 Google Inc. All Rights Reserved.";
customParameters = (
{
name = licenseURL;
value = "http://scripts.sil.org/OFL";
},
{
name = vendorID;
value = GOOG;
},
{
name = unicodeRanges;
value = (
0,
1,
31,
45,
80
);
},
{
name = trademark;
value = "Noto is a trademark of Google Inc.";
},
{
name = description;
value = "Designed by Monotype design team.";
},
{
name = fsType;
value = (
);
},
{
name = license;
value = "This Font Software is licensed under the SIL Open Font License, Version 1.1. This Font Software is distributed on an \"AS IS\" BASIS, WITHOUT WARRANTIES OR CONDITIONS OF ANY KIND, either express or implied. See the SIL Open Font License for the specific language, permissions and limitations governing your use of this Font Software.";
},
{
name = versionString;
value = "Version 2.001";
},
{
name = "Has WWS Names";
value = 1;
},
{
name = glyphOrder;
value = (
.notdef,
NULL,
CR,
space,
exclam,
quotedbl,
numbersign,
dollar,
percent,
ampersand,
quotesingle,
parenleft,
parenright,
asterisk,
plus,
comma,
hyphen,
hyphentwo,
period,
slash,
zero,
one,
two,
three,
four,
five,
six,
seven,
eight,
nine,
colon,
semicolon,
less,
equal,
greater,
question,
at,
braceleft,
bar,
braceright,
asciitilde,
nbspace,
uni200B,
guillemotleft,
uni00A0,
uni00AD,
guillemotright,
quoteleft,
quoteright,
quotedblleft,
quotedblright,
uni1780,
uni1781,
uni1782,
uni1783,
uni1784,
uni1785,
uni1786,
uni1787,
uni1788,
uni1789,
uni1789.a,
uni178A,
uni178B,
uni178C,
uni178D,
uni178E,
uni178F,
uni1790,
uni1791,
uni1792,
uni1793,
uni1794,
uni1794.a,
uni1794.a2,
uni1795,
uni1796,
uni1797,
uni1798,
uni1799,
uni179A,
uni179B,
uni179C,
uni179D,
uni179E,
uni179F,
uni17A0,
uni17A1,
uni17A2,
uni17A3,
uni17A4,
uni17A5,
uni17A6,
uni17A7,
uni17A8,
uni17A9,
uni17AA,
uni17AB,
uni17AC,
uni17AD,
uni17AE,
uni17AF,
uni17B0,
uni17B1,
uni17B2,
uni17B3,
uni17B6,
uni17B7,
uni17B7.r,
uni17B717CD,
uni17B717CD.r,
uni17B8,
uni17B8.r,
uni17B9,
uni17B9.r,
uni17BA,
uni17BA.r,

glyphs = (
{
glyphname = .notdef;
lastChange = "2017-12-14 22:49:48 +0000";
layers = (
{
layerId = "46DC2CF2-3687-4CD7-A306-8CA7072459C9";
paths = (
{
closed = 1;
nodes = (
"538 0 LINE",
"538 714 LINE",
"96 714 LINE",
"96 0 LINE"
);
},
{
closed = 1;
nodes = (
"188 647 LINE",
"446 647 LINE",
"446 67 LINE",
"188 67 LINE"
);
}
);
width = 634;
},
{
layerId = "51E32C1F-DEF7-419B-8D63-3B39AA64BD60";
paths = (
{
closed = 1;
nodes = (
"609 0 LINE",
"609 714 LINE",
"80 714 LINE",
"80 0 LINE"
);
},
{
closed = 1;
nodes = (
"261 602 LINE",
"428 602 LINE",
"428 112 LINE",
"261 112 LINE"
);
}
);
width = 689;
},
{
layerId = "6517A2BC-7974-4B53-8E65-A6A29EB8D1E7";
paths = (
{
closed = 1;
nodes = (
"492 0 LINE",
"492 714 LINE",
"120 714 LINE",
"120 0 LINE"
);
},
{
closed = 1;
nodes = (
"146 688 LINE",
"466 688 LINE",
"466 26 LINE",
"146 26 LINE"
);
}
);
width = 612;
},
{
layerId = "0F8E8D95-EFB6-4635-B30D-2DA8DDB35575";
paths = (
{
closed = 1;
nodes = (
"521 0 LINE",
"521 714 LINE",
"80 714 LINE",
"80 0 LINE"
);
},
{
closed = 1;
nodes = (
"231 602 LINE",
"370 602 LINE",
"370 112 LINE",
"231 112 LINE"
);
}
);
width = 601;
},
{
layerId = "9C354F0E-63BE-4945-A1C1-0B7B127DD18D";
paths = (
{
closed = 1;
nodes = (
"446 0 LINE",
"446 714 LINE",
"78 714 LINE",
"78 0 LINE"
);
},
{
closed = 1;
nodes = (
"155 647 LINE",
"370 647 LINE",
"370 67 LINE",
"155 67 LINE"
);
}
);
width = 600;
},
{
layerId = "DE962D09-1426-4D02-9608-9FE5B080C42D";
paths = (
{
closed = 1;
nodes = (
"400 0 LINE",
"400 714 LINE",
"88 714 LINE",
"88 0 LINE"
);
},
{
closed = 1;
nodes = (
"114 688 LINE",
"374 688 LINE",
"374 26 LINE",
"114 26 LINE"
);
}
);
width = 488;
}
);
note = .notdef;
},
{
glyphname = exclam;
lastChange = "2017-12-14 22:49:48 +0000";
layers = (
{
layerId = "46DC2CF2-3687-4CD7-A306-8CA7072459C9";
paths = (
{
closed = 1;
nodes = (
"188 714 LINE",
"81 714 LINE",
"106 201 LINE",
"163 201 LINE"
);
},
{
closed = 1;
nodes = (
"72 6 OFFCURVE",
"99 -14 OFFCURVE",
"134 -14 CURVE SMOOTH",
"167 -14 OFFCURVE",
"196 6 OFFCURVE",
"196 54 CURVE SMOOTH",
"196 103 OFFCURVE",
"167 121 OFFCURVE",
"134 121 CURVE SMOOTH",
"99 121 OFFCURVE",
"72 103 OFFCURVE",
"72 54 CURVE SMOOTH"
);
}
);
width = 269;
},
{
layerId = "51E32C1F-DEF7-419B-8D63-3B39AA64BD60";
paths = (
{
closed = 1;
nodes = (
"260 714 LINE",
"41 714 LINE",
"66 266 LINE",
"235 266 LINE"
);
},
{
closed = 1;
nodes = (
"45 19 OFFCURVE",
"87 -12 OFFCURVE",
"150 -12 CURVE SMOOTH",
"211 -12 OFFCURVE",
"254 19 OFFCURVE",
"254 83 CURVE SMOOTH",
"254 150 OFFCURVE",
"211 179 OFFCURVE",
"150 179 CURVE SMOOTH",
"87 179 OFFCURVE",
"45 150 OFFCURVE",
"45 83 CURVE SMOOTH"
);
}
);
width = 300;
},
{
layerId = "6517A2BC-7974-4B53-8E65-A6A29EB8D1E7";
paths = (
{
closed = 1;
nodes = (
"126 714 LINE",
"98 714 LINE",
"100 174 LINE",
"124 174 LINE"
);
},
{
closed = 1;
nodes = (
"85 6 OFFCURVE",
"90 -8 OFFCURVE",
"110 -8 CURVE SMOOTH",
"134 -8 OFFCURVE",
"137 6 OFFCURVE",
"137 23 CURVE SMOOTH",
"137 39 OFFCURVE",
"134 54 OFFCURVE",
"110 54 CURVE SMOOTH",
"90 54 OFFCURVE",
"85 39 OFFCURVE",
"85 23 CURVE SMOOTH"
);
}
);
width = 223;
},
{
layerId = "0F8E8D95-EFB6-4635-B30D-2DA8DDB35575";
paths = (
{
closed = 1;
nodes = (
"260 714 LINE",
"41 714 LINE",
"66 266 LINE",
"235 266 LINE"
);
},
{
closed = 1;
nodes = (
"45 19 OFFCURVE",
"87 -12 OFFCURVE",
"150 -12 CURVE SMOOTH",
"211 -12 OFFCURVE",
"254 19 OFFCURVE",
"254 83 CURVE SMOOTH",
"254 150 OFFCURVE",
"211 179 OFFCURVE",
"150 179 CURVE SMOOTH",
"87 179 OFFCURVE",
"45 150 OFFCURVE",
"45 83 CURVE SMOOTH"
);
}
);
width = 300;
},
{
layerId = "9C354F0E-63BE-4945-A1C1-0B7B127DD18D";
paths = (
{
closed = 1;
nodes = (
"188 714 LINE",
"81 714 LINE",
"106 201 LINE",
"163 201 LINE"
);
},
{
closed = 1;
nodes = (
"72 6 OFFCURVE",
"99 -14 OFFCURVE",
"134 -14 CURVE SMOOTH",
"167 -14 OFFCURVE",
"196 6 OFFCURVE",
"196 54 CURVE SMOOTH",
"196 103 OFFCURVE",
"167 121 OFFCURVE",
"134 121 CURVE SMOOTH",
"99 121 OFFCURVE",
"72 103 OFFCURVE",
"72 54 CURVE SMOOTH"
);
}
);
width = 269;
},
{
layerId = "DE962D09-1426-4D02-9608-9FE5B080C42D";
paths = (
{
closed = 1;
nodes = (
"114 714 LINE",
"83 714 LINE",
"86 170 LINE",
"109 170 LINE"
);
},
{
closed = 1;
nodes = (
"72 9 OFFCURVE",
"77 -6 OFFCURVE",
"97 -6 CURVE SMOOTH",
"115 -6 OFFCURVE",
"123 7 OFFCURVE",
"123 30 CURVE SMOOTH",
"123 53 OFFCURVE",
"116 65 OFFCURVE",
"97 65 CURVE SMOOTH",
"77 65 OFFCURVE",
"72 49 OFFCURVE",
"72 30 CURVE SMOOTH"
);
}
);
width = 194;
}
);
note = exclam;
unicode = 0021;
},
{
glyphname = quotedbl;
lastChange = "2017-12-14 22:49:48 +0000";
layers = (
{
layerId = "46DC2CF2-3687-4CD7-A306-8CA7072459C9";
paths = (
{
closed = 1;
nodes = (
"141 456 LINE",
"161 714 LINE",
"65 714 LINE",
"85 456 LINE"
);
},
{
closed = 1;
nodes = (
"317 456 LINE",
"337 714 LINE",
"241 714 LINE",
"261 456 LINE"
);
}
);
width = 402;
},
{
layerId = "51E32C1F-DEF7-419B-8D63-3B39AA64BD60";
paths = (
{
closed = 1;
nodes = (
"213 456 LINE",
"233 714 LINE",
"65 714 LINE",
"85 456 LINE"
);
},
{
closed = 1;
nodes = (
"443 456 LINE",
"463 714 LINE",
"295 714 LINE",
"315 456 LINE"
);
}
);
width = 528;
},
{
layerId = "6517A2BC-7974-4B53-8E65-A6A29EB8D1E7";
paths = (
{
closed = 1;
nodes = (
"97 456 LINE",
"101 714 LINE",
"73 714 LINE",
"77 456 LINE"
);
},
{
closed = 1;
nodes = (
"243 456 LINE",
"247 714 LINE",
"219 714 LINE",
"223 456 LINE"
);
}
);
width = 320;
},
{
layerId = "0F8E8D95-EFB6-4635-B30D-2DA8DDB35575";
paths = (
{
closed = 1;
nodes = (
"213 456 LINE",
"233 714 LINE",
"65 714 LINE",
"85 456 LINE"
);
},
{
closed = 1;
nodes = (
"443 456 LINE",
"463 714 LINE",
"295 714 LINE",
"315 456 LINE"
);
}
);
width = 528;
},
{
layerId = "9C354F0E-63BE-4945-A1C1-0B7B127DD18D";
paths = (
{
closed = 1;
nodes = (
"141 456 LINE",
"161 714 LINE",
"65 714 LINE",
"85 456 LINE"
);
},
{
closed = 1;
nodes = (
"317 456 LINE",
"337 714 LINE",
"241 714 LINE",
"261 456 LINE"
);
}
);
width = 402;
},
{
layerId = "DE962D09-1426-4D02-9608-9FE5B080C42D";
paths = (
{
closed = 1;
nodes = (
"97 456 LINE",
"101 714 LINE",
"73 714 LINE",
"77 456 LINE"
);
},
{
closed = 1;
nodes = (
"243 456 LINE",
"247 714 LINE",
"219 714 LINE",
"223 456 LINE"
);
}
);
width = 320;
}
);
note = quotedbl;
unicode = 0022;
},
{
glyphname = quotesingle;
lastChange = "2017-12-14 22:49:48 +0000";
layers = (
{
layerId = "46DC2CF2-3687-4CD7-A306-8CA7072459C9";
paths = (
{
closed = 1;
nodes = (
"141 456 LINE",
"161 714 LINE",
"65 714 LINE",
"85 456 LINE"
);
}
);
width = 226;
},
{
layerId = "51E32C1F-DEF7-419B-8D63-3B39AA64BD60";
paths = (
{
closed = 1;
nodes = (
"213 456 LINE",
"233 714 LINE",
"65 714 LINE",
"85 456 LINE"
);
}
);
width = 298;
},
{
layerId = "6517A2BC-7974-4B53-8E65-A6A29EB8D1E7";
paths = (
{
closed = 1;
nodes = (
"97 456 LINE",
"101 714 LINE",
"73 714 LINE",
"77 456 LINE"
);
}
);
width = 172;
},
{
layerId = "0F8E8D95-EFB6-4635-B30D-2DA8DDB35575";
paths = (
{
closed = 1;
nodes = (
"193 456 LINE",
"213 714 LINE",
"39 714 LINE",
"59 456 LINE"
);
}
);
width = 252;
},
{
layerId = "9C354F0E-63BE-4945-A1C1-0B7B127DD18D";
paths = (
{
closed = 1;
nodes = (
"136 456 LINE",
"152 714 LINE",
"58 714 LINE",
"75 456 LINE"
);
}
);
width = 208;
},
{
layerId = "DE962D09-1426-4D02-9608-9FE5B080C42D";
paths = (
{
closed = 1;
nodes = (
"93 456 LINE",
"97 714 LINE",
"65 714 LINE",
"71 456 LINE"
);
}
);
width = 161;
}
);
note = quotesingle;
unicode = 0027;
},
{
glyphname = parenleft;
lastChange = "2017-12-14 22:49:48 +0000";
layers = (
{
layerId = "46DC2CF2-3687-4CD7-A306-8CA7072459C9";
paths = (
{
closed = 1;
nodes = (
"40 113 OFFCURVE",
"86 -41 OFFCURVE",
"187 -158 CURVE",
"269 -158 LINE",
"177 -33 OFFCURVE",
"129 120 OFFCURVE",
"129 275 CURVE SMOOTH",
"129 433 OFFCURVE",
"177 589 OFFCURVE",
"270 714 CURVE",
"187 714 LINE",
"86 593 OFFCURVE",
"40 437 OFFCURVE",
"40 274 CURVE SMOOTH"
);
}
);
width = 300;
},
{
layerId = "51E32C1F-DEF7-419B-8D63-3B39AA64BD60";
paths = (
{
closed = 1;
nodes = (
"40 109 OFFCURVE",
"88 -43 OFFCURVE",
"187 -158 CURVE",
"339 -158 LINE",
"251 -38 OFFCURVE",
"203 119 OFFCURVE",
"203 275 CURVE SMOOTH",
"203 434 OFFCURVE",
"251 590 OFFCURVE",
"340 714 CURVE",
"187 714 LINE",
"88 595 OFFCURVE",
"40 442 OFFCURVE",
"40 274 CURVE SMOOTH"
);
}
);
width = 370;
},
{
layerId = "6517A2BC-7974-4B53-8E65-A6A29EB8D1E7";
paths = (
{
closed = 1;
nodes = (
"42 99 OFFCURVE",
"96 -46 OFFCURVE",
"187 -158 CURVE",
"220 -158 LINE",
"119 -39 OFFCURVE",
"69 109 OFFCURVE",
"69 275 CURVE SMOOTH",
"69 443 OFFCURVE",
"117 596 OFFCURVE",
"220 714 CURVE",
"187 714 LINE",
"96 606 OFFCURVE",
"42 451 OFFCURVE",
"42 274 CURVE SMOOTH"
);
}
);
width = 255;
},
{
layerId = "0F8E8D95-EFB6-4635-B30D-2DA8DDB35575";
paths = (
{
closed = 1;
nodes = (
"40 109 OFFCURVE",
"88 -43 OFFCURVE",
"187 -158 CURVE",
"339 -158 LINE",
"251 -38 OFFCURVE",
"203 119 OFFCURVE",
"203 275 CURVE SMOOTH",
"203 434 OFFCURVE",
"251 590 OFFCURVE",
"340 714 CURVE",
"187 714 LINE",
"88 595 OFFCURVE",
"40 442 OFFCURVE",
"40 274 CURVE SMOOTH"
);
}
);
width = 370;
},
{
layerId = "9C354F0E-63BE-4945-A1C1-0B7B127DD18D";
paths = (
{
closed = 1;
nodes = (
"40 113 OFFCURVE",
"86 -41 OFFCURVE",
"187 -158 CURVE",
"269 -158 LINE",
"177 -33 OFFCURVE",
"129 120 OFFCURVE",
"129 275 CURVE SMOOTH",
"129 433 OFFCURVE",
"177 589 OFFCURVE",
"270 714 CURVE",
"187 714 LINE",
"86 593 OFFCURVE",
"40 437 OFFCURVE",
"40 274 CURVE SMOOTH"
);
}
);
width = 300;
},
{
layerId = "DE962D09-1426-4D02-9608-9FE5B080C42D";
paths = (
{
closed = 1;
nodes = (
"42 99 OFFCURVE",
"96 -46 OFFCURVE",
"187 -158 CURVE",
"220 -158 LINE",
"119 -39 OFFCURVE",
"69 109 OFFCURVE",
"69 275 CURVE SMOOTH",
"69 443 OFFCURVE",
"117 596 OFFCURVE",
"220 714 CURVE",
"187 714 LINE",
"96 606 OFFCURVE",
"42 451 OFFCURVE",
"42 274 CURVE SMOOTH"
);
}
);
width = 255;
}
);
note = parenleft;
unicode = 0028;
},
{
glyphname = parenright;
lastChange = "2017-12-14 22:49:48 +0000";
layers = (
{
layerId = "46DC2CF2-3687-4CD7-A306-8CA7072459C9";
paths = (
{
closed = 1;
nodes = (
"260 437 OFFCURVE",
"214 593 OFFCURVE",
"113 714 CURVE",
"30 714 LINE",
"123 589 OFFCURVE",
"171 433 OFFCURVE",
"171 275 CURVE SMOOTH",
"171 120 OFFCURVE",
"123 -33 OFFCURVE",
"31 -158 CURVE",
"113 -158 LINE",
"214 -41 OFFCURVE",
"260 113 OFFCURVE",
"260 274 CURVE SMOOTH"
);
}
);
width = 300;
},
{
layerId = "51E32C1F-DEF7-419B-8D63-3B39AA64BD60";
paths = (
{
closed = 1;
nodes = (
"330 442 OFFCURVE",
"282 595 OFFCURVE",
"183 714 CURVE",
"30 714 LINE",
"119 590 OFFCURVE",
"167 434 OFFCURVE",
"167 275 CURVE SMOOTH",
"167 119 OFFCURVE",
"119 -38 OFFCURVE",
"31 -158 CURVE",
"183 -158 LINE",
"282 -43 OFFCURVE",
"330 109 OFFCURVE",
"330 274 CURVE SMOOTH"
);
}
);
width = 370;
},
{
layerId = "6517A2BC-7974-4B53-8E65-A6A29EB8D1E7";
paths = (
{
closed = 1;
nodes = (
"214 457 OFFCURVE",
"160 602 OFFCURVE",
"69 714 CURVE",
"36 714 LINE",
"137 595 OFFCURVE",
"187 447 OFFCURVE",
"187 281 CURVE SMOOTH",
"187 113 OFFCURVE",
"139 -40 OFFCURVE",
"36 -158 CURVE",
"69 -158 LINE",
"160 -50 OFFCURVE",
"214 105 OFFCURVE",
"214 282 CURVE SMOOTH"
);
}
);
width = 255;
},
{
layerId = "0F8E8D95-EFB6-4635-B30D-2DA8DDB35575";
paths = (
{
closed = 1;
nodes = (
"330 442 OFFCURVE",
"282 595 OFFCURVE",
"183 714 CURVE",
"30 714 LINE",
"119 590 OFFCURVE",
"167 434 OFFCURVE",
"167 275 CURVE SMOOTH",
"167 119 OFFCURVE",
"119 -38 OFFCURVE",
"31 -158 CURVE",
"183 -158 LINE",
"282 -43 OFFCURVE",
"330 109 OFFCURVE",
"330 274 CURVE SMOOTH"
);
}
);
width = 370;
},
{
layerId = "9C354F0E-63BE-4945-A1C1-0B7B127DD18D";
paths = (
{
closed = 1;
nodes = (
"260 437 OFFCURVE",
"214 593 OFFCURVE",
"113 714 CURVE",
"30 714 LINE",
"123 589 OFFCURVE",
"171 433 OFFCURVE",
"171 275 CURVE SMOOTH",
"171 120 OFFCURVE",
"123 -33 OFFCURVE",
"31 -158 CURVE",
"113 -158 LINE",
"214 -41 OFFCURVE",
"260 113 OFFCURVE",
"260 274 CURVE SMOOTH"
);
}
);
width = 300;
},
{
layerId = "DE962D09-1426-4D02-9608-9FE5B080C42D";
paths = (
{
closed = 1;
nodes = (
"214 457 OFFCURVE",
"160 602 OFFCURVE",
"69 714 CURVE",
"36 714 LINE",
"137 595 OFFCURVE",
"187 447 OFFCURVE",
"187 281 CURVE SMOOTH",
"187 113 OFFCURVE",
"139 -40 OFFCURVE",
"36 -158 CURVE",
"69 -158 LINE",
"160 -50 OFFCURVE",
"214 105 OFFCURVE",
"214 282 CURVE SMOOTH"
);
}
);
width = 255;
}
);
note = parenright;
unicode = 0029;
},
{
glyphname = comma;
lastChange = "2017-12-14 22:49:48 +0000";
layers = (
{
layerId = "46DC2CF2-3687-4CD7-A306-8CA7072459C9";
paths = (
{
closed = 1;
nodes = (
"91 116 LINE",
"81 46 OFFCURVE",
"60 -53 OFFCURVE",
"41 -129 CURVE",
"106 -129 LINE",
"138 -57 OFFCURVE",
"174 34 OFFCURVE",
"192 105 CURVE",
"185 116 LINE"
);
}
);
width = 250;
},
{
layerId = "51E32C1F-DEF7-419B-8D63-3B39AA64BD60";
paths = (
{
closed = 1;
nodes = (
"71 116 LINE",
"60 44 OFFCURVE",
"44 -38 OFFCURVE",
"23 -129 CURVE",
"164 -129 LINE",
"204 -42 OFFCURVE",
"233 36 OFFCURVE",
"250 105 CURVE",
"243 116 LINE"
);
}
);
width = 322;
},
{
layerId = "6517A2BC-7974-4B53-8E65-A6A29EB8D1E7";
paths = (
{
closed = 1;
nodes = (
"94 116 LINE",
"83 40 OFFCURVE",
"67 -32 OFFCURVE",
"38 -129 CURVE",
"60 -129 LINE",
"88 -60 OFFCURVE",
"110 30 OFFCURVE",
"125 104 CURVE",
"122 116 LINE"
);
}
);
width = 183;
},
{
layerId = "0F8E8D95-EFB6-4635-B30D-2DA8DDB35575";
paths = (
{
closed = 1;
nodes = (
"71 116 LINE",
"60 44 OFFCURVE",
"44 -38 OFFCURVE",
"23 -129 CURVE",
"164 -129 LINE",
"204 -42 OFFCURVE",
"233 36 OFFCURVE",
"250 105 CURVE",
"243 116 LINE"
);
}
);
width = 322;
},
{
layerId = "9C354F0E-63BE-4945-A1C1-0B7B127DD18D";
paths = (
{
closed = 1;
nodes = (
"91 116 LINE",
"81 46 OFFCURVE",
"60 -53 OFFCURVE",
"41 -129 CURVE",
"106 -129 LINE",
"138 -57 OFFCURVE",
"174 34 OFFCURVE",
"192 105 CURVE",
"185 116 LINE"
);
}
);
width = 250;
},
{
layerId = "DE962D09-1426-4D02-9608-9FE5B080C42D";
paths = (
{
closed = 1;
nodes = (
"94 116 LINE",
"83 40 OFFCURVE",
"67 -32 OFFCURVE",
"38 -129 CURVE",
"60 -129 LINE",
"88 -60 OFFCURVE",
"110 30 OFFCURVE",
"125 104 CURVE",
"122 116 LINE"
);
}
);
width = 183;
}
);
note = comma;
unicode = 002C;
},
{
glyphname = hyphen;
lastChange = "2017-12-14 22:49:48 +0000";
layers = (
{
layerId = "46DC2CF2-3687-4CD7-A306-8CA7072459C9";
paths = (
{
closed = 1;
nodes = (
"282 227 LINE",
"282 309 LINE",
"40 309 LINE",
"40 227 LINE"
);
}
);
width = 322;
},
{
layerId = "51E32C1F-DEF7-419B-8D63-3B39AA64BD60";
paths = (
{
closed = 1;
nodes = (
"300 191 LINE",
"300 345 LINE",
"22 345 LINE",
"22 191 LINE"
);
}
);
width = 322;
},
{
layerId = "6517A2BC-7974-4B53-8E65-A6A29EB8D1E7";
paths = (
{
closed = 1;
nodes = (
"268 254 LINE",
"268 282 LINE",
"54 282 LINE",
"54 254 LINE"
);
}
);
width = 322;
},
{
layerId = "0F8E8D95-EFB6-4635-B30D-2DA8DDB35575";
paths = (
{
closed = 1;
nodes = (
"296 192 LINE",
"296 344 LINE",
"29 344 LINE",
"29 192 LINE"
);
}
);
width = 325;
},
{
layerId = "9C354F0E-63BE-4945-A1C1-0B7B127DD18D";
paths = (
{
closed = 1;
nodes = (
"247 229 LINE",
"247 310 LINE",
"27 310 LINE",
"27 229 LINE"
);
}
);
width = 274;
},
{
layerId = "DE962D09-1426-4D02-9608-9FE5B080C42D";
paths = (
{
closed = 1;
nodes = (
"237 259 LINE",
"237 286 LINE",
"26 286 LINE",
"26 259 LINE"
);
}
);
width = 263;
}
);
note = hyphen;
unicode = 002D;
},
{
glyphname = period;
lastChange = "2017-12-14 22:49:48 +0000";
layers = (
{
layerId = "46DC2CF2-3687-4CD7-A306-8CA7072459C9";
paths = (
{
closed = 1;
nodes = (
"72 6 OFFCURVE",
"99 -14 OFFCURVE",
"133 -14 CURVE SMOOTH",
"167 -14 OFFCURVE",
"196 6 OFFCURVE",
"196 54 CURVE SMOOTH",
"196 103 OFFCURVE",
"167 121 OFFCURVE",
"133 121 CURVE SMOOTH",
"99 121 OFFCURVE",
"72 103 OFFCURVE",
"72 54 CURVE SMOOTH"
);
}
);
width = 268;
},
{
layerId = "51E32C1F-DEF7-419B-8D63-3B39AA64BD60";
paths = (
{
closed = 1;
nodes = (
"45 19 OFFCURVE",
"87 -12 OFFCURVE",
"151 -12 CURVE SMOOTH",
"211 -12 OFFCURVE",
"254 19 OFFCURVE",
"254 83 CURVE SMOOTH",
"254 148 OFFCURVE",
"212 179 OFFCURVE",
"151 179 CURVE SMOOTH",
"87 179 OFFCURVE",
"45 150 OFFCURVE",
"45 83 CURVE SMOOTH"
);
}
);
width = 299;
},
{
layerId = "6517A2BC-7974-4B53-8E65-A6A29EB8D1E7";
paths = (
{
closed = 1;
nodes = (
"85 6 OFFCURVE",
"90 -8 OFFCURVE",
"110 -8 CURVE SMOOTH",
"134 -8 OFFCURVE",
"137 6 OFFCURVE",
"137 23 CURVE SMOOTH",
"137 39 OFFCURVE",
"134 54 OFFCURVE",
"110 54 CURVE SMOOTH",
"90 54 OFFCURVE",
"85 39 OFFCURVE",
"85 23 CURVE SMOOTH"
);
}
);
width = 220;
},
{
layerId = "0F8E8D95-EFB6-4635-B30D-2DA8DDB35575";
paths = (
{
closed = 1;
nodes = (
"45 19 OFFCURVE",
"87 -12 OFFCURVE",
"151 -12 CURVE SMOOTH",
"211 -12 OFFCURVE",
"254 19 OFFCURVE",
"254 83 CURVE SMOOTH",
"254 148 OFFCURVE",
"212 179 OFFCURVE",
"151 179 CURVE SMOOTH",
"87 179 OFFCURVE",
"45 150 OFFCURVE",
"45 83 CURVE SMOOTH"
);
}
);
width = 299;
},
{
layerId = "9C354F0E-63BE-4945-A1C1-0B7B127DD18D";
paths = (
{
closed = 1;
nodes = (
"72 6 OFFCURVE",
"99 -14 OFFCURVE",
"133 -14 CURVE SMOOTH",
"167 -14 OFFCURVE",
"196 6 OFFCURVE",
"196 54 CURVE SMOOTH",
"196 103 OFFCURVE",
"167 121 OFFCURVE",
"133 121 CURVE SMOOTH",
"99 121 OFFCURVE",
"72 103 OFFCURVE",
"72 54 CURVE SMOOTH"
);
}
);
width = 268;
},
{
layerId = "DE962D09-1426-4D02-9608-9FE5B080C42D";
paths = (
{
closed = 1;
nodes = (
"85 6 OFFCURVE",
"90 -8 OFFCURVE",
"110 -8 CURVE SMOOTH",
"134 -8 OFFCURVE",
"137 6 OFFCURVE",
"137 23 CURVE SMOOTH",
"137 39 OFFCURVE",
"134 54 OFFCURVE",
"110 54 CURVE SMOOTH",
"90 54 OFFCURVE",
"85 39 OFFCURVE",
"85 23 CURVE SMOOTH"
);
}
);
width = 220;
}
);
note = period;
unicode = 002E;
},
{
glyphname = slash;
lastChange = "2017-12-14 22:49:48 +0000";
layers = (
{
layerId = "46DC2CF2-3687-4CD7-A306-8CA7072459C9";
paths = (
{
closed = 1;
nodes = (
"97 0 LINE",
"363 714 LINE",
"276 714 LINE",
"10 0 LINE"
);
}
);
width = 373;
},
{
layerId = "51E32C1F-DEF7-419B-8D63-3B39AA64BD60";
paths = (
{
closed = 1;
nodes = (
"178 0 LINE",
"444 714 LINE",
"271 714 LINE",
"5 0 LINE"
);
}
);
width = 445;
},
{
layerId = "6517A2BC-7974-4B53-8E65-A6A29EB8D1E7";
paths = (
{
closed = 1;
nodes = (
"37 0 LINE",
"303 714 LINE",
"280 714 LINE",
"14 0 LINE"
);
}
);
width = 319;
},
{
layerId = "0F8E8D95-EFB6-4635-B30D-2DA8DDB35575";
paths = (
{
closed = 1;
nodes = (
"178 0 LINE",
"444 714 LINE",
"271 714 LINE",
"5 0 LINE"
);
}
);
width = 445;
},
{
layerId = "9C354F0E-63BE-4945-A1C1-0B7B127DD18D";
paths = (
{
closed = 1;
nodes = (
"97 0 LINE",
"363 714 LINE",
"276 714 LINE",
"10 0 LINE"
);
}
);
width = 373;
},
{
layerId = "DE962D09-1426-4D02-9608-9FE5B080C42D";
paths = (
{
closed = 1;
nodes = (
"37 0 LINE",
"303 714 LINE",
"280 714 LINE",
"14 0 LINE"
);
}
);
width = 319;
}
);
note = slash;
unicode = 002F;
},
{
glyphname = colon;
lastChange = "2017-12-14 22:49:48 +0000";
layers = (
{
layerId = "46DC2CF2-3687-4CD7-A306-8CA7072459C9";
paths = (
{
closed = 1;
nodes = (
"72 6 OFFCURVE",
"99 -14 OFFCURVE",
"133 -14 CURVE SMOOTH",
"167 -14 OFFCURVE",
"196 6 OFFCURVE",
"196 54 CURVE SMOOTH",
"196 103 OFFCURVE",
"167 121 OFFCURVE",
"133 121 CURVE SMOOTH",
"99 121 OFFCURVE",
"72 103 OFFCURVE",
"72 54 CURVE SMOOTH"
);
},
{
closed = 1;
nodes = (
"72 434 OFFCURVE",
"99 414 OFFCURVE",
"133 414 CURVE SMOOTH",
"167 414 OFFCURVE",
"196 434 OFFCURVE",
"196 482 CURVE SMOOTH",
"196 532 OFFCURVE",
"167 550 OFFCURVE",
"133 550 CURVE SMOOTH",
"99 550 OFFCURVE",
"72 532 OFFCURVE",
"72 482 CURVE SMOOTH"
);
}
);
width = 268;
},
{
layerId = "51E32C1F-DEF7-419B-8D63-3B39AA64BD60";
paths = (
{
closed = 1;
nodes = (
"42 15 OFFCURVE",
"89 -12 OFFCURVE",
"146 -12 CURVE SMOOTH",
"200 -12 OFFCURVE",
"246 15 OFFCURVE",
"246 81 CURVE SMOOTH",
"246 150 OFFCURVE",
"200 175 OFFCURVE",
"146 175 CURVE SMOOTH",
"89 175 OFFCURVE",
"42 150 OFFCURVE",
"42 81 CURVE"
);
},
{
closed = 1;
nodes = (
"42 400 OFFCURVE",
"89 373 OFFCURVE",
"146 373 CURVE SMOOTH",
"200 373 OFFCURVE",
"246 400 OFFCURVE",
"246 467 CURVE SMOOTH",
"246 535 OFFCURVE",
"200 560 OFFCURVE",
"146 560 CURVE SMOOTH",
"89 560 OFFCURVE",
"42 535 OFFCURVE",
"42 467 CURVE"
);
}
);
width = 289;
},
{
layerId = "6517A2BC-7974-4B53-8E65-A6A29EB8D1E7";
paths = (
{
closed = 1;
nodes = (
"85 6 OFFCURVE",
"90 -8 OFFCURVE",
"110 -8 CURVE SMOOTH",
"134 -8 OFFCURVE",
"137 6 OFFCURVE",
"137 23 CURVE SMOOTH",
"137 39 OFFCURVE",
"134 54 OFFCURVE",
"110 54 CURVE SMOOTH",
"90 54 OFFCURVE",
"85 39 OFFCURVE",
"85 23 CURVE SMOOTH"
);
},
{
closed = 1;
nodes = (
"85 484 OFFCURVE",
"90 470 OFFCURVE",
"110 470 CURVE SMOOTH",
"134 470 OFFCURVE",
"137 484 OFFCURVE",
"137 501 CURVE SMOOTH",
"137 517 OFFCURVE",
"134 532 OFFCURVE",
"110 532 CURVE SMOOTH",
"90 532 OFFCURVE",
"85 517 OFFCURVE",
"85 501 CURVE SMOOTH"
);
}
);
width = 220;
},
{
layerId = "0F8E8D95-EFB6-4635-B30D-2DA8DDB35575";
paths = (
{
closed = 1;
nodes = (
"49 22 OFFCURVE",
"84 -12 OFFCURVE",
"142 -12 CURVE SMOOTH",
"198 -12 OFFCURVE",
"231 22 OFFCURVE",
"231 81 CURVE SMOOTH",
"231 141 OFFCURVE",
"200 175 OFFCURVE",
"142 175 CURVE SMOOTH",
"81 175 OFFCURVE",
"49 141 OFFCURVE",
"49 81 CURVE SMOOTH"
);
},
{
closed = 1;
nodes = (
"49 408 OFFCURVE",
"84 374 OFFCURVE",
"142 374 CURVE SMOOTH",
"198 374 OFFCURVE",
"231 408 OFFCURVE",
"231 467 CURVE SMOOTH",
"231 527 OFFCURVE",
"200 561 OFFCURVE",
"142 561 CURVE SMOOTH",
"81 561 OFFCURVE",
"49 527 OFFCURVE",
"49 467 CURVE SMOOTH"
);
}
);
width = 280;
},
{
layerId = "9C354F0E-63BE-4945-A1C1-0B7B127DD18D";
paths = (
{
closed = 1;
nodes = (
"60 13 OFFCURVE",
"79 -9 OFFCURVE",
"114 -9 CURVE SMOOTH",
"145 -9 OFFCURVE",
"168 11 OFFCURVE",
"168 55 CURVE SMOOTH",
"168 100 OFFCURVE",
"147 119 OFFCURVE",
"114 119 CURVE SMOOTH",
"78 119 OFFCURVE",
"60 97 OFFCURVE",
"60 55 CURVE SMOOTH"
);
},
{
closed = 1;
nodes = (
"60 433 OFFCURVE",
"79 411 OFFCURVE",
"114 411 CURVE SMOOTH",
"145 411 OFFCURVE",
"168 432 OFFCURVE",
"168 476 CURVE SMOOTH",
"168 518 OFFCURVE",
"149 540 OFFCURVE",
"114 540 CURVE SMOOTH",
"78 540 OFFCURVE",
"60 518 OFFCURVE",
"60 476 CURVE SMOOTH"
);
}
);
width = 228;
},
{
layerId = "DE962D09-1426-4D02-9608-9FE5B080C42D";
paths = (
{
closed = 1;
nodes = (
"65 12 OFFCURVE",
"67 -5 OFFCURVE",
"90 -5 CURVE SMOOTH",
"112 -5 OFFCURVE",
"116 11 OFFCURVE",
"116 31 CURVE SMOOTH",
"116 50 OFFCURVE",
"112 66 OFFCURVE",
"90 66 CURVE SMOOTH",
"69 66 OFFCURVE",
"65 50 OFFCURVE",
"65 31 CURVE SMOOTH"
);
},
{
closed = 1;
nodes = (
"65 476 OFFCURVE",
"70 461 OFFCURVE",
"90 461 CURVE SMOOTH",
"108 461 OFFCURVE",
"116 474 OFFCURVE",
"116 497 CURVE SMOOTH",
"116 521 OFFCURVE",
"109 532 OFFCURVE",
"91 532 CURVE SMOOTH",
"70 532 OFFCURVE",
"65 516 OFFCURVE",
"65 496 CURVE SMOOTH"
);
}
);
width = 180;
}
);
note = colon;
unicode = 003A;
},
{
glyphname = semicolon;
lastChange = "2017-12-14 22:49:48 +0000";
layers = (
{
layerId = "46DC2CF2-3687-4CD7-A306-8CA7072459C9";
paths = (
{
closed = 1;
nodes = (
"82 116 LINE",
"72 46 OFFCURVE",
"50 -54 OFFCURVE",
"31 -129 CURVE",
"97 -129 LINE",
"129 -58 OFFCURVE",
"165 35 OFFCURVE",
"183 105 CURVE",
"176 116 LINE"
);
},
{
closed = 1;
nodes = (
"70 434 OFFCURVE",
"97 414 OFFCURVE",
"131 414 CURVE SMOOTH",
"166 414 OFFCURVE",
"194 434 OFFCURVE",
"194 482 CURVE SMOOTH",
"194 532 OFFCURVE",
"166 550 OFFCURVE",
"131 550 CURVE SMOOTH",
"97 550 OFFCURVE",
"70 532 OFFCURVE",
"70 482 CURVE SMOOTH"
);
}
);
width = 268;
},
{
layerId = "51E32C1F-DEF7-419B-8D63-3B39AA64BD60";
paths = (
{
closed = 1;
nodes = (
"76 146 LINE",
"67 66 OFFCURVE",
"47 -48 OFFCURVE",
"28 -139 CURVE",
"164 -139 LINE",
"197 -65 OFFCURVE",
"232 63 OFFCURVE",
"250 135 CURVE",
"243 146 LINE"
);
},
{
closed = 1;
nodes = (
"45 400 OFFCURVE",
"91 373 OFFCURVE",
"148 373 CURVE SMOOTH",
"202 373 OFFCURVE",
"249 400 OFFCURVE",
"249 467 CURVE SMOOTH",
"249 535 OFFCURVE",
"202 560 OFFCURVE",
"148 560 CURVE SMOOTH",
"91 560 OFFCURVE",
"45 535 OFFCURVE",
"45 467 CURVE"
);
}
);
width = 297;
},
{
layerId = "6517A2BC-7974-4B53-8E65-A6A29EB8D1E7";
paths = (
{
closed = 1;
nodes = (
"94 116 LINE",
"83 40 OFFCURVE",
"67 -32 OFFCURVE",
"38 -129 CURVE",
"60 -129 LINE",
"88 -60 OFFCURVE",
"110 30 OFFCURVE",
"125 104 CURVE",
"122 116 LINE"
);
},
{
closed = 1;
nodes = (
"85 484 OFFCURVE",
"90 470 OFFCURVE",
"110 470 CURVE SMOOTH",
"134 470 OFFCURVE",
"137 484 OFFCURVE",
"137 501 CURVE SMOOTH",
"137 517 OFFCURVE",
"134 532 OFFCURVE",
"110 532 CURVE SMOOTH",
"90 532 OFFCURVE",
"85 517 OFFCURVE",
"85 501 CURVE SMOOTH"
);
}
);
width = 220;
},
{
layerId = "0F8E8D95-EFB6-4635-B30D-2DA8DDB35575";
paths = (
{
closed = 1;
nodes = (
"67 146 LINE",
"61 69 OFFCURVE",
"46 -60 OFFCURVE",
"30 -139 CURVE",
"165 -139 LINE",
"193 -66 OFFCURVE",
"215 25 OFFCURVE",
"230 135 CURVE",
"225 146 LINE"
);
},
{
closed = 1;
nodes = (
"49 408 OFFCURVE",
"84 374 OFFCURVE",
"142 374 CURVE SMOOTH",
"198 374 OFFCURVE",
"231 408 OFFCURVE",
"231 467 CURVE SMOOTH",
"231 527 OFFCURVE",
"200 561 OFFCURVE",
"142 561 CURVE SMOOTH",
"81 561 OFFCURVE",
"49 527 OFFCURVE",
"49 467 CURVE SMOOTH"
);
}
);
width = 280;
},
{
layerId = "9C354F0E-63BE-4945-A1C1-0B7B127DD18D";
paths = (
{
closed = 1;
nodes = (
"82 114 LINE",
"74 42 OFFCURVE",
"58 -50 OFFCURVE",
"36 -132 CURVE",
"98 -132 LINE",
"130 -60 OFFCURVE",
"155 19 OFFCURVE",
"174 103 CURVE",
"167 114 LINE"
);
},
{
closed = 1;
nodes = (
"60 433 OFFCURVE",
"79 411 OFFCURVE",
"114 411 CURVE SMOOTH",
"145 411 OFFCURVE",
"168 432 OFFCURVE",
"168 476 CURVE SMOOTH",
"168 518 OFFCURVE",
"149 540 OFFCURVE",
"114 540 CURVE SMOOTH",
"78 540 OFFCURVE",
"60 518 OFFCURVE",
"60 476 CURVE SMOOTH"
);
}
);
width = 228;
},
{
layerId = "DE962D09-1426-4D02-9608-9FE5B080C42D";
paths = (
{
closed = 1;
nodes = (
"89 101 LINE",
"79 22 OFFCURVE",
"72 -13 OFFCURVE",
"38 -129 CURVE",
"59 -129 LINE",
"88 -58 OFFCURVE",
"110 26 OFFCURVE",
"121 88 CURVE",
"117 101 LINE"
);
},
{
closed = 1;
nodes = (
"70 476 OFFCURVE",
"75 461 OFFCURVE",
"95 461 CURVE SMOOTH",
"113 461 OFFCURVE",
"121 474 OFFCURVE",
"121 497 CURVE SMOOTH",
"121 520 OFFCURVE",
"114 532 OFFCURVE",
"95 532 CURVE SMOOTH",
"75 532 OFFCURVE",
"70 516 OFFCURVE",
"70 497 CURVE SMOOTH"
);
}
);
width = 177;
}
);
note = semicolon;
unicode = 003B;
},
{
glyphname = question;
lastChange = "2017-12-14 22:49:48 +0000";
layers = (
{
layerId = "46DC2CF2-3687-4CD7-A306-8CA7072459C9";
paths = (
{
closed = 1;
nodes = (
"210 201 LINE",
"210 218 LINE SMOOTH",
"210 275 OFFCURVE",
"223 301 OFFCURVE",
"290 358 CURVE SMOOTH",
"362 418 OFFCURVE",
"408 459 OFFCURVE",
"408 549 CURVE SMOOTH",
"408 657 OFFCURVE",
"336 724 OFFCURVE",
"209 724 CURVE SMOOTH",
"129 724 OFFCURVE",
"65 703 OFFCURVE",
"12 675 CURVE",
"43 605 LINE",
"89 627 OFFCURVE",
"137 647 OFFCURVE",
"203 647 CURVE SMOOTH",
"281 647 OFFCURVE",
"324 611 OFFCURVE",
"324 547 CURVE SMOOTH",
"324 487 OFFCURVE",
"301 463 OFFCURVE",
"224 398 CURVE SMOOTH",
"159 343 OFFCURVE",
"140 303 OFFCURVE",
"140 228 CURVE SMOOTH",
"140 201 LINE"
);
},
{
closed = 1;
nodes = (
"117 6 OFFCURVE",
"143 -14 OFFCURVE",
"179 -14 CURVE SMOOTH",
"212 -14 OFFCURVE",
"240 6 OFFCURVE",
"240 54 CURVE SMOOTH",
"240 103 OFFCURVE",
"212 121 OFFCURVE",
"179 121 CURVE SMOOTH",
"143 121 OFFCURVE",
"117 103 OFFCURVE",
"117 54 CURVE SMOOTH"
);
}
);
width = 434;
},
{
layerId = "51E32C1F-DEF7-419B-8D63-3B39AA64BD60";
paths = (
{
closed = 1;
nodes = (
"294 252 LINE",
"294 277 LINE SMOOTH",
"294 308 OFFCURVE",
"312 324 OFFCURVE",
"371 362 CURVE SMOOTH",
"454 415 OFFCURVE",
"487 469 OFFCURVE",
"487 546 CURVE SMOOTH",
"487 653 OFFCURVE",
"402 724 OFFCURVE",
"254 724 CURVE SMOOTH",
"156 724 OFFCURVE",
"73 697 OFFCURVE",
"0 655 CURVE",
"68 522 LINE",
"133 556 OFFCURVE",
"191 574 OFFCURVE",
"240 574 CURVE SMOOTH",
"280 574 OFFCURVE",
"307 557 OFFCURVE",
"307 530 CURVE SMOOTH",
"307 503 OFFCURVE",
"299 481 OFFCURVE",
"233 439 CURVE SMOOTH",
"163 395 OFFCURVE",
"144 354 OFFCURVE",
"144 294 CURVE SMOOTH",
"144 252 LINE"
);
},
{
closed = 1;
nodes = (
"123 15 OFFCURVE",
"169 -12 OFFCURVE",
"226 -12 CURVE SMOOTH",
"281 -12 OFFCURVE",
"327 15 OFFCURVE",
"327 81 CURVE SMOOTH",
"327 150 OFFCURVE",
"281 175 OFFCURVE",
"226 175 CURVE SMOOTH",
"169 175 OFFCURVE",
"123 150 OFFCURVE",
"123 81 CURVE SMOOTH"
);
}
);
width = 505;
},
{
layerId = "6517A2BC-7974-4B53-8E65-A6A29EB8D1E7";
paths = (
{
closed = 1;
nodes = (
"169 174 LINE",
"169 186 LINE SMOOTH",
"169 277 OFFCURVE",
"190 314 OFFCURVE",
"242 350 CURVE SMOOTH",
"321 405 OFFCURVE",
"374 454 OFFCURVE",
"374 554 CURVE SMOOTH",
"374 668 OFFCURVE",
"300 724 OFFCURVE",
"188 724 CURVE SMOOTH",
"134 724 OFFCURVE",
"96 715 OFFCURVE",
"38 691 CURVE",
"48 665 LINE",
"96 689 OFFCURVE",
"139 699 OFFCURVE",
"188 699 CURVE SMOOTH",
"281 699 OFFCURVE",
"347 654 OFFCURVE",
"347 554 CURVE SMOOTH",
"347 463 OFFCURVE",
"301 422 OFFCURVE",
"229 371 CURVE SMOOTH",
"160 322 OFFCURVE",
"144 285 OFFCURVE",
"144 186 CURVE SMOOTH",
"144 174 LINE"
);
},
{
closed = 1;
nodes = (
"133 6 OFFCURVE",
"138 -8 OFFCURVE",
"158 -8 CURVE SMOOTH",
"182 -8 OFFCURVE",
"185 6 OFFCURVE",
"185 23 CURVE SMOOTH",
"185 39 OFFCURVE",
"182 54 OFFCURVE",
"158 54 CURVE SMOOTH",
"138 54 OFFCURVE",
"133 39 OFFCURVE",
"133 23 CURVE SMOOTH"
);
}
);
width = 413;
},
{
layerId = "0F8E8D95-EFB6-4635-B30D-2DA8DDB35575";
paths = (
{
closed = 1;
nodes = (
"243 252 LINE",
"243 277 LINE SMOOTH",
"243 306 OFFCURVE",
"245 317 OFFCURVE",
"295 362 CURVE SMOOTH",
"354 414 OFFCURVE",
"388 460 OFFCURVE",
"388 546 CURVE SMOOTH",
"388 655 OFFCURVE",
"319 724 OFFCURVE",
"189 724 CURVE SMOOTH",
"126 724 OFFCURVE",
"63 701 OFFCURVE",
"0 655 CURVE",
"52 528 LINE",
"98 562 OFFCURVE",
"138 580 OFFCURVE",
"173 580 CURVE SMOOTH",
"212 580 OFFCURVE",
"230 563 OFFCURVE",
"230 532 CURVE SMOOTH",
"230 494 OFFCURVE",
"215 476 OFFCURVE",
"175 440 CURVE SMOOTH",
"126 396 OFFCURVE",
"107 359 OFFCURVE",
"107 294 CURVE SMOOTH",
"107 252 LINE"
);
},
{
closed = 1;
nodes = (
"83 22 OFFCURVE",
"119 -12 OFFCURVE",
"176 -12 CURVE SMOOTH",
"233 -12 OFFCURVE",
"266 22 OFFCURVE",
"266 81 CURVE SMOOTH",
"266 141 OFFCURVE",
"234 175 OFFCURVE",
"176 175 CURVE SMOOTH",
"116 175 OFFCURVE",
"83 141 OFFCURVE",
"83 81 CURVE SMOOTH"
);
}
);
width = 402;
},
{
layerId = "9C354F0E-63BE-4945-A1C1-0B7B127DD18D";
paths = (
{
closed = 1;
nodes = (
"163 201 LINE",
"163 221 LINE SMOOTH",
"163 275 OFFCURVE",
"175 306 OFFCURVE",
"215 358 CURVE SMOOTH",
"272 433 OFFCURVE",
"297 474 OFFCURVE",
"297 560 CURVE SMOOTH",
"297 665 OFFCURVE",
"243 724 OFFCURVE",
"145 724 CURVE SMOOTH",
"98 724 OFFCURVE",
"54 709 OFFCURVE",
"12 678 CURVE",
"43 614 LINE",
"76 637 OFFCURVE",
"104 650 OFFCURVE",
"141 650 CURVE SMOOTH",
"188 650 OFFCURVE",
"216 617 OFFCURVE",
"216 553 CURVE SMOOTH",
"216 495 OFFCURVE",
"198 455 OFFCURVE",
"151 394 CURVE SMOOTH",
"110 342 OFFCURVE",
"98 298 OFFCURVE",
"98 230 CURVE SMOOTH",
"98 201 LINE"
);
},
{
closed = 1;
nodes = (
"78 13 OFFCURVE",
"98 -9 OFFCURVE",
"132 -9 CURVE SMOOTH",
"164 -9 OFFCURVE",
"186 11 OFFCURVE",
"186 55 CURVE SMOOTH",
"186 100 OFFCURVE",
"165 119 OFFCURVE",
"132 119 CURVE SMOOTH",
"97 119 OFFCURVE",
"78 97 OFFCURVE",
"78 55 CURVE SMOOTH"
);
}
);
width = 318;
},
{
layerId = "DE962D09-1426-4D02-9608-9FE5B080C42D";
paths = (
{
closed = 1;
nodes = (
"109 170 LINE",
"109 192 LINE SMOOTH",
"109 259 OFFCURVE",
"114 294 OFFCURVE",
"161 363 CURVE SMOOTH",
"200 420 OFFCURVE",
"240 468 OFFCURVE",
"240 565 CURVE SMOOTH",
"240 674 OFFCURVE",
"189 724 OFFCURVE",
"115 724 CURVE SMOOTH",
"76 724 OFFCURVE",
"40 710 OFFCURVE",
"17 693 CURVE",
"30 672 LINE",
"54 689 OFFCURVE",
"83 699 OFFCURVE",
"114 699 CURVE SMOOTH",
"177 699 OFFCURVE",
"213 657 OFFCURVE",
"213 567 CURVE SMOOTH",
"213 483 OFFCURVE",
"182 437 OFFCURVE",
"138 373 CURVE SMOOTH",
"96 312 OFFCURVE",
"85 274 OFFCURVE",
"85 193 CURVE SMOOTH",
"85 170 LINE"
);
},
{
closed = 1;
nodes = (
"72 9 OFFCURVE",
"77 -6 OFFCURVE",
"97 -6 CURVE SMOOTH",
"115 -6 OFFCURVE",
"123 7 OFFCURVE",
"123 31 CURVE SMOOTH",
"123 53 OFFCURVE",
"116 65 OFFCURVE",
"98 65 CURVE SMOOTH",
"77 65 OFFCURVE",
"72 49 OFFCURVE",
"72 29 CURVE SMOOTH"
);
}
);
width = 263;
}
);
note = question;
unicode = 003F;
},
{
glyphname = guillemotleft;
lastChange = "2017-12-14 22:49:48 +0000";
layers = (
{
layerId = "46DC2CF2-3687-4CD7-A306-8CA7072459C9";
paths = (
{
closed = 1;
nodes = (
"40 257 LINE",
"208 56 LINE",
"271 93 LINE",
"131 264 LINE",
"271 435 LINE",
"208 471 LINE",
"40 270 LINE"
);
},
{
closed = 1;
nodes = (
"238 257 LINE",
"408 56 LINE",
"470 93 LINE",
"330 264 LINE",
"470 435 LINE",
"408 471 LINE",
"238 270 LINE"
);
}
);
width = 509;
},
{
layerId = "51E32C1F-DEF7-419B-8D63-3B39AA64BD60";
paths = (
{
closed = 1;
nodes = (
"36 274 LINE",
"226 39 LINE",
"363 111 LINE",
"230 281 LINE",
"363 450 LINE",
"226 523 LINE",
"36 287 LINE"
);
},
{
closed = 1;
nodes = (
"317 274 LINE",
"506 39 LINE",
"644 111 LINE",
"510 281 LINE",
"644 450 LINE",
"506 523 LINE",
"317 287 LINE"
);
}
);
width = 681;
},
{
layerId = "6517A2BC-7974-4B53-8E65-A6A29EB8D1E7";
paths = (
{
closed = 1;
nodes = (
"26 272 LINE",
"178 87 LINE",
"194 98 LINE",
"57 279 LINE",
"194 460 LINE",
"178 472 LINE",
"26 285 LINE"
);
},
{
closed = 1;
nodes = (
"195 272 LINE",
"347 87 LINE",
"363 98 LINE",
"226 279 LINE",
"363 460 LINE",
"347 472 LINE",
"195 285 LINE"
);
}
);
width = 389;
},
{
layerId = "0F8E8D95-EFB6-4635-B30D-2DA8DDB35575";
paths = (
{
closed = 1;
nodes = (
"22 273 LINE",
"177 42 LINE",
"294 104 LINE",
"193 280 LINE",
"294 457 LINE",
"177 519 LINE",
"22 287 LINE"
);
},
{
closed = 1;
nodes = (
"261 273 LINE",
"416 42 LINE",
"533 104 LINE",
"433 280 LINE",
"533 457 LINE",
"416 519 LINE",
"261 287 LINE"
);
}
);
width = 560;
},
{
layerId = "9C354F0E-63BE-4945-A1C1-0B7B127DD18D";
paths = (
{
closed = 1;
nodes = (
"35 257 LINE",
"179 63 LINE",
"236 94 LINE",
"130 264 LINE",
"236 436 LINE",
"179 465 LINE",
"35 271 LINE"
);
},
{
closed = 1;
nodes = (
"224 257 LINE",
"369 63 LINE",
"425 94 LINE",
"320 264 LINE",
"425 436 LINE",
"369 465 LINE",
"224 271 LINE"
);
}
);
width = 460;
},
{
layerId = "DE962D09-1426-4D02-9608-9FE5B080C42D";
paths = (
{
closed = 1;
nodes = (
"40 271 LINE",
"181 98 LINE",
"199 108 LINE",
"75 278 LINE",
"198 449 LINE",
"181 459 LINE",
"40 284 LINE"
);
},
{
closed = 1;
nodes = (
"210 271 LINE",
"351 98 LINE",
"369 108 LINE",
"245 278 LINE",
"368 449 LINE",
"351 459 LINE",
"210 284 LINE"
);
}
);
width = 408;
}
);
note = guillemotleft;
unicode = 00AB;
},
{
glyphname = uni00AD;
lastChange = "2017-12-14 22:49:48 +0000";
layers = (
{
layerId = "46DC2CF2-3687-4CD7-A306-8CA7072459C9";
paths = (
{
closed = 1;
nodes = (
"282 227 LINE",
"282 309 LINE",
"40 309 LINE",
"40 227 LINE"
);
}
);
width = 322;
},
{
layerId = "51E32C1F-DEF7-419B-8D63-3B39AA64BD60";
paths = (
{
closed = 1;
nodes = (
"300 191 LINE",
"300 345 LINE",
"22 345 LINE",
"22 191 LINE"
);
}
);
width = 322;
},
{
layerId = "6517A2BC-7974-4B53-8E65-A6A29EB8D1E7";
paths = (
{
closed = 1;
nodes = (
"268 254 LINE",
"268 282 LINE",
"54 282 LINE",
"54 254 LINE"
);
}
);
width = 322;
},
{
layerId = "0F8E8D95-EFB6-4635-B30D-2DA8DDB35575";
paths = (
{
closed = 1;
nodes = (
"296 192 LINE",
"296 344 LINE",
"29 344 LINE",
"29 192 LINE"
);
}
);
width = 325;
},
{
layerId = "9C354F0E-63BE-4945-A1C1-0B7B127DD18D";
paths = (
{
closed = 1;
nodes = (
"247 229 LINE",
"247 310 LINE",
"27 310 LINE",
"27 229 LINE"
);
}
);
width = 274;
},
{
layerId = "DE962D09-1426-4D02-9608-9FE5B080C42D";
paths = (
{
closed = 1;
nodes = (
"237 259 LINE",
"237 286 LINE",
"26 286 LINE",
"26 259 LINE"
);
}
);
width = 263;
}
);
note = uni00AD;
unicode = 00AD;
},
{
glyphname = guillemotright;
lastChange = "2017-12-14 22:49:48 +0000";
layers = (
{
layerId = "46DC2CF2-3687-4CD7-A306-8CA7072459C9";
paths = (
{
closed = 1;
nodes = (
"469 270 LINE",
"299 471 LINE",
"237 435 LINE",
"377 264 LINE",
"237 93 LINE",
"299 56 LINE",
"469 257 LINE"
);
},
{
closed = 1;
nodes = (
"270 270 LINE",
"101 471 LINE",
"39 435 LINE",
"179 264 LINE",
"39 93 LINE",
"101 56 LINE",
"270 257 LINE"
);
}
);
width = 509;
},
{
layerId = "51E32C1F-DEF7-419B-8D63-3B39AA64BD60";
paths = (
{
closed = 1;
nodes = (
"645 287 LINE",
"456 523 LINE",
"317 450 LINE",
"451 281 LINE",
"317 111 LINE",
"456 39 LINE",
"645 274 LINE"
);
},
{
closed = 1;
nodes = (
"364 287 LINE",
"175 523 LINE",
"37 450 LINE",
"170 281 LINE",
"37 111 LINE",
"175 39 LINE",
"364 274 LINE"
);
}
);
width = 681;
},
{
layerId = "6517A2BC-7974-4B53-8E65-A6A29EB8D1E7";
paths = (
{
closed = 1;
nodes = (
"363 287 LINE",
"211 472 LINE",
"195 461 LINE",
"332 280 LINE",
"195 99 LINE",
"211 87 LINE",
"363 274 LINE"
);
},
{
closed = 1;
nodes = (
"194 287 LINE",
"42 472 LINE",
"26 461 LINE",
"163 280 LINE",
"26 99 LINE",
"42 87 LINE",
"194 274 LINE"
);
}
);
width = 389;
},
{
layerId = "0F8E8D95-EFB6-4635-B30D-2DA8DDB35575";
paths = (
{
closed = 1;
nodes = (
"538 287 LINE",
"383 519 LINE",
"266 457 LINE",
"367 280 LINE",
"266 104 LINE",
"383 42 LINE",
"538 273 LINE"
);
},
{
closed = 1;
nodes = (
"299 287 LINE",
"144 519 LINE",
"27 457 LINE",
"127 280 LINE",
"27 104 LINE",
"144 42 LINE",
"299 273 LINE"
);
}
);
width = 560;
},
{
layerId = "9C354F0E-63BE-4945-A1C1-0B7B127DD18D";
paths = (
{
closed = 1;
nodes = (
"426 271 LINE",
"281 465 LINE",
"225 436 LINE",
"330 264 LINE",
"225 94 LINE",
"281 63 LINE",
"426 257 LINE"
);
},
{
closed = 1;
nodes = (
"237 271 LINE",
"91 465 LINE",
"36 436 LINE",
"140 264 LINE",
"36 94 LINE",
"91 63 LINE",
"237 257 LINE"
);
}
);
width = 460;
},
{
layerId = "DE962D09-1426-4D02-9608-9FE5B080C42D";
paths = (
{
closed = 1;
nodes = (
"358 284 LINE",
"217 459 LINE",
"199 449 LINE",
"323 278 LINE",
"199 108 LINE",
"217 98 LINE",
"358 271 LINE"
);
},
{
closed = 1;
nodes = (
"199 284 LINE",
"58 459 LINE",
"40 449 LINE",
"164 278 LINE",
"40 108 LINE",
"58 98 LINE",
"199 271 LINE"
);
}
);
width = 397;
}
);
note = guillemotright;
unicode = 00BB;
},
{
glyphname = quoteleft;
lastChange = "2017-12-14 22:49:48 +0000";
layers = (
{
layerId = "51E32C1F-DEF7-419B-8D63-3B39AA64BD60";
paths = (
{
closed = 1;
nodes = (
"184 428 LINE",
"193 508 OFFCURVE",
"213 622 OFFCURVE",
"232 713 CURVE",
"96 713 LINE",
"63 639 OFFCURVE",
"28 511 OFFCURVE",
"10 439 CURVE",
"17 428 LINE"
);
}
);
width = 250;
},
{
layerId = "0F8E8D95-EFB6-4635-B30D-2DA8DDB35575";
paths = (
{
closed = 1;
nodes = (
"201 429 LINE",
"207 503 OFFCURVE",
"221 631 OFFCURVE",
"238 714 CURVE",
"104 714 LINE",
"75 641 OFFCURVE",
"53 549 OFFCURVE",
"38 440 CURVE",
"43 429 LINE"
);
}
);
width = 273;
},
{
layerId = "46DC2CF2-3687-4CD7-A306-8CA7072459C9";
paths = (
{
closed = 1;
nodes = (
"113 469 LINE",
"123 538 OFFCURVE",
"144 638 OFFCURVE",
"163 714 CURVE",
"98 714 LINE",
"66 643 OFFCURVE",
"30 550 OFFCURVE",
"12 480 CURVE",
"18 469 LINE"
);
}
);
width = 175;
},
{
layerId = "9C354F0E-63BE-4945-A1C1-0B7B127DD18D";
paths = (
{
closed = 1;
nodes = (
"119 468 LINE",
"126 539 OFFCURVE",
"142 631 OFFCURVE",
"164 714 CURVE",
"103 714 LINE",
"71 642 OFFCURVE",
"45 563 OFFCURVE",
"26 479 CURVE",
"32 468 LINE"
);
}
);
width = 189;
},
{
layerId = "6517A2BC-7974-4B53-8E65-A6A29EB8D1E7";
paths = (
{
closed = 1;
nodes = (
"48 469 LINE",
"55 541 OFFCURVE",
"80 644 OFFCURVE",
"111 714 CURVE",
"94 714 LINE",
"62 645 OFFCURVE",
"34 560 OFFCURVE",
"22 478 CURVE",
"28 469 LINE"
);
}
);
width = 127;
},
{
layerId = "DE962D09-1426-4D02-9608-9FE5B080C42D";
paths = (
{
closed = 1;
nodes = (
"56 495 LINE",
"68 567 OFFCURVE",
"85 631 OFFCURVE",
"110 714 CURVE",
"89 714 LINE",
"58 642 OFFCURVE",
"39 573 OFFCURVE",
"21 506 CURVE",
"29 495 LINE"
);
}
);
width = 131;
}
);
leftKerningGroup = quoteleft;
rightKerningGroup = quote.left;
unicode = 2018;
subCategory = Quote;
},
{
glyphname = quoteright;
lastChange = "2017-12-14 22:49:48 +0000";
layers = (
{
layerId = "51E32C1F-DEF7-419B-8D63-3B39AA64BD60";
paths = (
{
closed = 1;
nodes = (
"66 713 LINE",
"57 633 OFFCURVE",
"37 519 OFFCURVE",
"18 428 CURVE",
"154 428 LINE",
"187 502 OFFCURVE",
"222 630 OFFCURVE",
"240 702 CURVE",
"233 713 LINE"
);
}
);
width = 250;
},
{
layerId = "0F8E8D95-EFB6-4635-B30D-2DA8DDB35575";
paths = (
{
closed = 1;
nodes = (
"72 714 LINE",
"69 647 OFFCURVE",
"50 499 OFFCURVE",
"36 429 CURVE",
"170 429 LINE",
"199 502 OFFCURVE",
"220 593 OFFCURVE",
"235 703 CURVE",
"230 714 LINE"
);
}
);
width = 273;
},
{
layerId = "46DC2CF2-3687-4CD7-A306-8CA7072459C9";
paths = (
{
closed = 1;
nodes = (
"62 714 LINE",
"52 644 OFFCURVE",
"31 544 OFFCURVE",
"12 469 CURVE",
"77 469 LINE",
"109 540 OFFCURVE",
"145 633 OFFCURVE",
"163 703 CURVE",
"156 714 LINE"
);
}
);
width = 175;
},
{
layerId = "9C354F0E-63BE-4945-A1C1-0B7B127DD18D";
paths = (
{
closed = 1;
nodes = (
"70 714 LINE",
"64 645 OFFCURVE",
"46 548 OFFCURVE",
"25 468 CURVE",
"87 468 LINE",
"119 543 OFFCURVE",
"144 620 OFFCURVE",
"163 703 CURVE",
"156 714 LINE"
);
}
);
width = 189;
},
{
layerId = "6517A2BC-7974-4B53-8E65-A6A29EB8D1E7";
paths = (
{
closed = 1;
nodes = (
"79 714 LINE",
"72 642 OFFCURVE",
"47 539 OFFCURVE",
"16 469 CURVE",
"33 469 LINE",
"65 538 OFFCURVE",
"93 623 OFFCURVE",
"105 705 CURVE",
"99 714 LINE"
);
}
);
width = 127;
},
{
layerId = "DE962D09-1426-4D02-9608-9FE5B080C42D";
paths = (
{
closed = 1;
nodes = (
"75 714 LINE",
"63 642 OFFCURVE",
"46 578 OFFCURVE",
"21 495 CURVE",
"42 495 LINE",
"73 567 OFFCURVE",
"92 636 OFFCURVE",
"110 703 CURVE",
"102 714 LINE"
);
}
);
width = 131;
}
);
leftKerningGroup = quote.right;
rightKerningGroup = quote.left;
unicode = 2019;
subCategory = Quote;
},
{
glyphname = quotedblleft;
lastChange = "2017-12-14 22:49:48 +0000";
layers = (
{
layerId = "51E32C1F-DEF7-419B-8D63-3B39AA64BD60";
paths = (
{
closed = 1;
nodes = (
"345 713 LINE",
"312 639 OFFCURVE",
"277 511 OFFCURVE",
"259 439 CURVE",
"266 428 LINE",
"433 428 LINE",
"442 508 OFFCURVE",
"462 622 OFFCURVE",
"481 713 CURVE"
);
},
{
closed = 1;
nodes = (
"96 713 LINE",
"63 639 OFFCURVE",
"28 511 OFFCURVE",
"10 439 CURVE",
"17 428 LINE",
"184 428 LINE",
"193 508 OFFCURVE",
"213 622 OFFCURVE",
"232 713 CURVE"
);
}
);
width = 499;
},
{
layerId = "0F8E8D95-EFB6-4635-B30D-2DA8DDB35575";
paths = (
{
closed = 1;
nodes = (
"333 714 LINE",
"304 641 OFFCURVE",
"283 549 OFFCURVE",
"268 440 CURVE",
"273 429 LINE",
"431 429 LINE",
"435 515 OFFCURVE",
"451 626 OFFCURVE",
"467 714 CURVE"
);
},
{
closed = 1;
nodes = (
"104 714 LINE",
"75 641 OFFCURVE",
"53 549 OFFCURVE",
"38 440 CURVE",
"43 429 LINE",
"201 429 LINE",
"207 503 OFFCURVE",
"221 631 OFFCURVE",
"238 714 CURVE"
);
}
);
width = 503;
},
{
layerId = "46DC2CF2-3687-4CD7-A306-8CA7072459C9";
paths = (
{
closed = 1;
nodes = (
"282 714 LINE",
"249 642 OFFCURVE",
"213 550 OFFCURVE",
"195 480 CURVE",
"202 469 LINE",
"297 469 LINE",
"307 538 OFFCURVE",
"328 637 OFFCURVE",
"347 714 CURVE"
);
},
{
closed = 1;
nodes = (
"98 714 LINE",
"65 642 OFFCURVE",
"30 550 OFFCURVE",
"12 480 CURVE",
"18 469 LINE",
"112 469 LINE",
"122 538 OFFCURVE",
"143 637 OFFCURVE",
"162 714 CURVE"
);
}
);
width = 359;
},
{
layerId = "9C354F0E-63BE-4945-A1C1-0B7B127DD18D";
paths = (
{
closed = 1;
nodes = (
"268 714 LINE",
"237 642 OFFCURVE",
"212 563 OFFCURVE",
"192 479 CURVE",
"198 468 LINE",
"285 468 LINE",
"292 543 OFFCURVE",
"309 630 OFFCURVE",
"330 714 CURVE"
);
},
{
closed = 1;
nodes = (
"103 714 LINE",
"71 642 OFFCURVE",
"45 563 OFFCURVE",
"26 479 CURVE",
"32 468 LINE",
"119 468 LINE",
"126 539 OFFCURVE",
"142 631 OFFCURVE",
"164 714 CURVE"
);
}
);
width = 354;
},
{
layerId = "6517A2BC-7974-4B53-8E65-A6A29EB8D1E7";
paths = (
{
closed = 1;
nodes = (
"232 714 LINE",
"200 645 OFFCURVE",
"172 560 OFFCURVE",
"160 478 CURVE",
"166 469 LINE",
"186 469 LINE",
"193 541 OFFCURVE",
"218 644 OFFCURVE",
"249 714 CURVE"
);
},
{
closed = 1;
nodes = (
"94 714 LINE",
"62 645 OFFCURVE",
"34 560 OFFCURVE",
"22 478 CURVE",
"28 469 LINE",
"48 469 LINE",
"55 541 OFFCURVE",
"80 644 OFFCURVE",
"111 714 CURVE"
);
}
);
width = 265;
},
{
layerId = "DE962D09-1426-4D02-9608-9FE5B080C42D";
paths = (
{
closed = 1;
nodes = (
"213 714 LINE",
"182 642 OFFCURVE",
"162 573 OFFCURVE",
"144 506 CURVE",
"152 495 LINE",
"182 495 LINE",
"192 567 OFFCURVE",
"209 631 OFFCURVE",
"234 714 CURVE"
);
},
{
closed = 1;
nodes = (
"90 714 LINE",
"59 642 OFFCURVE",
"39 573 OFFCURVE",
"21 506 CURVE",
"29 495 LINE",
"59 495 LINE",
"69 567 OFFCURVE",
"86 631 OFFCURVE",
"111 714 CURVE"
);
}
);
width = 255;
}
);
leftKerningGroup = quoteleft;
rightKerningGroup = quote.left;
unicode = 201C;
subCategory = Quote;
},
{
glyphname = quotedblright;
lastChange = "2017-12-14 22:49:48 +0000";
layers = (
{
layerId = "51E32C1F-DEF7-419B-8D63-3B39AA64BD60";
paths = (
{
closed = 1;
nodes = (
"315 713 LINE",
"306 633 OFFCURVE",
"286 519 OFFCURVE",
"267 428 CURVE",
"403 428 LINE",
"436 502 OFFCURVE",
"471 630 OFFCURVE",
"489 702 CURVE",
"482 713 LINE"
);
},
{
closed = 1;
nodes = (
"66 713 LINE",
"57 633 OFFCURVE",
"37 519 OFFCURVE",
"18 428 CURVE",
"154 428 LINE",
"187 502 OFFCURVE",
"222 630 OFFCURVE",
"240 702 CURVE",
"233 713 LINE"
);
}
);
width = 499;
},
{
layerId = "0F8E8D95-EFB6-4635-B30D-2DA8DDB35575";
paths = (
{
closed = 1;
nodes = (
"302 714 LINE",
"295 624 OFFCURVE",
"282 526 OFFCURVE",
"265 429 CURVE",
"399 429 LINE",
"428 502 OFFCURVE",
"450 593 OFFCURVE",
"465 703 CURVE",
"459 714 LINE"
);
},
{
closed = 1;
nodes = (
"72 714 LINE",
"69 647 OFFCURVE",
"48 499 OFFCURVE",
"36 429 CURVE",
"170 429 LINE",
"199 502 OFFCURVE",
"220 593 OFFCURVE",
"235 703 CURVE",
"230 714 LINE"
);
}
);
width = 503;
},
{
layerId = "46DC2CF2-3687-4CD7-A306-8CA7072459C9";
paths = (
{
closed = 1;
nodes = (
"246 714 LINE",
"236 644 OFFCURVE",
"214 544 OFFCURVE",
"195 469 CURVE",
"261 469 LINE",
"293 540 OFFCURVE",
"329 632 OFFCURVE",
"347 703 CURVE",
"340 714 LINE"
);
},
{
closed = 1;
nodes = (
"61 714 LINE",
"51 644 OFFCURVE",
"31 544 OFFCURVE",
"12 469 CURVE",
"76 469 LINE",
"108 540 OFFCURVE",
"144 632 OFFCURVE",
"162 703 CURVE",
"155 714 LINE"
);
}
);
width = 359;
},
{
layerId = "9C354F0E-63BE-4945-A1C1-0B7B127DD18D";
paths = (
{
closed = 1;
nodes = (
"237 714 LINE",
"229 638 OFFCURVE",
"214 555 OFFCURVE",
"191 468 CURVE",
"253 468 LINE",
"285 543 OFFCURVE",
"310 620 OFFCURVE",
"329 703 CURVE",
"322 714 LINE"
);
},
{
closed = 1;
nodes = (
"70 714 LINE",
"64 645 OFFCURVE",
"46 548 OFFCURVE",
"25 468 CURVE",
"87 468 LINE",
"119 543 OFFCURVE",
"144 620 OFFCURVE",
"163 703 CURVE",
"156 714 LINE"
);
}
);
width = 354;
},
{
layerId = "6517A2BC-7974-4B53-8E65-A6A29EB8D1E7";
paths = (
{
closed = 1;
nodes = (
"217 714 LINE",
"210 642 OFFCURVE",
"185 539 OFFCURVE",
"154 469 CURVE",
"171 469 LINE",
"203 538 OFFCURVE",
"231 623 OFFCURVE",
"243 705 CURVE",
"237 714 LINE"
);
},
{
closed = 1;
nodes = (
"79 714 LINE",
"72 642 OFFCURVE",
"47 539 OFFCURVE",
"16 469 CURVE",
"33 469 LINE",
"65 538 OFFCURVE",
"93 623 OFFCURVE",
"105 705 CURVE",
"99 714 LINE"
);
}
);
width = 265;
},
{
layerId = "DE962D09-1426-4D02-9608-9FE5B080C42D";
paths = (
{
closed = 1;
nodes = (
"196 714 LINE",
"186 642 OFFCURVE",
"169 578 OFFCURVE",
"144 495 CURVE",
"165 495 LINE",
"196 567 OFFCURVE",
"217 636 OFFCURVE",
"235 703 CURVE",
"227 714 LINE"
);
},
{
closed = 1;
nodes = (
"73 714 LINE",
"63 642 OFFCURVE",
"46 578 OFFCURVE",
"21 495 CURVE",
"42 495 LINE",
"73 567 OFFCURVE",
"94 636 OFFCURVE",
"112 703 CURVE",
"104 714 LINE"
);
}
);
width = 256;
}
);
leftKerningGroup = quote.right;
rightKerningGroup = quote.left;
unicode = 201D;
subCategory = Quote;
},
{
glyphname = uni1780;
lastChange = "2017-12-14 22:51:15 +0000";
layers = (
{
layerId = "46DC2CF2-3687-4CD7-A306-8CA7072459C9";
paths = (
{
closed = 1;
nodes = (
"538 519 LINE",
"538 586 LINE",
"98 586 LINE",
"98 519 LINE"
);
},
{
closed = 1;
nodes = (
"190 0 LINE",
"190 293 LINE SMOOTH",
"190 353 OFFCURVE",
"233 384 OFFCURVE",
"318 384 CURVE SMOOTH",
"404 384 OFFCURVE",
"446 353 OFFCURVE",
"446 293 CURVE SMOOTH",
"446 0 LINE",
"538 0 LINE",
"538 293 LINE SMOOTH",
"538 398 OFFCURVE",
"465 451 OFFCURVE",
"318 451 CURVE SMOOTH",
"172 451 OFFCURVE",
"98 398 OFFCURVE",
"98 293 CURVE SMOOTH",
"98 0 LINE"
);
}
);
width = 636;
},
{
layerId = "51E32C1F-DEF7-419B-8D63-3B39AA64BD60";
paths = (
{
closed = 1;
nodes = (
"619 474 LINE",
"619 586 LINE",
"90 586 LINE",
"90 474 LINE"
);
},
{
closed = 1;
nodes = (
"271 0 LINE",
"271 266 LINE SMOOTH",
"271 299 OFFCURVE",
"302 328 OFFCURVE",
"354 328 CURVE SMOOTH",
"406 328 OFFCURVE",
"438 299 OFFCURVE",
"438 266 CURVE SMOOTH",
"438 0 LINE",
"619 0 LINE",
"619 266 LINE SMOOTH",
"619 374 OFFCURVE",
"526 440 OFFCURVE",
"354 440 CURVE SMOOTH",
"183 440 OFFCURVE",
"90 374 OFFCURVE",
"90 266 CURVE SMOOTH",
"90 0 LINE"
);
}
);
width = 709;
},
{
layerId = "6517A2BC-7974-4B53-8E65-A6A29EB8D1E7";
paths = (
{
closed = 1;
nodes = (
"481 560 LINE",
"481 586 LINE",
"110 586 LINE",
"110 560 LINE"
);
},
{
closed = 1;
nodes = (
"136 0 LINE",
"136 312 LINE SMOOTH",
"136 389 OFFCURVE",
"176 433 OFFCURVE",
"294 433 CURVE SMOOTH",
"412 433 OFFCURVE",
"455 393 OFFCURVE",
"455 312 CURVE SMOOTH",
"455 0 LINE",
"481 0 LINE",
"481 312 LINE SMOOTH",
"481 415 OFFCURVE",
"422 459 OFFCURVE",
"294 459 CURVE SMOOTH",
"166 459 OFFCURVE",
"110 415 OFFCURVE",
"110 312 CURVE SMOOTH",
"110 0 LINE"
);
}
);
width = 591;
},
{
layerId = "0F8E8D95-EFB6-4635-B30D-2DA8DDB35575";
paths = (
{
closed = 1;
nodes = (
"501 474 LINE",
"501 586 LINE",
"60 586 LINE",
"60 474 LINE"
);
},
{
closed = 1;
nodes = (
"211 0 LINE",
"211 266 LINE SMOOTH",
"211 299 OFFCURVE",
"237 329 OFFCURVE",
"280 329 CURVE SMOOTH",
"323 329 OFFCURVE",
"350 299 OFFCURVE",
"350 266 CURVE SMOOTH",
"350 0 LINE",
"501 0 LINE",
"501 266 LINE SMOOTH",
"501 374 OFFCURVE",
"423 440 OFFCURVE",
"280 440 CURVE SMOOTH",
"138 440 OFFCURVE",
"60 374 OFFCURVE",
"60 266 CURVE SMOOTH",
"60 0 LINE"
);
}
);
width = 561;
},
{
layerId = "9C354F0E-63BE-4945-A1C1-0B7B127DD18D";
paths = (
{
closed = 1;
nodes = (
"445 519 LINE",
"445 586 LINE",
"78 586 LINE",
"78 519 LINE"
);
},
{
closed = 1;
nodes = (
"155 0 LINE",
"155 293 LINE SMOOTH",
"155 353 OFFCURVE",
"191 383 OFFCURVE",
"261 383 CURVE SMOOTH",
"333 383 OFFCURVE",
"368 353 OFFCURVE",
"368 293 CURVE SMOOTH",
"368 0 LINE",
"445 0 LINE",
"445 293 LINE SMOOTH",
"445 398 OFFCURVE",
"384 451 OFFCURVE",
"261 451 CURVE SMOOTH",
"140 451 OFFCURVE",
"78 398 OFFCURVE",
"78 293 CURVE SMOOTH",
"78 0 LINE"
);
}
);
width = 523;
},
{
layerId = "DE962D09-1426-4D02-9608-9FE5B080C42D";
paths = (
{
closed = 1;
nodes = (
"399 560 LINE",
"399 586 LINE",
"90 586 LINE",
"90 560 LINE"
);
},
{
closed = 1;
nodes = (
"116 0 LINE",
"116 312 LINE SMOOTH",
"116 389 OFFCURVE",
"143 433 OFFCURVE",
"243 433 CURVE SMOOTH",
"343 433 OFFCURVE",
"373 389 OFFCURVE",
"373 312 CURVE SMOOTH",
"373 0 LINE",
"399 0 LINE",
"399 312 LINE SMOOTH",
"399 415 OFFCURVE",
"339 459 OFFCURVE",
"243 459 CURVE SMOOTH",
"147 459 OFFCURVE",
"90 415 OFFCURVE",
"90 312 CURVE SMOOTH",
"90 0 LINE"
);
}
);
width = 489;
}
);
note = uni1780;
unicode = 1780;
},
{
glyphname = uni1781;
lastChange = "2017-12-14 22:51:15 +0000";
layers = (
{
layerId = "46DC2CF2-3687-4CD7-A306-8CA7072459C9";
paths = (
{
closed = 1;
nodes = (
"480 0 OFFCURVE",
"537 68 OFFCURVE",
"537 158 CURVE SMOOTH",
"537 234 LINE",
"445 234 LINE",
"445 158 LINE SMOOTH",
"445 98 OFFCURVE",
"412 67 OFFCURVE",
"317 67 CURVE SMOOTH",
"223 67 OFFCURVE",
"190 98 OFFCURVE",
"190 158 CURVE SMOOTH",
"190 231 LINE",
"276 244 LINE SMOOTH",
"450 270 OFFCURVE",
"537 330 OFFCURVE",
"537 438 CURVE SMOOTH",
"537 518 OFFCURVE",
"480 586 OFFCURVE",
"317 586 CURVE SMOOTH",
"155 586 OFFCURVE",
"98 515 OFFCURVE",
"98 445 CURVE SMOOTH",
"98 379 OFFCURVE",
"147 351 OFFCURVE",
"196 351 CURVE SMOOTH",
"238 351 LINE",
"238 421 LINE",
"206 421 OFFCURVE",
"189 432 OFFCURVE",
"189 456 CURVE SMOOTH",
"189 485 OFFCURVE",
"223 519 OFFCURVE",
"317 519 CURVE SMOOTH",
"412 519 OFFCURVE",
"445 488 OFFCURVE",
"445 435 CURVE SMOOTH",
"445 366 OFFCURVE",
"387 328 OFFCURVE",
"271 311 CURVE SMOOTH",
"98 286 LINE",
"98 158 LINE SMOOTH",
"98 68 OFFCURVE",
"155 0 OFFCURVE",
"317 0 CURVE SMOOTH"
);
}
);
width = 635;
},
{
layerId = "51E32C1F-DEF7-419B-8D63-3B39AA64BD60";
paths = (
{
closed = 1;
nodes = (
"526 0 OFFCURVE",
"619 46 OFFCURVE",
"619 158 CURVE SMOOTH",
"619 234 LINE",
"438 234 LINE",
"438 158 LINE SMOOTH",
"438 129 OFFCURVE",
"405 112 OFFCURVE",
"354 112 CURVE SMOOTH",
"305 112 OFFCURVE",
"271 129 OFFCURVE",
"271 158 CURVE SMOOTH",
"271 213 LINE",
"313 226 LINE SMOOTH",
"537 295 OFFCURVE",
"619 329 OFFCURVE",
"619 436 CURVE SMOOTH",
"619 540 OFFCURVE",
"526 586 OFFCURVE",
"354 586 CURVE SMOOTH",
"179 586 OFFCURVE",
"90 549 OFFCURVE",
"90 454 CURVE SMOOTH",
"90 381 OFFCURVE",
"140 351 OFFCURVE",
"211 351 CURVE SMOOTH",
"306 351 LINE",
"306 424 LINE",
"282 424 OFFCURVE",
"275 430 OFFCURVE",
"275 444 CURVE SMOOTH",
"275 465 OFFCURVE",
"305 474 OFFCURVE",
"354 474 CURVE SMOOTH",
"405 474 OFFCURVE",
"438 457 OFFCURVE",
"438 428 CURVE SMOOTH",
"438 383 OFFCURVE",
"396 348 OFFCURVE",
"308 330 CURVE SMOOTH",
"90 286 LINE",
"90 158 LINE SMOOTH",
"90 46 OFFCURVE",
"183 0 OFFCURVE",
"354 0 CURVE SMOOTH"
);
}
);
width = 709;
},
{
layerId = "6517A2BC-7974-4B53-8E65-A6A29EB8D1E7";
paths = (
{
closed = 1;
nodes = (
"419 0 OFFCURVE",
"481 53 OFFCURVE",
"481 158 CURVE SMOOTH",
"481 234 LINE",
"455 234 LINE",
"455 158 LINE SMOOTH",
"455 69 OFFCURVE",
"413 26 OFFCURVE",
"294 26 CURVE SMOOTH",
"174 26 OFFCURVE",
"136 67 OFFCURVE",
"136 158 CURVE SMOOTH",
"136 262 LINE",
"260 275 LINE SMOOTH",
"397 289 OFFCURVE",
"481 338 OFFCURVE",
"481 444 CURVE SMOOTH",
"481 539 OFFCURVE",
"419 586 OFFCURVE",
"294 586 CURVE SMOOTH",
"173 586 OFFCURVE",
"110 522 OFFCURVE",
"110 432 CURVE SMOOTH",
"110 390 OFFCURVE",
"136 351 OFFCURVE",
"176 351 CURVE SMOOTH",
"182 351 LINE",
"182 375 LINE",
"159 375 OFFCURVE",
"136 395 OFFCURVE",
"136 432 CURVE SMOOTH",
"136 520 OFFCURVE",
"187 560 OFFCURVE",
"294 560 CURVE SMOOTH",
"413 560 OFFCURVE",
"455 523 OFFCURVE",
"455 444 CURVE SMOOTH",
"455 359 OFFCURVE",
"386 312 OFFCURVE",
"254 300 CURVE SMOOTH",
"110 286 LINE",
"110 158 LINE SMOOTH",
"110 45 OFFCURVE",
"169 0 OFFCURVE",
"294 0 CURVE SMOOTH"
);
}
);
width = 591;
},
{
layerId = "0F8E8D95-EFB6-4635-B30D-2DA8DDB35575";
paths = (
{
closed = 1;
nodes = (
"423 0 OFFCURVE",
"501 46 OFFCURVE",
"501 158 CURVE SMOOTH",
"501 234 LINE",
"350 234 LINE",
"350 158 LINE SMOOTH",
"350 129 OFFCURVE",
"323 112 OFFCURVE",
"280 112 CURVE SMOOTH",
"239 112 OFFCURVE",
"211 129 OFFCURVE",
"211 158 CURVE SMOOTH",
"211 213 LINE",
"246 226 LINE SMOOTH",
"433 295 OFFCURVE",
"501 329 OFFCURVE",
"501 436 CURVE SMOOTH",
"501 540 OFFCURVE",
"423 586 OFFCURVE",
"280 586 CURVE SMOOTH",
"134 586 OFFCURVE",
"60 549 OFFCURVE",
"60 454 CURVE SMOOTH",
"60 381 OFFCURVE",
"102 351 OFFCURVE",
"161 351 CURVE SMOOTH",
"240 351 LINE",
"240 424 LINE",
"220 424 OFFCURVE",
"216 434 OFFCURVE",
"216 445 CURVE SMOOTH",
"216 462 OFFCURVE",
"239 474 OFFCURVE",
"280 474 CURVE SMOOTH",
"323 474 OFFCURVE",
"350 457 OFFCURVE",
"350 428 CURVE SMOOTH",
"350 383 OFFCURVE",
"315 348 OFFCURVE",
"242 330 CURVE SMOOTH",
"60 286 LINE",
"60 158 LINE SMOOTH",
"60 46 OFFCURVE",
"138 0 OFFCURVE",
"280 0 CURVE SMOOTH"
);
}
);
width = 561;
},
{
layerId = "9C354F0E-63BE-4945-A1C1-0B7B127DD18D";
paths = (
{
closed = 1;
nodes = (
"398 0 OFFCURVE",
"446 68 OFFCURVE",
"446 158 CURVE SMOOTH",
"446 234 LINE",
"369 234 LINE",
"369 158 LINE SMOOTH",
"369 98 OFFCURVE",
"342 67 OFFCURVE",
"263 67 CURVE SMOOTH",
"184 67 OFFCURVE",
"156 98 OFFCURVE",
"156 158 CURVE SMOOTH",
"156 231 LINE",
"228 244 LINE SMOOTH",
"373 270 OFFCURVE",
"446 330 OFFCURVE",
"446 428 CURVE SMOOTH",
"446 518 OFFCURVE",
"398 586 OFFCURVE",
"263 586 CURVE SMOOTH",
"128 586 OFFCURVE",
"80 515 OFFCURVE",
"80 446 CURVE SMOOTH",
"80 386 OFFCURVE",
"118 351 OFFCURVE",
"170 351 CURVE SMOOTH",
"197 351 LINE",
"197 421 LINE",
"170 421 OFFCURVE",
"156 435 OFFCURVE",
"156 464 CURVE SMOOTH",
"156 493 OFFCURVE",
"184 519 OFFCURVE",
"263 519 CURVE SMOOTH",
"342 519 OFFCURVE",
"369 488 OFFCURVE",
"369 428 CURVE SMOOTH",
"369 366 OFFCURVE",
"321 328 OFFCURVE",
"224 311 CURVE SMOOTH",
"79 286 LINE",
"79 158 LINE SMOOTH",
"79 68 OFFCURVE",
"128 0 OFFCURVE",
"263 0 CURVE SMOOTH"
);
}
);
width = 526;
},
{
layerId = "DE962D09-1426-4D02-9608-9FE5B080C42D";
paths = (
{
closed = 1;
nodes = (
"356 0 OFFCURVE",
"399 53 OFFCURVE",
"399 158 CURVE SMOOTH",
"399 234 LINE",
"373 234 LINE",
"373 158 LINE SMOOTH",
"373 69 OFFCURVE",
"343 26 OFFCURVE",
"243 26 CURVE SMOOTH",
"157 26 OFFCURVE",
"116 67 OFFCURVE",
"116 158 CURVE SMOOTH",
"116 262 LINE",
"209 274 LINE SMOOTH",
"336 290 OFFCURVE",
"399 335 OFFCURVE",
"399 448 CURVE SMOOTH",
"399 533 OFFCURVE",
"348 586 OFFCURVE",
"243 586 CURVE SMOOTH",
"143 586 OFFCURVE",
"83 526 OFFCURVE",
"83 440 CURVE SMOOTH",
"83 391 OFFCURVE",
"116 351 OFFCURVE",
"144 351 CURVE SMOOTH",
"150 351 LINE",
"150 377 LINE",
"133 377 OFFCURVE",
"109 393 OFFCURVE",
"109 440 CURVE SMOOTH",
"109 518 OFFCURVE",
"154 560 OFFCURVE",
"243 560 CURVE SMOOTH",
"343 560 OFFCURVE",
"373 517 OFFCURVE",
"373 448 CURVE SMOOTH",
"373 353 OFFCURVE",
"320 312 OFFCURVE",
"205 299 CURVE SMOOTH",
"90 286 LINE",
"90 158 LINE SMOOTH",
"90 53 OFFCURVE",
"142 0 OFFCURVE",
"243 0 CURVE SMOOTH"
);
}
);
width = 489;
}
);
note = uni1781;
unicode = 1781;
},
{
glyphname = uni1782;
lastChange = "2017-12-14 22:51:15 +0000";
layers = (
{
layerId = "46DC2CF2-3687-4CD7-A306-8CA7072459C9";
paths = (
{
closed = 1;
nodes = (
"537 519 LINE",
"537 586 LINE",
"98 586 LINE",
"98 519 LINE"
);
},
{
closed = 1;
nodes = (
"189 0 LINE",
"189 42 LINE",
"203 97 OFFCURVE",
"224 128 OFFCURVE",
"291 128 CURVE SMOOTH",
"342 128 LINE",
"342 195 LINE",
"280 195 LINE SMOOTH",
"242 195 OFFCURVE",
"212 182 OFFCURVE",
"189 156 CURVE",
"189 293 LINE SMOOTH",
"189 353 OFFCURVE",
"232 383 OFFCURVE",
"317 383 CURVE SMOOTH",
"403 383 OFFCURVE",
"445 353 OFFCURVE",
"445 293 CURVE SMOOTH",
"445 0 LINE",
"537 0 LINE",
"537 293 LINE SMOOTH",
"537 398 OFFCURVE",
"464 451 OFFCURVE",
"317 451 CURVE SMOOTH",
"171 451 OFFCURVE",
"98 398 OFFCURVE",
"98 293 CURVE SMOOTH",
"98 0 LINE"
);
}
);
width = 635;
},
{
layerId = "51E32C1F-DEF7-419B-8D63-3B39AA64BD60";
paths = (
{
closed = 1;
nodes = (
"619 474 LINE",
"619 586 LINE",
"90 586 LINE",
"90 474 LINE"
);
},
{
closed = 1;
nodes = (
"271 0 LINE",
"271 97 LINE",
"278 108 OFFCURVE",
"296 128 OFFCURVE",
"329 128 CURVE SMOOTH",
"379 128 LINE",
"379 240 LINE",
"347 240 LINE SMOOTH",
"310 240 OFFCURVE",
"288 232 OFFCURVE",
"271 211 CURVE",
"271 266 LINE SMOOTH",
"271 301 OFFCURVE",
"302 330 OFFCURVE",
"354 330 CURVE SMOOTH",
"406 330 OFFCURVE",
"438 299 OFFCURVE",
"438 266 CURVE SMOOTH",
"438 0 LINE",
"619 0 LINE",
"619 266 LINE SMOOTH",
"619 374 OFFCURVE",
"526 442 OFFCURVE",
"354 442 CURVE SMOOTH",
"183 442 OFFCURVE",
"90 374 OFFCURVE",
"90 266 CURVE SMOOTH",
"90 0 LINE"
);
}
);
width = 709;
},
{
layerId = "6517A2BC-7974-4B53-8E65-A6A29EB8D1E7";
paths = (
{
closed = 1;
nodes = (
"481 560 LINE",
"481 586 LINE",
"110 586 LINE",
"110 560 LINE"
);
},
{
closed = 1;
nodes = (
"136 0 LINE",
"136 53 LINE",
"144 111 OFFCURVE",
"182 132 OFFCURVE",
"271 132 CURVE SMOOTH",
"322 132 LINE",
"322 158 LINE",
"260 158 LINE SMOOTH",
"208 158 OFFCURVE",
"166 148 OFFCURVE",
"136 114 CURVE",
"136 312 LINE SMOOTH",
"136 389 OFFCURVE",
"183 431 OFFCURVE",
"294 431 CURVE SMOOTH",
"407 431 OFFCURVE",
"455 392 OFFCURVE",
"455 312 CURVE SMOOTH",
"455 0 LINE",
"481 0 LINE",
"481 312 LINE SMOOTH",
"481 413 OFFCURVE",
"414 457 OFFCURVE",
"294 457 CURVE SMOOTH",
"176 457 OFFCURVE",
"110 415 OFFCURVE",
"110 312 CURVE SMOOTH",
"110 0 LINE"
);
}
);
width = 591;
},
{
layerId = "0F8E8D95-EFB6-4635-B30D-2DA8DDB35575";
paths = (
{
closed = 1;
nodes = (
"501 474 LINE",
"501 586 LINE",
"60 586 LINE",
"60 474 LINE"
);
},
{
closed = 1;
nodes = (
"211 0 LINE",
"211 97 LINE",
"217 108 OFFCURVE",
"232 128 OFFCURVE",
"259 128 CURVE SMOOTH",
"301 128 LINE",
"301 240 LINE",
"274 240 LINE SMOOTH",
"243 240 OFFCURVE",
"225 232 OFFCURVE",
"211 211 CURVE",
"211 266 LINE SMOOTH",
"211 301 OFFCURVE",
"237 331 OFFCURVE",
"280 331 CURVE SMOOTH",
"323 331 OFFCURVE",
"350 299 OFFCURVE",
"350 266 CURVE SMOOTH",
"350 0 LINE",
"501 0 LINE",
"501 266 LINE SMOOTH",
"501 374 OFFCURVE",
"423 442 OFFCURVE",
"280 442 CURVE SMOOTH",
"138 442 OFFCURVE",
"60 374 OFFCURVE",
"60 266 CURVE SMOOTH",
"60 0 LINE"
);
}
);
width = 561;
},
{
layerId = "9C354F0E-63BE-4945-A1C1-0B7B127DD18D";
paths = (
{
closed = 1;
nodes = (
"445 519 LINE",
"445 586 LINE",
"78 586 LINE",
"78 519 LINE"
);
},
{
closed = 1;
nodes = (
"155 0 LINE",
"155 42 LINE",
"167 97 OFFCURVE",
"184 128 OFFCURVE",
"240 128 CURVE SMOOTH",
"282 128 LINE",
"282 195 LINE",
"231 195 LINE SMOOTH",
"199 195 OFFCURVE",
"174 182 OFFCURVE",
"155 156 CURVE",
"155 293 LINE SMOOTH",
"155 353 OFFCURVE",
"191 383 OFFCURVE",
"262 383 CURVE SMOOTH",
"333 383 OFFCURVE",
"368 353 OFFCURVE",
"368 293 CURVE SMOOTH",
"368 0 LINE",
"445 0 LINE",
"445 293 LINE SMOOTH",
"445 398 OFFCURVE",
"384 451 OFFCURVE",
"262 451 CURVE SMOOTH",
"140 451 OFFCURVE",
"78 398 OFFCURVE",
"78 293 CURVE SMOOTH",
"78 0 LINE"
);
}
);
width = 523;
},
{
layerId = "DE962D09-1426-4D02-9608-9FE5B080C42D";
paths = (
{
closed = 1;
nodes = (
"399 560 LINE",
"399 586 LINE",
"90 586 LINE",
"90 560 LINE"
);
},
{
closed = 1;
nodes = (
"116 0 LINE",
"116 53 LINE",
"123 111 OFFCURVE",
"155 132 OFFCURVE",
"229 132 CURVE SMOOTH",
"271 132 LINE",
"271 158 LINE",
"220 158 LINE SMOOTH",
"176 158 OFFCURVE",
"141 148 OFFCURVE",
"116 114 CURVE",
"116 312 LINE SMOOTH",
"116 389 OFFCURVE",
"151 431 OFFCURVE",
"243 431 CURVE SMOOTH",
"338 431 OFFCURVE",
"373 392 OFFCURVE",
"373 312 CURVE SMOOTH",
"373 0 LINE",
"399 0 LINE",
"399 312 LINE SMOOTH",
"399 413 OFFCURVE",
"343 457 OFFCURVE",
"243 457 CURVE SMOOTH",
"145 457 OFFCURVE",
"90 415 OFFCURVE",
"90 312 CURVE SMOOTH",
"90 0 LINE"
);
}
);
width = 489;
}
);
leftMetricsKey = uni1780;
note = uni1782;
rightMetricsKey = uni1780;
unicode = 1782;
},
{
glyphname = uni1783;
lastChange = "2017-12-14 22:51:15 +0000";
layers = (
{
layerId = "46DC2CF2-3687-4CD7-A306-8CA7072459C9";
paths = (
{
closed = 1;
nodes = (
"98 53 OFFCURVE",
"167 0 OFFCURVE",
"305 0 CURVE SMOOTH",
"378 0 OFFCURVE",
"432 16 OFFCURVE",
"467 48 CURVE",
"501 16 OFFCURVE",
"554 0 OFFCURVE",
"625 0 CURVE SMOOTH",
"762 0 OFFCURVE",
"830 53 OFFCURVE",
"830 158 CURVE SMOOTH",
"830 379 LINE",
"738 379 LINE",
"738 158 LINE SMOOTH",
"738 98 OFFCURVE",
"701 67 OFFCURVE",
"625 67 CURVE SMOOTH",
"550 67 OFFCURVE",
"513 98 OFFCURVE",
"513 158 CURVE SMOOTH",
"513 372 LINE",
"421 372 LINE",
"421 158 LINE SMOOTH",
"421 98 OFFCURVE",
"382 67 OFFCURVE",
"305 67 CURVE SMOOTH",
"228 67 OFFCURVE",
"190 98 OFFCURVE",
"190 158 CURVE SMOOTH",
"190 536 LINE SMOOTH",
"190 569 OFFCURVE",
"165 586 OFFCURVE",
"116 586 CURVE SMOOTH",
"29 586 LINE",
"29 519 LINE",
"75 519 OFFCURVE",
"98 510 OFFCURVE",
"98 486 CURVE SMOOTH",
"98 158 LINE SMOOTH"
);
},
{
closed = 1;
nodes = (
"830 361 LINE",
"830 410 LINE",
"733 518 LINE",
"733 519 LINE",
"854 519 LINE",
"854 586 LINE",
"733 586 LINE",
"679 515 OFFCURVE",
"669 502 OFFCURVE",
"669 491 CURVE SMOOTH",
"669 478 OFFCURVE",
"675 471 OFFCURVE",
"738 394 CURVE",
"738 361 LINE"
);
},
{
closed = 1;
nodes = (
"513 361 LINE",
"513 410 LINE",
"416 518 LINE",
"416 519 LINE",
"537 519 LINE",
"537 586 LINE",
"416 586 LINE",
"362 515 OFFCURVE",
"352 502 OFFCURVE",
"352 491 CURVE SMOOTH",
"352 478 OFFCURVE",
"358 471 OFFCURVE",
"421 394 CURVE",
"421 361 LINE"
);
}
);
width = 928;
},
{
layerId = "51E32C1F-DEF7-419B-8D63-3B39AA64BD60";
paths = (
{
closed = 1;
nodes = (
"94 53 OFFCURVE",
"178 0 OFFCURVE",
"346 0 CURVE SMOOTH",
"419 0 OFFCURVE",
"473 16 OFFCURVE",
"508 48 CURVE",
"542 16 OFFCURVE",
"595 0 OFFCURVE",
"666 0 CURVE SMOOTH",
"831 0 OFFCURVE",
"917 53 OFFCURVE",
"917 158 CURVE SMOOTH",
"917 371 LINE",
"736 371 LINE",
"736 163 LINE SMOOTH",
"736 132 OFFCURVE",
"713 112 OFFCURVE",
"666 112 CURVE SMOOTH",
"620 112 OFFCURVE",
"598 132 OFFCURVE",
"598 163 CURVE SMOOTH",
"598 371 LINE",
"417 371 LINE",
"417 163 LINE SMOOTH",
"417 132 OFFCURVE",
"393 112 OFFCURVE",
"346 112 CURVE SMOOTH",
"299 112 OFFCURVE",
"275 132 OFFCURVE",
"275 163 CURVE SMOOTH",
"275 536 LINE SMOOTH",
"275 569 OFFCURVE",
"251 586 OFFCURVE",
"201 586 CURVE SMOOTH",
"60 586 LINE",
"60 474 LINE",
"76 474 OFFCURVE",
"94 466 OFFCURVE",
"94 451 CURVE SMOOTH",
"94 158 LINE SMOOTH"
);
},
{
closed = 1;
nodes = (
"917 354 LINE",
"917 410 LINE",
"855 473 LINE",
"855 474 LINE",
"925 474 LINE",
"925 586 LINE",
"758 586 LINE",
"716 532 OFFCURVE",
"694 504 OFFCURVE",
"694 491 CURVE SMOOTH",
"694 482 OFFCURVE",
"696 479 OFFCURVE",
"736 426 CURVE",
"736 354 LINE"
);
},
{
closed = 1;
nodes = (
"598 354 LINE",
"598 410 LINE",
"536 473 LINE",
"536 474 LINE",
"606 474 LINE",
"606 586 LINE",
"439 586 LINE",
"397 532 OFFCURVE",
"375 504 OFFCURVE",
"375 491 CURVE SMOOTH",
"375 482 OFFCURVE",
"377 479 OFFCURVE",
"417 426 CURVE",
"417 354 LINE"
);
}
);
width = 1009;
},
{
layerId = "6517A2BC-7974-4B53-8E65-A6A29EB8D1E7";
paths = (
{
closed = 1;
nodes = (
"142 53 OFFCURVE",
"209 0 OFFCURVE",
"316 0 CURVE SMOOTH",
"389 0 OFFCURVE",
"443 16 OFFCURVE",
"478 48 CURVE",
"512 16 OFFCURVE",
"560 0 OFFCURVE",
"631 0 CURVE SMOOTH",
"741 0 OFFCURVE",
"808 53 OFFCURVE",
"808 158 CURVE SMOOTH",
"808 384 LINE",
"782 384 LINE",
"782 158 LINE SMOOTH",
"782 75 OFFCURVE",
"733 26 OFFCURVE",
"636 26 CURVE SMOOTH",
"546 26 OFFCURVE",
"491 55 OFFCURVE",
"491 85 CURVE SMOOTH",
"491 386 LINE",
"465 386 LINE",
"465 85 LINE SMOOTH",
"465 55 OFFCURVE",
"408 26 OFFCURVE",
"316 26 CURVE SMOOTH",
"219 26 OFFCURVE",
"168 77 OFFCURVE",
"168 158 CURVE SMOOTH",
"168 530 LINE SMOOTH",
"168 557 OFFCURVE",
"154 586 OFFCURVE",
"111 586 CURVE SMOOTH",
"40 586 LINE",
"40 560 LINE",
"123 560 OFFCURVE",
"142 560 OFFCURVE",
"142 514 CURVE SMOOTH",
"142 158 LINE SMOOTH"
);
},
{
closed = 1;
nodes = (
"808 376 LINE",
"808 398 LINE",
"726 536 LINE",
"734 560 LINE",
"827 560 LINE",
"827 586 LINE",
"736 586 LINE",
"721 569 OFFCURVE",
"711 547 OFFCURVE",
"711 530 CURVE SMOOTH",
"711 514 OFFCURVE",
"725 486 OFFCURVE",
"782 394 CURVE",
"782 376 LINE"
);
},
{
closed = 1;
nodes = (
"491 376 LINE",
"491 398 LINE",
"409 536 LINE",
"417 560 LINE",
"510 560 LINE",
"510 586 LINE",
"419 586 LINE",
"404 569 OFFCURVE",
"394 547 OFFCURVE",
"394 530 CURVE SMOOTH",
"394 514 OFFCURVE",
"408 486 OFFCURVE",
"465 394 CURVE",
"465 376 LINE"
);
}
);
width = 917;
},
{
layerId = "0F8E8D95-EFB6-4635-B30D-2DA8DDB35575";
paths = (
{
closed = 1;
nodes = (
"70 53 OFFCURVE",
"140 0 OFFCURVE",
"280 0 CURVE SMOOTH",
"341 0 OFFCURVE",
"386 16 OFFCURVE",
"415 48 CURVE",
"443 16 OFFCURVE",
"488 0 OFFCURVE",
"547 0 CURVE SMOOTH",
"684 0 OFFCURVE",
"756 53 OFFCURVE",
"756 158 CURVE SMOOTH",
"756 371 LINE",
"605 371 LINE",
"605 162 LINE SMOOTH",
"605 131 OFFCURVE",
"586 112 OFFCURVE",
"547 112 CURVE SMOOTH",
"508 112 OFFCURVE",
"490 131 OFFCURVE",
"490 162 CURVE SMOOTH",
"490 371 LINE",
"339 371 LINE",
"339 162 LINE SMOOTH",
"339 131 OFFCURVE",
"319 112 OFFCURVE",
"280 112 CURVE SMOOTH",
"241 112 OFFCURVE",
"221 131 OFFCURVE",
"221 162 CURVE SMOOTH",
"221 536 LINE SMOOTH",
"221 569 OFFCURVE",
"201 586 OFFCURVE",
"159 586 CURVE SMOOTH",
"50 586 LINE",
"50 474 LINE",
"63 474 OFFCURVE",
"70 468 OFFCURVE",
"70 453 CURVE SMOOTH",
"70 158 LINE SMOOTH"
);
},
{
closed = 1;
nodes = (
"756 354 LINE",
"756 410 LINE",
"700 473 LINE",
"700 474 LINE",
"764 474 LINE",
"764 586 LINE",
"613 586 LINE",
"563 511 OFFCURVE",
"545 484 OFFCURVE",
"545 473 CURVE SMOOTH",
"545 462 OFFCURVE",
"577 424 OFFCURVE",
"605 391 CURVE",
"605 354 LINE"
);
},
{
closed = 1;
nodes = (
"490 354 LINE",
"490 410 LINE",
"438 473 LINE",
"438 474 LINE",
"497 474 LINE",
"497 586 LINE",
"357 586 LINE",
"322 532 OFFCURVE",
"304 505 OFFCURVE",
"304 491 CURVE SMOOTH",
"304 482 OFFCURVE",
"306 479 OFFCURVE",
"339 426 CURVE",
"339 354 LINE"
);
}
);
width = 824;
},
{
layerId = "9C354F0E-63BE-4945-A1C1-0B7B127DD18D";
paths = (
{
closed = 1;
nodes = (
"87 53 OFFCURVE",
"144 0 OFFCURVE",
"259 0 CURVE SMOOTH",
"320 0 OFFCURVE",
"365 16 OFFCURVE",
"394 48 CURVE",
"422 16 OFFCURVE",
"467 0 OFFCURVE",
"526 0 CURVE SMOOTH",
"640 0 OFFCURVE",
"697 53 OFFCURVE",
"697 158 CURVE SMOOTH",
"697 379 LINE",
"620 379 LINE",
"620 158 LINE SMOOTH",
"620 98 OFFCURVE",
"589 67 OFFCURVE",
"526 67 CURVE SMOOTH",
"463 67 OFFCURVE",
"433 98 OFFCURVE",
"433 158 CURVE SMOOTH",
"433 372 LINE",
"356 372 LINE",
"356 158 LINE SMOOTH",
"356 98 OFFCURVE",
"323 67 OFFCURVE",
"259 67 CURVE SMOOTH",
"195 67 OFFCURVE",
"164 98 OFFCURVE",
"164 158 CURVE SMOOTH",
"164 536 LINE SMOOTH",
"164 569 OFFCURVE",
"142 586 OFFCURVE",
"102 586 CURVE SMOOTH",
"29 586 LINE",
"29 519 LINE",
"67 519 OFFCURVE",
"87 509 OFFCURVE",
"87 485 CURVE SMOOTH",
"87 158 LINE SMOOTH"
);
},
{
closed = 1;
nodes = (
"697 356 LINE",
"697 410 LINE",
"615 518 LINE",
"615 519 LINE",
"716 519 LINE",
"716 586 LINE",
"615 586 LINE",
"570 515 OFFCURVE",
"562 502 OFFCURVE",
"562 491 CURVE SMOOTH",
"562 478 OFFCURVE",
"567 471 OFFCURVE",
"620 394 CURVE",
"620 356 LINE"
);
},
{
closed = 1;
nodes = (
"433 356 LINE",
"433 410 LINE",
"351 518 LINE",
"351 519 LINE",
"452 519 LINE",
"452 586 LINE",
"351 586 LINE",
"306 515 OFFCURVE",
"298 502 OFFCURVE",
"298 491 CURVE SMOOTH",
"298 478 OFFCURVE",
"303 471 OFFCURVE",
"356 394 CURVE",
"356 356 LINE"
);
}
);
width = 786;
},
{
layerId = "DE962D09-1426-4D02-9608-9FE5B080C42D";
paths = (
{
closed = 1;
nodes = (
"145 53 OFFCURVE",
"193 0 OFFCURVE",
"290 0 CURVE SMOOTH",
"351 0 OFFCURVE",
"397 16 OFFCURVE",
"425 48 CURVE",
"449 17 OFFCURVE",
"498 0 OFFCURVE",
"557 0 CURVE SMOOTH",
"653 0 OFFCURVE",
"700 53 OFFCURVE",
"700 158 CURVE SMOOTH",
"700 377 LINE",
"674 377 LINE",
"674 158 LINE SMOOTH",
"674 75 OFFCURVE",
"638 26 OFFCURVE",
"557 26 CURVE SMOOTH",
"485 26 OFFCURVE",
"438 58 OFFCURVE",
"438 88 CURVE SMOOTH",
"438 373 LINE",
"412 373 LINE",
"412 88 LINE SMOOTH",
"412 58 OFFCURVE",
"362 26 OFFCURVE",
"290 26 CURVE SMOOTH",
"209 26 OFFCURVE",
"171 77 OFFCURVE",
"171 158 CURVE SMOOTH",
"171 527 LINE SMOOTH",
"171 560 OFFCURVE",
"149 586 OFFCURVE",
"106 586 CURVE SMOOTH",
"60 586 LINE",
"60 560 LINE",
"129 560 OFFCURVE",
"145 552 OFFCURVE",
"145 516 CURVE SMOOTH",
"145 158 LINE SMOOTH"
);
},
{
closed = 1;
nodes = (
"700 356 LINE",
"700 398 LINE",
"632 536 LINE",
"639 560 LINE",
"716 560 LINE",
"716 586 LINE",
"640 586 LINE",
"627 569 OFFCURVE",
"619 547 OFFCURVE",
"619 530 CURVE SMOOTH",
"619 514 OFFCURVE",
"629 484 OFFCURVE",
"674 392 CURVE",
"674 356 LINE"
);
},
{
closed = 1;
nodes = (
"438 355 LINE",
"438 398 LINE",
"365 536 LINE",
"372 560 LINE",
"449 560 LINE",
"449 586 LINE",
"373 586 LINE",
"360 569 OFFCURVE",
"352 547 OFFCURVE",
"352 530 CURVE SMOOTH",
"352 514 OFFCURVE",
"365 484 OFFCURVE",
"412 392 CURVE",
"412 355 LINE"
);
}
);
width = 806;
}
);
note = uni1783;
rightMetricsKey = uni1794;
unicode = 1783;
},
{
glyphname = uni1784;
lastChange = "2017-12-14 22:51:15 +0000";
layers = (
{
layerId = "46DC2CF2-3687-4CD7-A306-8CA7072459C9";
paths = (
{
closed = 1;
nodes = (
"204 0 LINE",
"318 103 LINE",
"431 0 LINE",
"537 0 LINE",
"537 341 LINE SMOOTH",
"537 408 OFFCURVE",
"513 437 OFFCURVE",
"460 462 CURVE",
"478 479 OFFCURVE",
"484 496 OFFCURVE",
"484 520 CURVE SMOOTH",
"484 563 OFFCURVE",
"453 599 OFFCURVE",
"394 599 CURVE SMOOTH",
"332 599 OFFCURVE",
"304 559 OFFCURVE",
"304 523 CURVE SMOOTH",
"304 497 OFFCURVE",
"314 476 OFFCURVE",
"334 462 CURVE",
"302 453 OFFCURVE",
"283 450 OFFCURVE",
"259 450 CURVE SMOOTH",
"213 450 OFFCURVE",
"189 475 OFFCURVE",
"189 507 CURVE SMOOTH",
"189 674 LINE",
"98 674 LINE",
"98 507 LINE SMOOTH",
"98 423 OFFCURVE",
"170 383 OFFCURVE",
"259 383 CURVE SMOOTH",
"306 383 OFFCURVE",
"352 399 OFFCURVE",
"398 415 CURVE",
"425 399 OFFCURVE",
"445 379 OFFCURVE",
"445 339 CURVE SMOOTH",
"445 82 LINE",
"318 198 LINE",
"189 81 LINE",
"189 281 LINE SMOOTH",
"189 328 OFFCURVE",
"167 352 OFFCURVE",
"122 352 CURVE SMOOTH",
"49 352 LINE",
"49 285 LINE",
"82 285 OFFCURVE",
"97 278 OFFCURVE",
"97 257 CURVE SMOOTH",
"97 0 LINE"
);
}
);
width = 635;
},
{
layerId = "51E32C1F-DEF7-419B-8D63-3B39AA64BD60";
paths = (
{
closed = 1;
nodes = (
"253 0 LINE",
"365 78 LINE",
"477 0 LINE",
"630 0 LINE",
"630 327 LINE SMOOTH",
"630 394 OFFCURVE",
"620 419 OFFCURVE",
"561 458 CURVE",
"579 480 OFFCURVE",
"590 498 OFFCURVE",
"590 540 CURVE SMOOTH",
"590 588 OFFCURVE",
"549 646 OFFCURVE",
"467 646 CURVE SMOOTH",
"377 646 OFFCURVE",
"339 591 OFFCURVE",
"339 539 CURVE SMOOTH",
"339 507 OFFCURVE",
"351 490 OFFCURVE",
"363 473 CURVE",
"340 464 OFFCURVE",
"329 461 OFFCURVE",
"319 461 CURVE SMOOTH",
"292 461 OFFCURVE",
"279 479 OFFCURVE",
"279 507 CURVE SMOOTH",
"279 674 LINE",
"109 674 LINE",
"109 533 LINE SMOOTH",
"109 404 OFFCURVE",
"210 369 OFFCURVE",
"304 369 CURVE SMOOTH",
"373 369 OFFCURVE",
"403 382 OFFCURVE",
"426 390 CURVE",
"445 372 OFFCURVE",
"449 347 OFFCURVE",
"449 308 CURVE SMOOTH",
"449 165 LINE",
"365 223 LINE",
"281 164 LINE",
"281 255 LINE SMOOTH",
"281 323 OFFCURVE",
"262 345 OFFCURVE",
"184 345 CURVE SMOOTH",
"60 345 LINE",
"60 233 LINE",
"87 233 OFFCURVE",
"100 226 OFFCURVE",
"100 208 CURVE SMOOTH",
"100 0 LINE"
);
}
);
width = 720;
},
{
layerId = "6517A2BC-7974-4B53-8E65-A6A29EB8D1E7";
paths = (
{
closed = 1;
nodes = (
"141 0 LINE",
"295 134 LINE",
"448 0 LINE",
"479 0 LINE",
"479 341 LINE SMOOTH",
"479 382 OFFCURVE",
"464 433 OFFCURVE",
"403 461 CURVE",
"412 470 OFFCURVE",
"415 478 OFFCURVE",
"415 490 CURVE SMOOTH",
"415 511 OFFCURVE",
"398 526 OFFCURVE",
"378 526 CURVE SMOOTH",
"354 526 OFFCURVE",
"338 507 OFFCURVE",
"338 489 CURVE SMOOTH",
"338 472 OFFCURVE",
"345 463 OFFCURVE",
"355 455 CURVE",
"330 436 OFFCURVE",
"275 429 OFFCURVE",
"242 429 CURVE SMOOTH",
"185 429 OFFCURVE",
"134 468 OFFCURVE",
"134 522 CURVE SMOOTH",
"134 674 LINE",
"108 674 LINE",
"108 522 LINE SMOOTH",
"108 444 OFFCURVE",
"178 403 OFFCURVE",
"242 403 CURVE SMOOTH",
"285 403 OFFCURVE",
"343 417 OFFCURVE",
"383 443 CURVE",
"415 431 OFFCURVE",
"453 399 OFFCURVE",
"453 335 CURVE SMOOTH",
"453 31 LINE",
"295 169 LINE",
"134 29 LINE",
"134 318 LINE SMOOTH",
"134 339 OFFCURVE",
"126 346 OFFCURVE",
"99 346 CURVE SMOOTH",
"60 346 LINE",
"60 320 LINE",
"97 320 OFFCURVE",
"108 321 OFFCURVE",
"108 308 CURVE SMOOTH",
"108 0 LINE"
);
}
);
width = 589;
},
{
layerId = "0F8E8D95-EFB6-4635-B30D-2DA8DDB35575";
paths = (
{
closed = 1;
nodes = (
"210 0 LINE",
"304 78 LINE",
"398 0 LINE",
"525 0 LINE",
"525 327 LINE SMOOTH",
"525 394 OFFCURVE",
"517 419 OFFCURVE",
"468 458 CURVE",
"480 476 OFFCURVE",
"496 500 OFFCURVE",
"496 541 CURVE SMOOTH",
"496 585 OFFCURVE",
"465 636 OFFCURVE",
"388 636 CURVE SMOOTH",
"320 636 OFFCURVE",
"281 589 OFFCURVE",
"281 535 CURVE SMOOTH",
"281 502 OFFCURVE",
"294 485 OFFCURVE",
"303 473 CURVE",
"287 466 OFFCURVE",
"276 464 OFFCURVE",
"267 464 CURVE SMOOTH",
"250 464 OFFCURVE",
"233 477 OFFCURVE",
"233 507 CURVE SMOOTH",
"233 674 LINE",
"83 674 LINE",
"83 507 LINE SMOOTH",
"83 404 OFFCURVE",
"161 369 OFFCURVE",
"253 369 CURVE SMOOTH",
"305 369 OFFCURVE",
"336 382 OFFCURVE",
"355 390 CURVE",
"371 372 OFFCURVE",
"374 347 OFFCURVE",
"374 308 CURVE SMOOTH",
"374 165 LINE",
"304 223 LINE",
"234 164 LINE",
"234 255 LINE SMOOTH",
"234 316 OFFCURVE",
"219 345 OFFCURVE",
"141 345 CURVE SMOOTH",
"50 345 LINE",
"50 233 LINE",
"73 233 OFFCURVE",
"83 226 OFFCURVE",
"83 208 CURVE SMOOTH",
"83 0 LINE"
);
}
);
width = 585;
},
{
layerId = "9C354F0E-63BE-4945-A1C1-0B7B127DD18D";
paths = (
{
closed = 1;
nodes = (
"160 0 LINE",
"255 103 LINE",
"349 0 LINE",
"438 0 LINE",
"438 341 LINE SMOOTH",
"438 408 OFFCURVE",
"418 437 OFFCURVE",
"374 462 CURVE",
"389 479 OFFCURVE",
"397 495 OFFCURVE",
"397 521 CURVE SMOOTH",
"397 560 OFFCURVE",
"372 594 OFFCURVE",
"321 594 CURVE SMOOTH",
"269 594 OFFCURVE",
"243 561 OFFCURVE",
"243 522 CURVE SMOOTH",
"243 496 OFFCURVE",
"252 476 OFFCURVE",
"269 462 CURVE",
"242 453 OFFCURVE",
"226 451 OFFCURVE",
"206 451 CURVE SMOOTH",
"168 451 OFFCURVE",
"148 475 OFFCURVE",
"148 507 CURVE SMOOTH",
"148 674 LINE",
"72 674 LINE",
"72 507 LINE SMOOTH",
"72 423 OFFCURVE",
"132 383 OFFCURVE",
"206 383 CURVE SMOOTH",
"246 383 OFFCURVE",
"284 399 OFFCURVE",
"322 415 CURVE",
"344 399 OFFCURVE",
"361 379 OFFCURVE",
"361 339 CURVE SMOOTH",
"361 82 LINE",
"255 198 LINE",
"148 81 LINE",
"148 281 LINE SMOOTH",
"148 328 OFFCURVE",
"126 352 OFFCURVE",
"84 352 CURVE SMOOTH",
"31 352 LINE",
"31 285 LINE",
"59 285 OFFCURVE",
"71 278 OFFCURVE",
"71 257 CURVE SMOOTH",
"71 0 LINE"
);
}
);
width = 516;
},
{
layerId = "DE962D09-1426-4D02-9608-9FE5B080C42D";
paths = (
{
closed = 1;
nodes = (
"133 0 LINE",
"255 133 LINE",
"377 0 LINE",
"410 0 LINE",
"410 341 LINE SMOOTH",
"410 382 OFFCURVE",
"395 431 OFFCURVE",
"334 461 CURVE",
"342 470 OFFCURVE",
"345 475 OFFCURVE",
"345 489 CURVE SMOOTH",
"345 507 OFFCURVE",
"330 521 OFFCURVE",
"310 521 CURVE SMOOTH",
"290 521 OFFCURVE",
"277 505 OFFCURVE",
"277 487 CURVE SMOOTH",
"277 471 OFFCURVE",
"286 461 OFFCURVE",
"292 455 CURVE",
"267 436 OFFCURVE",
"242 429 OFFCURVE",
"204 429 CURVE SMOOTH",
"154 429 OFFCURVE",
"115 467 OFFCURVE",
"115 522 CURVE SMOOTH",
"115 674 LINE",
"89 674 LINE",
"89 513 LINE SMOOTH",
"89 449 OFFCURVE",
"143 403 OFFCURVE",
"202 403 CURVE SMOOTH",
"238 403 OFFCURVE",
"274 415 OFFCURVE",
"314 443 CURVE",
"346 431 OFFCURVE",
"384 399 OFFCURVE",
"384 335 CURVE SMOOTH",
"384 31 LINE",
"255 171 LINE",
"125 29 LINE",
"125 318 LINE SMOOTH",
"125 339 OFFCURVE",
"117 346 OFFCURVE",
"90 346 CURVE SMOOTH",
"60 346 LINE",
"60 320 LINE",
"97 320 OFFCURVE",
"99 318 OFFCURVE",
"99 301 CURVE SMOOTH",
"99 0 LINE"
);
}
);
width = 500;
}
);
note = uni1784;
rightMetricsKey = uni1780;
unicode = 1784;
},
{
glyphname = uni1785;
lastChange = "2017-12-14 22:51:15 +0000";
layers = (
{
layerId = "46DC2CF2-3687-4CD7-A306-8CA7072459C9";
paths = (
{
closed = 1;
nodes = (
"425 201 LINE",
"425 158 LINE SMOOTH",
"425 98 OFFCURVE",
"383 67 OFFCURVE",
"297 67 CURVE SMOOTH",
"212 67 OFFCURVE",
"170 98 OFFCURVE",
"170 158 CURVE SMOOTH",
"170 400 LINE",
"117 460 OFFCURVE",
"96 483 OFFCURVE",
"96 500 CURVE SMOOTH",
"96 503 OFFCURVE",
"100 510 OFFCURVE",
"108 519 CURVE",
"517 519 LINE",
"517 586 LINE",
"106 586 LINE",
"36 493 OFFCURVE",
"29 493 OFFCURVE",
"29 466 CURVE SMOOTH",
"29 449 OFFCURVE",
"43 428 OFFCURVE",
"78 384 CURVE",
"78 158 LINE SMOOTH",
"78 53 OFFCURVE",
"151 0 OFFCURVE",
"297 0 CURVE SMOOTH",
"444 0 OFFCURVE",
"517 53 OFFCURVE",
"517 158 CURVE SMOOTH",
"517 201 LINE"
);
},
{
closed = 1;
nodes = (
"517 380 LINE SMOOTH",
"517 419 OFFCURVE",
"486 439 OFFCURVE",
"435 439 CURVE SMOOTH",
"368 439 OFFCURVE",
"313 403 OFFCURVE",
"313 337 CURVE SMOOTH",
"313 277 OFFCURVE",
"357 245 OFFCURVE",
"425 245 CURVE",
"425 198 LINE",
"517 198 LINE"
);
},
{
closed = 1;
nodes = (
"396 313 OFFCURVE",
"380 322 OFFCURVE",
"380 342 CURVE SMOOTH",
"380 362 OFFCURVE",
"396 372 OFFCURVE",
"425 372 CURVE",
"425 313 LINE"
);
}
);
width = 615;
},
{
layerId = "51E32C1F-DEF7-419B-8D63-3B39AA64BD60";
paths = (
{
closed = 1;
nodes = (
"447 199 LINE",
"447 185 LINE SMOOTH",
"447 128 OFFCURVE",
"422 112 OFFCURVE",
"363 112 CURVE SMOOTH",
"304 112 OFFCURVE",
"280 128 OFFCURVE",
"280 185 CURVE SMOOTH",
"280 374 LINE",
"199 421 OFFCURVE",
"177 450 OFFCURVE",
"177 457 CURVE SMOOTH",
"177 462 OFFCURVE",
"180 469 OFFCURVE",
"189 474 CURVE",
"628 474 LINE",
"628 586 LINE",
"136 586 LINE",
"74 516 OFFCURVE",
"50 498 OFFCURVE",
"50 466 CURVE SMOOTH",
"50 452 OFFCURVE",
"76 416 OFFCURVE",
"99 384 CURVE",
"99 158 LINE SMOOTH",
"99 53 OFFCURVE",
"187 0 OFFCURVE",
"363 0 CURVE SMOOTH",
"538 0 OFFCURVE",
"628 53 OFFCURVE",
"628 158 CURVE SMOOTH",
"628 199 LINE"
);
},
{
closed = 1;
nodes = (
"628 363 LINE SMOOTH",
"628 404 OFFCURVE",
"582 434 OFFCURVE",
"511 434 CURVE SMOOTH",
"392 434 OFFCURVE",
"334 383 OFFCURVE",
"334 311 CURVE SMOOTH",
"334 253 OFFCURVE",
"379 211 OFFCURVE",
"447 211 CURVE",
"447 198 LINE",
"628 198 LINE"
);
},
{
closed = 1;
nodes = (
"435 286 OFFCURVE",
"423 295 OFFCURVE",
"423 316 CURVE SMOOTH",
"423 335 OFFCURVE",
"435 345 OFFCURVE",
"447 345 CURVE",
"447 286 LINE"
);
}
);
width = 718;
},
{
layerId = "6517A2BC-7974-4B53-8E65-A6A29EB8D1E7";
paths = (
{
closed = 1;
nodes = (
"437 264 LINE",
"437 158 LINE SMOOTH",
"437 75 OFFCURVE",
"379 26 OFFCURVE",
"278 26 CURVE SMOOTH",
"175 26 OFFCURVE",
"116 76 OFFCURVE",
"116 158 CURVE SMOOTH",
"116 400 LINE",
"83 445 OFFCURVE",
"67 458 OFFCURVE",
"67 478 CURVE SMOOTH",
"67 507 OFFCURVE",
"98 543 OFFCURVE",
"114 560 CURVE",
"463 560 LINE",
"463 586 LINE",
"112 586 LINE",
"58 521 OFFCURVE",
"40 491 OFFCURVE",
"40 466 CURVE SMOOTH",
"40 451 OFFCURVE",
"60 436 OFFCURVE",
"90 384 CURVE",
"90 158 LINE SMOOTH",
"90 62 OFFCURVE",
"154 0 OFFCURVE",
"278 0 CURVE SMOOTH",
"401 0 OFFCURVE",
"463 63 OFFCURVE",
"463 158 CURVE SMOOTH",
"463 264 LINE"
);
},
{
closed = 1;
nodes = (
"463 412 LINE SMOOTH",
"463 431 OFFCURVE",
"456 439 OFFCURVE",
"427 439 CURVE SMOOTH",
"377 439 OFFCURVE",
"344 396 OFFCURVE",
"344 354 CURVE SMOOTH",
"344 297 OFFCURVE",
"399 268 OFFCURVE",
"437 268 CURVE",
"437 216 LINE",
"463 216 LINE"
);
},
{
closed = 1;
nodes = (
"393 295 OFFCURVE",
"370 329 OFFCURVE",
"370 354 CURVE SMOOTH",
"370 377 OFFCURVE",
"379 413 OFFCURVE",
"437 413 CURVE",
"437 295 LINE"
);
}
);
width = 573;
},
{
layerId = "0F8E8D95-EFB6-4635-B30D-2DA8DDB35575";
paths = (
{
closed = 1;
nodes = (
"377 204 LINE",
"377 185 LINE SMOOTH",
"377 128 OFFCURVE",
"356 112 OFFCURVE",
"307 112 CURVE SMOOTH",
"258 112 OFFCURVE",
"238 128 OFFCURVE",
"238 185 CURVE SMOOTH",
"238 374 LINE",
"170 421 OFFCURVE",
"152 450 OFFCURVE",
"152 457 CURVE SMOOTH",
"152 462 OFFCURVE",
"154 469 OFFCURVE",
"162 474 CURVE",
"528 474 LINE",
"528 586 LINE",
"118 586 LINE",
"64 517 OFFCURVE",
"46 495 OFFCURVE",
"46 469 CURVE SMOOTH",
"46 453 OFFCURVE",
"68 416 OFFCURVE",
"87 384 CURVE",
"87 158 LINE SMOOTH",
"87 53 OFFCURVE",
"160 0 OFFCURVE",
"307 0 CURVE SMOOTH",
"453 0 OFFCURVE",
"528 53 OFFCURVE",
"528 158 CURVE SMOOTH",
"528 204 LINE"
);
},
{
closed = 1;
nodes = (
"528 363 LINE SMOOTH",
"528 404 OFFCURVE",
"490 434 OFFCURVE",
"431 434 CURVE SMOOTH",
"331 434 OFFCURVE",
"283 383 OFFCURVE",
"283 311 CURVE SMOOTH",
"283 253 OFFCURVE",
"321 211 OFFCURVE",
"377 211 CURVE",
"377 198 LINE",
"528 198 LINE"
);
},
{
closed = 1;
nodes = (
"367 286 OFFCURVE",
"356 295 OFFCURVE",
"356 316 CURVE SMOOTH",
"356 335 OFFCURVE",
"367 345 OFFCURVE",
"377 345 CURVE",
"377 286 LINE"
);
}
);
width = 588;
},
{
layerId = "9C354F0E-63BE-4945-A1C1-0B7B127DD18D";
paths = (
{
closed = 1;
nodes = (
"369 221 LINE",
"369 158 LINE SMOOTH",
"369 98 OFFCURVE",
"335 67 OFFCURVE",
"263 67 CURVE SMOOTH",
"193 67 OFFCURVE",
"158 98 OFFCURVE",
"158 158 CURVE SMOOTH",
"158 400 LINE",
"114 460 OFFCURVE",
"96 485 OFFCURVE",
"96 500 CURVE SMOOTH",
"96 503 OFFCURVE",
"99 510 OFFCURVE",
"106 519 CURVE",
"447 519 LINE",
"447 586 LINE",
"104 586 LINE",
"46 493 OFFCURVE",
"40 493 OFFCURVE",
"40 466 CURVE SMOOTH",
"40 449 OFFCURVE",
"52 428 OFFCURVE",
"81 384 CURVE",
"81 158 LINE SMOOTH",
"81 53 OFFCURVE",
"142 0 OFFCURVE",
"263 0 CURVE SMOOTH",
"386 0 OFFCURVE",
"446 53 OFFCURVE",
"446 158 CURVE SMOOTH",
"446 221 LINE"
);
},
{
closed = 1;
nodes = (
"446 380 LINE SMOOTH",
"446 419 OFFCURVE",
"421 439 OFFCURVE",
"379 439 CURVE SMOOTH",
"323 439 OFFCURVE",
"277 403 OFFCURVE",
"277 337 CURVE SMOOTH",
"277 277 OFFCURVE",
"313 245 OFFCURVE",
"369 245 CURVE",
"369 207 LINE",
"446 207 LINE"
);
},
{
closed = 1;
nodes = (
"346 313 OFFCURVE",
"333 322 OFFCURVE",
"333 342 CURVE SMOOTH",
"333 362 OFFCURVE",
"346 372 OFFCURVE",
"370 372 CURVE",
"370 313 LINE"
);
}
);
width = 525;
},
{
layerId = "DE962D09-1426-4D02-9608-9FE5B080C42D";
paths = (
{
closed = 1;
nodes = (
"401 263 LINE",
"401 159 LINE SMOOTH",
"401 69 OFFCURVE",
"343 26 OFFCURVE",
"265 26 CURVE SMOOTH",
"163 26 OFFCURVE",
"128 69 OFFCURVE",
"128 159 CURVE SMOOTH",
"128 394 LINE",
"98 436 OFFCURVE",
"83 457 OFFCURVE",
"83 476 CURVE SMOOTH",
"83 504 OFFCURVE",
"114 543 OFFCURVE",
"128 560 CURVE",
"425 560 LINE",
"425 586 LINE",
"122 586 LINE",
"77 521 OFFCURVE",
"60 493 OFFCURVE",
"60 470 CURVE SMOOTH",
"60 454 OFFCURVE",
"71 436 OFFCURVE",
"102 384 CURVE",
"102 158 LINE SMOOTH",
"102 53 OFFCURVE",
"151 0 OFFCURVE",
"265 0 CURVE SMOOTH",
"357 0 OFFCURVE",
"427 53 OFFCURVE",
"427 158 CURVE SMOOTH",
"427 263 LINE"
);
},
{
closed = 1;
nodes = (
"427 412 LINE SMOOTH",
"427 431 OFFCURVE",
"420 439 OFFCURVE",
"391 439 CURVE SMOOTH",
"346 439 OFFCURVE",
"318 396 OFFCURVE",
"318 354 CURVE SMOOTH",
"318 297 OFFCURVE",
"363 268 OFFCURVE",
"401 268 CURVE",
"401 226 LINE",
"427 226 LINE"
);
},
{
closed = 1;
nodes = (
"362 295 OFFCURVE",
"344 329 OFFCURVE",
"344 354 CURVE SMOOTH",
"344 377 OFFCURVE",
"353 413 OFFCURVE",
"401 413 CURVE",
"401 295 LINE"
);
}
);
width = 517;
}
);
leftMetricsKey = uni1794;
note = uni1785;
rightMetricsKey = uni1780;
unicode = 1785;
},
{
glyphname = uni1786;
lastChange = "2017-12-14 22:51:15 +0000";
layers = (
{
layerId = "46DC2CF2-3687-4CD7-A306-8CA7072459C9";
paths = (
{
closed = 1;
nodes = (
"445 213 LINE",
"445 158 LINE SMOOTH",
"445 118 OFFCURVE",
"439 67 OFFCURVE",
"402 67 CURVE SMOOTH",
"369 67 OFFCURVE",
"343 113 OFFCURVE",
"318 140 CURVE SMOOTH",
"286 174 OFFCURVE",
"263 189 OFFCURVE",
"190 195 CURVE",
"190 400 LINE",
"137 460 OFFCURVE",
"116 483 OFFCURVE",
"116 500 CURVE SMOOTH",
"116 503 OFFCURVE",
"120 510 OFFCURVE",
"128 519 CURVE",
"537 519 LINE",
"537 586 LINE",
"126 586 LINE",
"56 493 OFFCURVE",
"49 493 OFFCURVE",
"49 466 CURVE SMOOTH",
"49 449 OFFCURVE",
"63 428 OFFCURVE",
"98 384 CURVE",
"98 195 LINE",
"65 193 OFFCURVE",
"49 174 OFFCURVE",
"49 137 CURVE SMOOTH",
"49 99 OFFCURVE",
"65 53 OFFCURVE",
"98 0 CURVE",
"190 0 LINE",
"190 128 LINE",
"243 123 OFFCURVE",
"253 105 OFFCURVE",
"294 61 CURVE SMOOTH",
"326 27 OFFCURVE",
"360 0 OFFCURVE",
"404 0 CURVE SMOOTH",
"486 0 OFFCURVE",
"537 64 OFFCURVE",
"537 158 CURVE SMOOTH",
"537 213 LINE"
);
},
{
closed = 1;
nodes = (
"537 380 LINE SMOOTH",
"537 419 OFFCURVE",
"506 439 OFFCURVE",
"455 439 CURVE SMOOTH",
"388 439 OFFCURVE",
"333 403 OFFCURVE",
"333 337 CURVE SMOOTH",
"333 277 OFFCURVE",
"377 245 OFFCURVE",
"445 245 CURVE",
"445 198 LINE",
"537 198 LINE"
);
},
{
closed = 1;
nodes = (
"416 313 OFFCURVE",
"400 322 OFFCURVE",
"400 342 CURVE SMOOTH",
"400 362 OFFCURVE",
"416 372 OFFCURVE",
"445 372 CURVE",
"445 313 LINE"
);
}
);
width = 635;
},
{
layerId = "51E32C1F-DEF7-419B-8D63-3B39AA64BD60";
paths = (
{
closed = 1;
nodes = (
"457 204 LINE",
"457 169 LINE SMOOTH",
"457 149 OFFCURVE",
"445 132 OFFCURVE",
"427 132 CURVE SMOOTH",
"408 132 OFFCURVE",
"394 146 OFFCURVE",
"369 161 CURVE SMOOTH",
"344 176 OFFCURVE",
"322 183 OFFCURVE",
"290 188 CURVE",
"290 374 LINE",
"209 421 OFFCURVE",
"187 450 OFFCURVE",
"187 457 CURVE SMOOTH",
"187 462 OFFCURVE",
"190 469 OFFCURVE",
"199 474 CURVE",
"638 474 LINE",
"638 586 LINE",
"146 586 LINE",
"82 517 OFFCURVE",
"60 493 OFFCURVE",
"60 468 CURVE SMOOTH",
"60 452 OFFCURVE",
"86 416 OFFCURVE",
"109 384 CURVE",
"109 191 LINE",
"76 189 OFFCURVE",
"60 171 OFFCURVE",
"60 132 CURVE SMOOTH",
"60 95 OFFCURVE",
"76 54 OFFCURVE",
"109 0 CURVE",
"290 0 LINE",
"290 67 LINE",
"307 66 OFFCURVE",
"332 60 OFFCURVE",
"361 43 CURVE SMOOTH",
"390 26 OFFCURVE",
"421 0 OFFCURVE",
"482 0 CURVE SMOOTH",
"551 0 OFFCURVE",
"638 43 OFFCURVE",
"638 158 CURVE SMOOTH",
"638 204 LINE"
);
},
{
closed = 1;
nodes = (
"638 363 LINE SMOOTH",
"638 404 OFFCURVE",
"592 434 OFFCURVE",
"521 434 CURVE SMOOTH",
"402 434 OFFCURVE",
"344 383 OFFCURVE",
"344 311 CURVE SMOOTH",
"344 253 OFFCURVE",
"389 211 OFFCURVE",
"457 211 CURVE",
"457 198 LINE",
"638 198 LINE"
);
},
{
closed = 1;
nodes = (
"445 286 OFFCURVE",
"433 295 OFFCURVE",
"433 316 CURVE SMOOTH",
"433 335 OFFCURVE",
"445 345 OFFCURVE",
"457 345 CURVE",
"457 286 LINE"
);
}
);
width = 728;
},
{
layerId = "6517A2BC-7974-4B53-8E65-A6A29EB8D1E7";
paths = (
{
closed = 1;
nodes = (
"457 263 LINE",
"457 158 LINE SMOOTH",
"457 97 OFFCURVE",
"436 26 OFFCURVE",
"392 26 CURVE SMOOTH",
"353 26 OFFCURVE",
"335 56 OFFCURVE",
"309 101 CURVE SMOOTH",
"270 167 OFFCURVE",
"232 187 OFFCURVE",
"136 187 CURVE",
"136 400 LINE",
"103 445 OFFCURVE",
"87 458 OFFCURVE",
"87 478 CURVE SMOOTH",
"87 507 OFFCURVE",
"118 543 OFFCURVE",
"134 560 CURVE",
"483 560 LINE",
"483 586 LINE",
"132 586 LINE",
"78 521 OFFCURVE",
"60 491 OFFCURVE",
"60 466 CURVE SMOOTH",
"60 451 OFFCURVE",
"80 436 OFFCURVE",
"110 384 CURVE",
"110 187 LINE",
"96 183 OFFCURVE",
"83 165 OFFCURVE",
"83 128 CURVE SMOOTH",
"83 85 OFFCURVE",
"90 45 OFFCURVE",
"110 0 CURVE",
"136 0 LINE",
"136 161 LINE",
"225 160 OFFCURVE",
"248 150 OFFCURVE",
"288 84 CURVE SMOOTH",
"314 41 OFFCURVE",
"342 0 OFFCURVE",
"392 0 CURVE SMOOTH",
"441 0 OFFCURVE",
"483 55 OFFCURVE",
"483 158 CURVE SMOOTH",
"483 263 LINE"
);
},
{
closed = 1;
nodes = (
"483 412 LINE SMOOTH",
"483 431 OFFCURVE",
"476 439 OFFCURVE",
"447 439 CURVE SMOOTH",
"397 439 OFFCURVE",
"364 396 OFFCURVE",
"364 354 CURVE SMOOTH",
"364 297 OFFCURVE",
"419 268 OFFCURVE",
"457 268 CURVE",
"457 216 LINE",
"483 216 LINE"
);
},
{
closed = 1;
nodes = (
"413 295 OFFCURVE",
"390 329 OFFCURVE",
"390 354 CURVE SMOOTH",
"390 377 OFFCURVE",
"399 413 OFFCURVE",
"457 413 CURVE",
"457 295 LINE"
);
}
);
width = 583;
},
{
layerId = "0F8E8D95-EFB6-4635-B30D-2DA8DDB35575";
paths = (
{
closed = 1;
nodes = (
"371 204 LINE",
"371 169 LINE SMOOTH",
"371 149 OFFCURVE",
"360 130 OFFCURVE",
"345 130 CURVE SMOOTH",
"333 130 OFFCURVE",
"319 141 OFFCURVE",
"298 157 CURVE SMOOTH",
"277 173 OFFCURVE",
"265 179 OFFCURVE",
"232 189 CURVE",
"232 374 LINE",
"164 421 OFFCURVE",
"146 450 OFFCURVE",
"146 457 CURVE SMOOTH",
"146 462 OFFCURVE",
"148 469 OFFCURVE",
"156 474 CURVE",
"522 474 LINE",
"522 586 LINE",
"112 586 LINE",
"58 517 OFFCURVE",
"40 495 OFFCURVE",
"40 469 CURVE SMOOTH",
"40 453 OFFCURVE",
"62 416 OFFCURVE",
"81 384 CURVE",
"81 192 LINE",
"53 189 OFFCURVE",
"40 170 OFFCURVE",
"40 131 CURVE SMOOTH",
"40 94 OFFCURVE",
"53 54 OFFCURVE",
"81 0 CURVE",
"232 0 LINE",
"232 70 LINE",
"258 66 OFFCURVE",
"278 59 OFFCURVE",
"304 41 CURVE SMOOTH",
"325 27 OFFCURVE",
"352 0 OFFCURVE",
"399 0 CURVE SMOOTH",
"465 0 OFFCURVE",
"522 43 OFFCURVE",
"522 158 CURVE SMOOTH",
"522 204 LINE"
);
},
{
closed = 1;
nodes = (
"522 363 LINE SMOOTH",
"522 404 OFFCURVE",
"484 434 OFFCURVE",
"425 434 CURVE SMOOTH",
"325 434 OFFCURVE",
"277 383 OFFCURVE",
"277 311 CURVE SMOOTH",
"277 253 OFFCURVE",
"315 211 OFFCURVE",
"371 211 CURVE",
"371 198 LINE",
"522 198 LINE"
);
},
{
closed = 1;
nodes = (
"361 286 OFFCURVE",
"350 295 OFFCURVE",
"350 316 CURVE SMOOTH",
"350 335 OFFCURVE",
"361 345 OFFCURVE",
"371 345 CURVE",
"371 286 LINE"
);
}
);
width = 582;
},
{
layerId = "9C354F0E-63BE-4945-A1C1-0B7B127DD18D";
paths = (
{
closed = 1;
nodes = (
"378 213 LINE",
"378 158 LINE SMOOTH",
"378 118 OFFCURVE",
"371 67 OFFCURVE",
"340 67 CURVE SMOOTH",
"313 67 OFFCURVE",
"294 113 OFFCURVE",
"273 140 CURVE SMOOTH",
"247 174 OFFCURVE",
"228 189 OFFCURVE",
"167 195 CURVE",
"167 400 LINE",
"123 460 OFFCURVE",
"105 485 OFFCURVE",
"105 500 CURVE SMOOTH",
"105 503 OFFCURVE",
"108 510 OFFCURVE",
"115 519 CURVE",
"456 519 LINE",
"456 586 LINE",
"113 586 LINE",
"55 493 OFFCURVE",
"49 493 OFFCURVE",
"49 466 CURVE SMOOTH",
"49 449 OFFCURVE",
"61 428 OFFCURVE",
"90 384 CURVE",
"90 195 LINE",
"62 193 OFFCURVE",
"49 174 OFFCURVE",
"49 137 CURVE SMOOTH",
"49 99 OFFCURVE",
"62 53 OFFCURVE",
"90 0 CURVE",
"167 0 LINE",
"167 128 LINE",
"211 123 OFFCURVE",
"219 105 OFFCURVE",
"253 61 CURVE SMOOTH",
"280 27 OFFCURVE",
"305 0 OFFCURVE",
"342 0 CURVE SMOOTH",
"410 0 OFFCURVE",
"455 64 OFFCURVE",
"455 158 CURVE SMOOTH",
"455 213 LINE"
);
},
{
closed = 1;
nodes = (
"455 380 LINE SMOOTH",
"455 419 OFFCURVE",
"430 439 OFFCURVE",
"388 439 CURVE SMOOTH",
"332 439 OFFCURVE",
"286 403 OFFCURVE",
"286 337 CURVE SMOOTH",
"286 277 OFFCURVE",
"322 245 OFFCURVE",
"378 245 CURVE",
"378 207 LINE",
"455 207 LINE"
);
},
{
closed = 1;
nodes = (
"355 313 OFFCURVE",
"342 322 OFFCURVE",
"342 342 CURVE SMOOTH",
"342 362 OFFCURVE",
"355 372 OFFCURVE",
"379 372 CURVE",
"379 313 LINE"
);
}
);
width = 534;
},
{
layerId = "DE962D09-1426-4D02-9608-9FE5B080C42D";
paths = (
{
closed = 1;
nodes = (
"417 268 LINE",
"417 158 LINE SMOOTH",
"417 97 OFFCURVE",
"400 26 OFFCURVE",
"354 26 CURVE SMOOTH",
"321 26 OFFCURVE",
"303 50 OFFCURVE",
"283 102 CURVE SMOOTH",
"256 172 OFFCURVE",
"215 188 OFFCURVE",
"136 188 CURVE",
"136 394 LINE",
"106 436 OFFCURVE",
"91 457 OFFCURVE",
"91 476 CURVE SMOOTH",
"91 504 OFFCURVE",
"122 543 OFFCURVE",
"136 560 CURVE",
"443 560 LINE",
"443 586 LINE",
"130 586 LINE",
"85 521 OFFCURVE",
"68 493 OFFCURVE",
"68 470 CURVE SMOOTH",
"68 454 OFFCURVE",
"79 436 OFFCURVE",
"110 384 CURVE",
"110 188 LINE",
"96 183 OFFCURVE",
"83 165 OFFCURVE",
"83 128 CURVE SMOOTH",
"83 85 OFFCURVE",
"90 45 OFFCURVE",
"110 0 CURVE",
"136 0 LINE",
"136 161 LINE",
"206 161 OFFCURVE",
"233 155 OFFCURVE",
"261 86 CURVE SMOOTH",
"282 33 OFFCURVE",
"302 0 OFFCURVE",
"356 0 CURVE SMOOTH",
"407 0 OFFCURVE",
"443 55 OFFCURVE",
"443 158 CURVE SMOOTH",
"443 268 LINE"
);
},
{
closed = 1;
nodes = (
"443 412 LINE SMOOTH",
"443 431 OFFCURVE",
"436 439 OFFCURVE",
"407 439 CURVE SMOOTH",
"362 439 OFFCURVE",
"334 396 OFFCURVE",
"334 354 CURVE SMOOTH",
"334 297 OFFCURVE",
"379 268 OFFCURVE",
"417 268 CURVE",
"417 226 LINE",
"443 226 LINE"
);
},
{
closed = 1;
nodes = (
"378 295 OFFCURVE",
"360 329 OFFCURVE",
"360 354 CURVE SMOOTH",
"360 377 OFFCURVE",
"369 413 OFFCURVE",
"417 413 CURVE",
"417 295 LINE"
);
}
);
width = 533;
}
);
note = uni1786;
unicode = 1786;
},
{
glyphname = uni1787;
lastChange = "2017-12-14 22:51:15 +0000";
layers = (
{
layerId = "46DC2CF2-3687-4CD7-A306-8CA7072459C9";
paths = (
{
closed = 1;
nodes = (
"204 0 LINE",
"318 103 LINE",
"431 0 LINE",
"537 0 LINE",
"537 451 LINE",
"445 451 LINE",
"445 82 LINE",
"318 198 LINE",
"190 81 LINE",
"190 400 LINE",
"137 460 OFFCURVE",
"116 483 OFFCURVE",
"116 500 CURVE SMOOTH",
"116 503 OFFCURVE",
"120 510 OFFCURVE",
"128 519 CURVE",
"415 519 LINE SMOOTH",
"504 519 OFFCURVE",
"537 549 OFFCURVE",
"537 610 CURVE SMOOTH",
"537 674 LINE",
"445 674 LINE",
"445 610 LINE SMOOTH",
"445 594 OFFCURVE",
"427 586 OFFCURVE",
"405 586 CURVE SMOOTH",
"126 586 LINE",
"56 493 OFFCURVE",
"49 493 OFFCURVE",
"49 466 CURVE SMOOTH",
"49 449 OFFCURVE",
"63 428 OFFCURVE",
"98 384 CURVE",
"98 0 LINE"
);
}
);
width = 635;
},
{
layerId = "51E32C1F-DEF7-419B-8D63-3B39AA64BD60";
paths = (
{
closed = 1;
nodes = (
"261 0 LINE",
"374 83 LINE",
"487 0 LINE",
"639 0 LINE",
"639 424 LINE",
"458 424 LINE",
"458 165 LINE",
"374 223 LINE",
"290 164 LINE",
"290 374 LINE",
"254 391 OFFCURVE",
"187 445 OFFCURVE",
"187 457 CURVE SMOOTH",
"187 460 OFFCURVE",
"190 466 OFFCURVE",
"198 474 CURVE",
"520 474 LINE SMOOTH",
"632 474 OFFCURVE",
"639 519 OFFCURVE",
"639 610 CURVE SMOOTH",
"639 674 LINE",
"458 674 LINE",
"458 610 LINE SMOOTH",
"458 594 OFFCURVE",
"454 586 OFFCURVE",
"438 586 CURVE SMOOTH",
"146 586 LINE",
"94 532 OFFCURVE",
"60 497 OFFCURVE",
"60 470 CURVE SMOOTH",
"60 455 OFFCURVE",
"85 419 OFFCURVE",
"109 384 CURVE",
"109 0 LINE"
);
}
);
width = 729;
},
{
layerId = "6517A2BC-7974-4B53-8E65-A6A29EB8D1E7";
paths = (
{
closed = 1;
nodes = (
"143 0 LINE",
"297 134 LINE",
"450 0 LINE",
"483 0 LINE",
"483 470 LINE",
"457 470 LINE",
"457 29 LINE",
"297 169 LINE",
"136 29 LINE",
"136 400 LINE",
"103 445 OFFCURVE",
"87 458 OFFCURVE",
"87 478 CURVE SMOOTH",
"87 507 OFFCURVE",
"118 543 OFFCURVE",
"134 560 CURVE",
"422 560 LINE SMOOTH",
"463 560 OFFCURVE",
"483 575 OFFCURVE",
"483 610 CURVE SMOOTH",
"483 674 LINE",
"457 674 LINE",
"457 610 LINE SMOOTH",
"457 593 OFFCURVE",
"452 586 OFFCURVE",
"417 586 CURVE SMOOTH",
"132 586 LINE",
"78 521 OFFCURVE",
"60 491 OFFCURVE",
"60 466 CURVE SMOOTH",
"60 451 OFFCURVE",
"80 436 OFFCURVE",
"110 384 CURVE",
"110 0 LINE"
);
}
);
width = 593;
},
{
layerId = "0F8E8D95-EFB6-4635-B30D-2DA8DDB35575";
paths = (
{
closed = 1;
nodes = (
"208 0 LINE",
"302 83 LINE",
"396 0 LINE",
"523 0 LINE",
"523 424 LINE",
"372 424 LINE",
"372 165 LINE",
"302 223 LINE",
"232 164 LINE",
"232 374 LINE",
"164 421 OFFCURVE",
"146 450 OFFCURVE",
"146 457 CURVE SMOOTH",
"146 462 OFFCURVE",
"148 469 OFFCURVE",
"156 474 CURVE",
"423 474 LINE SMOOTH",
"517 474 OFFCURVE",
"523 519 OFFCURVE",
"523 610 CURVE SMOOTH",
"523 674 LINE",
"372 674 LINE",
"372 610 LINE SMOOTH",
"372 594 OFFCURVE",
"368 586 OFFCURVE",
"355 586 CURVE SMOOTH",
"112 586 LINE",
"58 517 OFFCURVE",
"40 495 OFFCURVE",
"40 469 CURVE SMOOTH",
"40 453 OFFCURVE",
"62 416 OFFCURVE",
"81 384 CURVE",
"81 0 LINE"
);
}
);
width = 583;
},
{
layerId = "9C354F0E-63BE-4945-A1C1-0B7B127DD18D";
paths = (
{
closed = 1;
nodes = (
"180 0 LINE",
"274 103 LINE",
"368 0 LINE",
"457 0 LINE",
"457 451 LINE",
"380 451 LINE",
"380 82 LINE",
"274 198 LINE",
"168 81 LINE",
"168 400 LINE",
"124 460 OFFCURVE",
"106 485 OFFCURVE",
"106 500 CURVE SMOOTH",
"106 503 OFFCURVE",
"109 510 OFFCURVE",
"116 519 CURVE",
"347 519 LINE SMOOTH",
"416 519 OFFCURVE",
"457 549 OFFCURVE",
"457 610 CURVE SMOOTH",
"457 674 LINE",
"380 674 LINE",
"380 610 LINE SMOOTH",
"380 594 OFFCURVE",
"365 586 OFFCURVE",
"347 586 CURVE SMOOTH",
"114 586 LINE",
"56 493 OFFCURVE",
"50 493 OFFCURVE",
"50 466 CURVE SMOOTH",
"50 449 OFFCURVE",
"62 428 OFFCURVE",
"91 384 CURVE",
"91 0 LINE"
);
}
);
width = 535;
},
{
layerId = "DE962D09-1426-4D02-9608-9FE5B080C42D";
paths = (
{
closed = 1;
nodes = (
"143 0 LINE",
"274 134 LINE",
"404 0 LINE",
"437 0 LINE",
"437 470 LINE",
"411 470 LINE",
"411 28 LINE",
"274 169 LINE",
"136 28 LINE",
"136 394 LINE",
"106 436 OFFCURVE",
"91 457 OFFCURVE",
"91 476 CURVE SMOOTH",
"91 504 OFFCURVE",
"122 543 OFFCURVE",
"136 560 CURVE",
"374 560 LINE SMOOTH",
"435 560 OFFCURVE",
"437 575 OFFCURVE",
"437 610 CURVE SMOOTH",
"437 674 LINE",
"411 674 LINE",
"411 610 LINE SMOOTH",
"411 593 OFFCURVE",
"406 586 OFFCURVE",
"381 586 CURVE SMOOTH",
"130 586 LINE",
"85 521 OFFCURVE",
"68 493 OFFCURVE",
"68 470 CURVE SMOOTH",
"68 454 OFFCURVE",
"79 436 OFFCURVE",
"110 384 CURVE",
"110 0 LINE"
);
}
);
width = 527;
}
);
note = uni1787;
rightMetricsKey = uni1780;
unicode = 1787;
},
{
glyphname = uni1788;
lastChange = "2017-12-14 22:51:15 +0000";
layers = (
{
layerId = "46DC2CF2-3687-4CD7-A306-8CA7072459C9";
paths = (
{
closed = 1;
nodes = (
"1062 379 LINE",
"1062 158 LINE SMOOTH",
"1062 98 OFFCURVE",
"1024 67 OFFCURVE",
"949 67 CURVE SMOOTH",
"874 67 OFFCURVE",
"836 98 OFFCURVE",
"836 158 CURVE SMOOTH",
"836 379 LINE",
"744 379 LINE",
"744 158 LINE SMOOTH",
"744 98 OFFCURVE",
"706 67 OFFCURVE",
"628 67 CURVE SMOOTH",
"551 67 OFFCURVE",
"513 98 OFFCURVE",
"513 158 CURVE SMOOTH",
"513 428 LINE SMOOTH",
"513 533 OFFCURVE",
"443 586 OFFCURVE",
"305 586 CURVE SMOOTH",
"167 586 OFFCURVE",
"98 533 OFFCURVE",
"98 428 CURVE SMOOTH",
"98 229 LINE",
"190 229 LINE",
"190 428 LINE SMOOTH",
"190 488 OFFCURVE",
"228 519 OFFCURVE",
"305 519 CURVE SMOOTH",
"382 519 OFFCURVE",
"421 488 OFFCURVE",
"421 428 CURVE SMOOTH",
"421 158 LINE SMOOTH",
"421 53 OFFCURVE",
"490 0 OFFCURVE",
"628 0 CURVE SMOOTH",
"702 0 OFFCURVE",
"755 16 OFFCURVE",
"790 48 CURVE",
"825 16 OFFCURVE",
"877 0 OFFCURVE",
"949 0 CURVE SMOOTH",
"1085 0 OFFCURVE",
"1154 53 OFFCURVE",
"1154 158 CURVE SMOOTH",
"1154 379 LINE"
);
},
{
closed = 1;
nodes = (
"98 60 LINE SMOOTH",
"98 20 OFFCURVE",
"128 0 OFFCURVE",
"164 0 CURVE SMOOTH",
"192 0 LINE SMOOTH",
"250 0 OFFCURVE",
"296 44 OFFCURVE",
"296 113 CURVE SMOOTH",
"296 187 OFFCURVE",
"251 219 OFFCURVE",
"190 219 CURVE",
"190 247 LINE SMOOTH",
"98 247 LINE"
);
},
{
closed = 1;
nodes = (
"190 151 LINE",
"220 150 OFFCURVE",
"234 136 OFFCURVE",
"234 112 CURVE SMOOTH",
"234 84 OFFCURVE",
"220 67 OFFCURVE",
"190 67 CURVE"
);
},
{
closed = 1;
nodes = (
"1154 361 LINE",
"1154 410 LINE",
"1057 518 LINE",
"1057 519 LINE",
"1178 519 LINE",
"1178 586 LINE",
"1057 586 LINE",
"1003 515 OFFCURVE",
"993 502 OFFCURVE",
"993 491 CURVE SMOOTH",
"993 478 OFFCURVE",
"999 471 OFFCURVE",
"1062 394 CURVE",
"1062 361 LINE"
);
},
{
closed = 1;
nodes = (
"836 361 LINE",
"836 410 LINE",
"739 518 LINE",
"739 519 LINE",
"860 519 LINE",
"860 586 LINE",
"739 586 LINE",
"685 515 OFFCURVE",
"675 502 OFFCURVE",
"675 491 CURVE SMOOTH",
"675 478 OFFCURVE",
"681 471 OFFCURVE",
"744 394 CURVE",
"744 361 LINE"
);
}
);
width = 1251;
},
{
layerId = "51E32C1F-DEF7-419B-8D63-3B39AA64BD60";
paths = (
{
closed = 1;
nodes = (
"1048 371 LINE",
"1048 158 LINE SMOOTH",
"1048 127 OFFCURVE",
"1025 112 OFFCURVE",
"980 112 CURVE SMOOTH",
"934 112 OFFCURVE",
"913 127 OFFCURVE",
"913 158 CURVE SMOOTH",
"913 371 LINE",
"732 371 LINE",
"732 158 LINE SMOOTH",
"732 127 OFFCURVE",
"708 112 OFFCURVE",
"659 112 CURVE SMOOTH",
"612 112 OFFCURVE",
"588 127 OFFCURVE",
"588 158 CURVE SMOOTH",
"588 428 LINE SMOOTH",
"588 533 OFFCURVE",
"504 586 OFFCURVE",
"336 586 CURVE SMOOTH",
"168 586 OFFCURVE",
"84 533 OFFCURVE",
"84 428 CURVE SMOOTH",
"84 251 LINE",
"265 251 LINE",
"265 428 LINE SMOOTH",
"265 459 OFFCURVE",
"289 474 OFFCURVE",
"336 474 CURVE SMOOTH",
"383 474 OFFCURVE",
"407 459 OFFCURVE",
"407 428 CURVE SMOOTH",
"407 158 LINE SMOOTH",
"407 53 OFFCURVE",
"491 0 OFFCURVE",
"659 0 CURVE SMOOTH",
"732 0 OFFCURVE",
"786 16 OFFCURVE",
"821 48 CURVE",
"856 16 OFFCURVE",
"909 0 OFFCURVE",
"980 0 CURVE SMOOTH",
"1146 0 OFFCURVE",
"1229 53 OFFCURVE",
"1229 158 CURVE SMOOTH",
"1229 371 LINE"
);
},
{
closed = 1;
nodes = (
"84 70 LINE SMOOTH",
"84 19 OFFCURVE",
"106 0 OFFCURVE",
"180 0 CURVE SMOOTH",
"241 0 LINE SMOOTH",
"334 0 OFFCURVE",
"389 49 OFFCURVE",
"389 122 CURVE SMOOTH",
"389 207 OFFCURVE",
"344 240 OFFCURVE",
"265 241 CURVE",
"265 262 LINE SMOOTH",
"84 262 LINE"
);
},
{
closed = 1;
nodes = (
"265 164 LINE",
"280 164 OFFCURVE",
"293 150 OFFCURVE",
"293 123 CURVE SMOOTH",
"293 98 OFFCURVE",
"278 80 OFFCURVE",
"265 80 CURVE"
);
},
{
closed = 1;
nodes = (
"1229 354 LINE",
"1229 410 LINE",
"1167 473 LINE",
"1167 474 LINE",
"1237 474 LINE",
"1237 586 LINE",
"1070 586 LINE",
"1028 532 OFFCURVE",
"1006 504 OFFCURVE",
"1006 491 CURVE SMOOTH",
"1006 482 OFFCURVE",
"1008 479 OFFCURVE",
"1048 426 CURVE",
"1048 354 LINE"
);
},
{
closed = 1;
nodes = (
"913 354 LINE",
"913 410 LINE",
"851 473 LINE",
"851 474 LINE",
"921 474 LINE",
"921 586 LINE",
"754 586 LINE",
"712 532 OFFCURVE",
"690 504 OFFCURVE",
"690 491 CURVE SMOOTH",
"690 482 OFFCURVE",
"692 479 OFFCURVE",
"732 426 CURVE",
"732 354 LINE"
);
}
);
width = 1321;
},
{
layerId = "6517A2BC-7974-4B53-8E65-A6A29EB8D1E7";
paths = (
{
closed = 1;
nodes = (
"1073 386 LINE",
"1073 158 LINE SMOOTH",
"1073 78 OFFCURVE",
"1020 26 OFFCURVE",
"928 26 CURVE SMOOTH",
"824 26 OFFCURVE",
"783 73 OFFCURVE",
"783 112 CURVE SMOOTH",
"783 386 LINE",
"757 386 LINE",
"757 112 LINE SMOOTH",
"757 73 OFFCURVE",
"716 26 OFFCURVE",
"608 26 CURVE SMOOTH",
"509 26 OFFCURVE",
"459 75 OFFCURVE",
"459 158 CURVE SMOOTH",
"459 428 LINE SMOOTH",
"459 533 OFFCURVE",
"401 586 OFFCURVE",
"284 586 CURVE SMOOTH",
"168 586 OFFCURVE",
"110 533 OFFCURVE",
"110 428 CURVE SMOOTH",
"110 178 LINE",
"136 178 LINE",
"136 428 LINE SMOOTH",
"136 509 OFFCURVE",
"185 559 OFFCURVE",
"284 559 CURVE SMOOTH",
"381 559 OFFCURVE",
"433 509 OFFCURVE",
"433 428 CURVE SMOOTH",
"433 158 LINE SMOOTH",
"433 53 OFFCURVE",
"497 0 OFFCURVE",
"608 0 CURVE SMOOTH",
"696 0 OFFCURVE",
"748 31 OFFCURVE",
"770 68 CURVE",
"794 31 OFFCURVE",
"841 0 OFFCURVE",
"928 0 CURVE SMOOTH",
"1035 0 OFFCURVE",
"1099 62 OFFCURVE",
"1099 158 CURVE SMOOTH",
"1099 386 LINE"
);
},
{
closed = 1;
nodes = (
"110 27 LINE SMOOTH",
"110 3 OFFCURVE",
"126 0 OFFCURVE",
"139 0 CURVE SMOOTH",
"142 0 LINE SMOOTH",
"178 0 OFFCURVE",
"221 33 OFFCURVE",
"221 94 CURVE SMOOTH",
"221 149 OFFCURVE",
"178 168 OFFCURVE",
"136 168 CURVE",
"136 208 LINE",
"110 208 LINE SMOOTH"
);
},
{
closed = 1;
nodes = (
"136 141 LINE",
"180 141 OFFCURVE",
"195 121 OFFCURVE",
"195 91 CURVE SMOOTH",
"195 68 OFFCURVE",
"183 26 OFFCURVE",
"136 26 CURVE"
);
},
{
closed = 1;
nodes = (
"1099 376 LINE",
"1099 398 LINE",
"1017 536 LINE",
"1025 560 LINE",
"1118 560 LINE",
"1118 586 LINE",
"1027 586 LINE",
"1012 569 OFFCURVE",
"1002 547 OFFCURVE",
"1002 530 CURVE SMOOTH",
"1002 514 OFFCURVE",
"1016 486 OFFCURVE",
"1073 394 CURVE",
"1073 376 LINE"
);
},
{
closed = 1;
nodes = (
"783 376 LINE",
"783 398 LINE",
"701 536 LINE",
"709 560 LINE",
"802 560 LINE",
"802 586 LINE",
"711 586 LINE",
"696 569 OFFCURVE",
"686 547 OFFCURVE",
"686 530 CURVE SMOOTH",
"686 514 OFFCURVE",
"700 486 OFFCURVE",
"757 394 CURVE",
"757 376 LINE"
);
}
);
width = 1199;
},
{
layerId = "0F8E8D95-EFB6-4635-B30D-2DA8DDB35575";
paths = (
{
closed = 1;
nodes = (
"863 371 LINE",
"863 158 LINE SMOOTH",
"863 127 OFFCURVE",
"844 112 OFFCURVE",
"807 112 CURVE SMOOTH",
"768 112 OFFCURVE",
"751 127 OFFCURVE",
"751 158 CURVE SMOOTH",
"751 371 LINE",
"600 371 LINE",
"600 158 LINE SMOOTH",
"600 127 OFFCURVE",
"580 112 OFFCURVE",
"539 112 CURVE SMOOTH",
"500 112 OFFCURVE",
"480 127 OFFCURVE",
"480 158 CURVE SMOOTH",
"480 428 LINE SMOOTH",
"480 533 OFFCURVE",
"410 586 OFFCURVE",
"270 586 CURVE SMOOTH",
"130 586 OFFCURVE",
"60 533 OFFCURVE",
"60 428 CURVE SMOOTH",
"60 251 LINE",
"211 251 LINE",
"211 428 LINE SMOOTH",
"211 459 OFFCURVE",
"231 474 OFFCURVE",
"270 474 CURVE SMOOTH",
"309 474 OFFCURVE",
"329 459 OFFCURVE",
"329 428 CURVE SMOOTH",
"329 158 LINE SMOOTH",
"329 53 OFFCURVE",
"399 0 OFFCURVE",
"539 0 CURVE SMOOTH",
"600 0 OFFCURVE",
"645 16 OFFCURVE",
"674 48 CURVE",
"703 16 OFFCURVE",
"748 0 OFFCURVE",
"807 0 CURVE SMOOTH",
"945 0 OFFCURVE",
"1014 53 OFFCURVE",
"1014 158 CURVE SMOOTH",
"1014 371 LINE"
);
},
{
closed = 1;
nodes = (
"60 70 LINE SMOOTH",
"60 19 OFFCURVE",
"78 0 OFFCURVE",
"142 0 CURVE SMOOTH",
"189 0 LINE SMOOTH",
"267 0 OFFCURVE",
"316 52 OFFCURVE",
"316 125 CURVE SMOOTH",
"316 210 OFFCURVE",
"277 241 OFFCURVE",
"211 241 CURVE",
"211 259 LINE SMOOTH",
"60 259 LINE"
);
},
{
closed = 1;
nodes = (
"211 164 LINE",
"223 164 OFFCURVE",
"235 152 OFFCURVE",
"235 127 CURVE SMOOTH",
"235 100 OFFCURVE",
"222 80 OFFCURVE",
"211 80 CURVE"
);
},
{
closed = 1;
nodes = (
"1014 354 LINE",
"1014 410 LINE",
"958 473 LINE",
"958 474 LINE",
"1022 474 LINE",
"1022 586 LINE",
"871 586 LINE",
"821 511 OFFCURVE",
"803 484 OFFCURVE",
"803 473 CURVE SMOOTH",
"803 462 OFFCURVE",
"835 424 OFFCURVE",
"863 391 CURVE",
"863 354 LINE"
);
},
{
closed = 1;
nodes = (
"751 354 LINE",
"751 410 LINE",
"699 473 LINE",
"699 474 LINE",
"758 474 LINE",
"758 586 LINE",
"618 586 LINE",
"583 532 OFFCURVE",
"565 505 OFFCURVE",
"565 491 CURVE SMOOTH",
"565 482 OFFCURVE",
"567 479 OFFCURVE",
"600 426 CURVE",
"600 354 LINE"
);
}
);
width = 1082;
},
{
layerId = "9C354F0E-63BE-4945-A1C1-0B7B127DD18D";
paths = (
{
closed = 1;
nodes = (
"882 375 LINE",
"882 158 LINE SMOOTH",
"882 98 OFFCURVE",
"851 67 OFFCURVE",
"788 67 CURVE SMOOTH",
"726 67 OFFCURVE",
"694 98 OFFCURVE",
"694 158 CURVE SMOOTH",
"694 375 LINE",
"617 375 LINE",
"617 158 LINE SMOOTH",
"617 98 OFFCURVE",
"586 67 OFFCURVE",
"521 67 CURVE SMOOTH",
"457 67 OFFCURVE",
"425 98 OFFCURVE",
"425 158 CURVE SMOOTH",
"425 428 LINE SMOOTH",
"425 533 OFFCURVE",
"367 586 OFFCURVE",
"252 586 CURVE SMOOTH",
"137 586 OFFCURVE",
"78 533 OFFCURVE",
"78 428 CURVE SMOOTH",
"78 229 LINE",
"155 229 LINE",
"155 428 LINE SMOOTH",
"155 488 OFFCURVE",
"187 519 OFFCURVE",
"252 519 CURVE SMOOTH",
"316 519 OFFCURVE",
"348 488 OFFCURVE",
"348 428 CURVE SMOOTH",
"348 158 LINE SMOOTH",
"348 53 OFFCURVE",
"406 0 OFFCURVE",
"521 0 CURVE SMOOTH",
"582 0 OFFCURVE",
"627 16 OFFCURVE",
"656 48 CURVE",
"685 16 OFFCURVE",
"728 0 OFFCURVE",
"788 0 CURVE SMOOTH",
"902 0 OFFCURVE",
"959 53 OFFCURVE",
"959 158 CURVE SMOOTH",
"959 375 LINE"
);
},
{
closed = 1;
nodes = (
"78 60 LINE SMOOTH",
"78 20 OFFCURVE",
"104 0 OFFCURVE",
"144 0 CURVE SMOOTH",
"160 0 LINE SMOOTH",
"213 0 OFFCURVE",
"256 44 OFFCURVE",
"256 113 CURVE SMOOTH",
"256 187 OFFCURVE",
"206 219 OFFCURVE",
"155 219 CURVE",
"155 260 LINE SMOOTH",
"78 260 LINE"
);
},
{
closed = 1;
nodes = (
"155 151 LINE",
"180 150 OFFCURVE",
"193 138 OFFCURVE",
"193 111 CURVE SMOOTH",
"193 83 OFFCURVE",
"180 67 OFFCURVE",
"155 67 CURVE"
);
},
{
closed = 1;
nodes = (
"959 356 LINE",
"959 410 LINE",
"877 518 LINE",
"877 519 LINE",
"978 519 LINE",
"978 586 LINE",
"877 586 LINE",
"832 515 OFFCURVE",
"824 502 OFFCURVE",
"824 491 CURVE SMOOTH",
"824 478 OFFCURVE",
"829 471 OFFCURVE",
"882 394 CURVE",
"882 356 LINE"
);
},
{
closed = 1;
nodes = (
"694 356 LINE",
"694 410 LINE",
"612 518 LINE",
"612 519 LINE",
"713 519 LINE",
"713 586 LINE",
"612 586 LINE",
"567 515 OFFCURVE",
"559 502 OFFCURVE",
"559 491 CURVE SMOOTH",
"559 478 OFFCURVE",
"564 471 OFFCURVE",
"617 394 CURVE",
"617 356 LINE"
);
}
);
width = 1048;
},
{
layerId = "DE962D09-1426-4D02-9608-9FE5B080C42D";
paths = (
{
closed = 1;
nodes = (
"905 378 LINE",
"905 158 LINE SMOOTH",
"905 53 OFFCURVE",
"842 26 OFFCURVE",
"779 26 CURVE SMOOTH",
"722 26 OFFCURVE",
"663 73 OFFCURVE",
"663 112 CURVE SMOOTH",
"663 378 LINE",
"637 378 LINE",
"637 112 LINE SMOOTH",
"637 73 OFFCURVE",
"583 26 OFFCURVE",
"513 26 CURVE SMOOTH",
"429 26 OFFCURVE",
"389 58 OFFCURVE",
"389 158 CURVE SMOOTH",
"389 428 LINE SMOOTH",
"389 533 OFFCURVE",
"325 586 OFFCURVE",
"239 586 CURVE SMOOTH",
"153 586 OFFCURVE",
"90 533 OFFCURVE",
"90 428 CURVE SMOOTH",
"90 178 LINE",
"116 178 LINE",
"116 428 LINE SMOOTH",
"116 509 OFFCURVE",
"159 560 OFFCURVE",
"239 560 CURVE SMOOTH",
"319 560 OFFCURVE",
"363 509 OFFCURVE",
"363 428 CURVE SMOOTH",
"363 158 LINE SMOOTH",
"363 39 OFFCURVE",
"418 0 OFFCURVE",
"513 0 CURVE SMOOTH",
"582 0 OFFCURVE",
"634 38 OFFCURVE",
"650 68 CURVE",
"670 38 OFFCURVE",
"716 0 OFFCURVE",
"779 0 CURVE SMOOTH",
"850 0 OFFCURVE",
"931 34 OFFCURVE",
"931 158 CURVE SMOOTH",
"931 378 LINE"
);
},
{
closed = 1;
nodes = (
"90 27 LINE SMOOTH",
"90 3 OFFCURVE",
"106 0 OFFCURVE",
"117 0 CURVE SMOOTH",
"119 0 LINE SMOOTH",
"152 0 OFFCURVE",
"192 32 OFFCURVE",
"192 89 CURVE SMOOTH",
"192 146 OFFCURVE",
"146 168 OFFCURVE",
"116 168 CURVE",
"116 208 LINE",
"90 208 LINE SMOOTH"
);
},
{
closed = 1;
nodes = (
"116 141 LINE",
"148 141 OFFCURVE",
"166 118 OFFCURVE",
"166 89 CURVE SMOOTH",
"166 61 OFFCURVE",
"152 27 OFFCURVE",
"116 26 CURVE"
);
},
{
closed = 1;
nodes = (
"931 356 LINE",
"931 398 LINE",
"863 536 LINE",
"870 560 LINE",
"947 560 LINE",
"947 586 LINE",
"871 586 LINE",
"858 569 OFFCURVE",
"850 547 OFFCURVE",
"850 530 CURVE SMOOTH",
"850 514 OFFCURVE",
"860 484 OFFCURVE",
"905 392 CURVE",
"905 356 LINE"
);
},
{
closed = 1;
nodes = (
"663 355 LINE",
"663 398 LINE",
"590 536 LINE",
"597 560 LINE",
"674 560 LINE",
"674 586 LINE",
"598 586 LINE",
"585 569 OFFCURVE",
"577 547 OFFCURVE",
"577 530 CURVE SMOOTH",
"577 514 OFFCURVE",
"590 484 OFFCURVE",
"637 392 CURVE",
"637 355 LINE"
);
}
);
width = 1037;
}
);
note = uni1788;
unicode = 1788;
},
{
glyphname = uni1789;
lastChange = "2017-12-14 22:51:23 +0000";
layers = (
{
layerId = "46DC2CF2-3687-4CD7-A306-8CA7072459C9";
paths = (
{
closed = 1;
nodes = (
"790 -244 OFFCURVE",
"854 -178 OFFCURVE",
"854 -70 CURVE SMOOTH",
"854 -49 LINE",
"694 -49 LINE",
"694 -107 LINE",
"768 -107 LINE",
"765 -158 OFFCURVE",
"744 -186 OFFCURVE",
"683 -186 CURVE SMOOTH",
"637 -186 OFFCURVE",
"591 -168 OFFCURVE",
"537 -136 CURVE SMOOTH",
"483 -104 OFFCURVE",
"398 -88 OFFCURVE",
"293 -88 CURVE SMOOTH",
"98 -88 LINE",
"98 -146 LINE",
"293 -146 LINE SMOOTH",
"371 -146 OFFCURVE",
"450 -151 OFFCURVE",
"502 -183 CURVE SMOOTH",
"555 -216 OFFCURVE",
"606 -244 OFFCURVE",
"683 -244 CURVE SMOOTH"
);
},
{
closed = 1;
nodes = (
"529 476 LINE",
"562 504 OFFCURVE",
"588 524 OFFCURVE",
"650 524 CURVE SMOOTH",
"724 524 OFFCURVE",
"762 488 OFFCURVE",
"762 428 CURVE SMOOTH",
"762 0 LINE",
"854 0 LINE",
"854 428 LINE SMOOTH",
"854 518 OFFCURVE",
"814 591 OFFCURVE",
"659 591 CURVE SMOOTH",
"584 591 OFFCURVE",
"536 562 OFFCURVE",
"503 533 CURVE"
);
},
{
closed = 1;
nodes = (
"190 234 LINE",
"190 451 LINE SMOOTH",
"190 492 OFFCURVE",
"201 513 OFFCURVE",
"225 513 CURVE SMOOTH",
"262 513 OFFCURVE",
"286 452 OFFCURVE",
"317 452 CURVE SMOOTH",
"350 452 OFFCURVE",
"369 513 OFFCURVE",
"410 513 CURVE SMOOTH",
"434 513 OFFCURVE",
"445 492 OFFCURVE",
"445 451 CURVE SMOOTH",
"445 0 LINE",
"537 0 LINE",
"537 451 LINE SMOOTH",
"537 524 OFFCURVE",
"511 586 OFFCURVE",
"437 586 CURVE SMOOTH",
"388 586 OFFCURVE",
"356 565 OFFCURVE",
"319 525 CURVE",
"317 525 LINE",
"281 566 OFFCURVE",
"248 586 OFFCURVE",
"214 586 CURVE SMOOTH",
"128 586 OFFCURVE",
"98 524 OFFCURVE",
"98 451 CURVE SMOOTH",
"98 234 LINE"
);
},
{
closed = 1;
nodes = (
"98 60 LINE SMOOTH",
"98 20 OFFCURVE",
"128 0 OFFCURVE",
"164 0 CURVE SMOOTH",
"192 0 LINE SMOOTH",
"250 0 OFFCURVE",
"296 44 OFFCURVE",
"296 113 CURVE SMOOTH",
"296 187 OFFCURVE",
"251 219 OFFCURVE",
"190 219 CURVE",
"190 247 LINE SMOOTH",
"98 247 LINE"
);
},
{
closed = 1;
nodes = (
"190 151 LINE",
"220 150 OFFCURVE",
"234 136 OFFCURVE",
"234 112 CURVE SMOOTH",
"234 84 OFFCURVE",
"220 67 OFFCURVE",
"190 67 CURVE"
);
}
);
width = 952;
},
{
layerId = "51E32C1F-DEF7-419B-8D63-3B39AA64BD60";
paths = (
{
closed = 1;
nodes = (
"845 -244 OFFCURVE",
"940 -181 OFFCURVE",
"940 -55 CURVE SMOOTH",
"940 -28 LINE",
"731 -28 LINE",
"731 -113 LINE",
"759 -113 LINE",
"757 -125 OFFCURVE",
"745 -141 OFFCURVE",
"719 -141 CURVE SMOOTH",
"677 -141 OFFCURVE",
"637 -113 OFFCURVE",
"590 -90 CURVE SMOOTH",
"526 -58 OFFCURVE",
"425 -43 OFFCURVE",
"314 -43 CURVE SMOOTH",
"94 -43 LINE",
"94 -146 LINE",
"314 -146 LINE SMOOTH",
"399 -146 OFFCURVE",
"491 -154 OFFCURVE",
"536 -178 CURVE SMOOTH",
"601 -213 OFFCURVE",
"641 -244 OFFCURVE",
"729 -244 CURVE SMOOTH"
);
},
{
closed = 1;
nodes = (
"618 445 LINE",
"634 460 OFFCURVE",
"651 477 OFFCURVE",
"692 477 CURVE SMOOTH",
"736 477 OFFCURVE",
"760 459 OFFCURVE",
"760 428 CURVE SMOOTH",
"760 0 LINE",
"941 0 LINE",
"941 428 LINE SMOOTH",
"941 541 OFFCURVE",
"870 589 OFFCURVE",
"742 589 CURVE SMOOTH",
"666 589 OFFCURVE",
"632 569 OFFCURVE",
"593 533 CURVE"
);
},
{
closed = 1;
nodes = (
"271 251 LINE",
"271 451 LINE SMOOTH",
"271 462 OFFCURVE",
"277 468 OFFCURVE",
"284 468 CURVE SMOOTH",
"302 468 OFFCURVE",
"325 407 OFFCURVE",
"354 407 CURVE SMOOTH",
"385 407 OFFCURVE",
"404 468 OFFCURVE",
"425 468 CURVE SMOOTH",
"432 468 OFFCURVE",
"439 462 OFFCURVE",
"439 451 CURVE SMOOTH",
"439 0 LINE",
"620 0 LINE",
"620 451 LINE SMOOTH",
"620 520 OFFCURVE",
"585 586 OFFCURVE",
"482 586 CURVE SMOOTH",
"434 586 OFFCURVE",
"394 565 OFFCURVE",
"357 525 CURVE",
"354 525 LINE",
"318 566 OFFCURVE",
"276 586 OFFCURVE",
"229 586 CURVE SMOOTH",
"127 586 OFFCURVE",
"90 521 OFFCURVE",
"90 451 CURVE SMOOTH",
"90 251 LINE"
);
},
{
closed = 1;
nodes = (
"90 70 LINE SMOOTH",
"90 19 OFFCURVE",
"112 0 OFFCURVE",
"186 0 CURVE SMOOTH",
"247 0 LINE SMOOTH",
"340 0 OFFCURVE",
"395 49 OFFCURVE",
"395 122 CURVE SMOOTH",
"395 207 OFFCURVE",
"350 240 OFFCURVE",
"271 241 CURVE",
"271 262 LINE SMOOTH",
"90 262 LINE"
);
},
{
closed = 1;
nodes = (
"271 164 LINE",
"286 164 OFFCURVE",
"299 150 OFFCURVE",
"299 123 CURVE SMOOTH",
"299 98 OFFCURVE",
"284 80 OFFCURVE",
"271 80 CURVE"
);
}
);
width = 1031;
},
{
layerId = "6517A2BC-7974-4B53-8E65-A6A29EB8D1E7";
paths = (
{
closed = 1;
nodes = (
"734 -244 OFFCURVE",
"807 -181 OFFCURVE",
"807 -69 CURVE SMOOTH",
"807 -49 LINE",
"680 -49 LINE",
"680 -75 LINE",
"780 -75 LINE",
"780 -159 OFFCURVE",
"724 -218 OFFCURVE",
"646 -218 CURVE SMOOTH",
"594 -218 OFFCURVE",
"558 -197 OFFCURVE",
"513 -171 CURVE SMOOTH",
"447 -132 OFFCURVE",
"399 -120 OFFCURVE",
"316 -120 CURVE SMOOTH",
"114 -120 LINE",
"114 -146 LINE",
"292 -146 LINE SMOOTH",
"365 -146 OFFCURVE",
"424 -146 OFFCURVE",
"486 -185 CURVE SMOOTH",
"540 -219 OFFCURVE",
"589 -244 OFFCURVE",
"647 -244 CURVE SMOOTH"
);
},
{
closed = 1;
nodes = (
"480 493 LINE",
"517 536 OFFCURVE",
"562 564 OFFCURVE",
"634 564 CURVE SMOOTH",
"737 564 OFFCURVE",
"781 533 OFFCURVE",
"781 449 CURVE SMOOTH",
"781 0 LINE",
"807 0 LINE",
"807 449 LINE SMOOTH",
"807 541 OFFCURVE",
"756 590 OFFCURVE",
"636 590 CURVE SMOOTH",
"559 590 OFFCURVE",
"502 554 OFFCURVE",
"466 513 CURVE"
);
},
{
closed = 1;
nodes = (
"136 187 LINE",
"136 458 LINE SMOOTH",
"136 526 OFFCURVE",
"154 560 OFFCURVE",
"201 560 CURVE SMOOTH",
"248 560 OFFCURVE",
"271 499 OFFCURVE",
"297 499 CURVE SMOOTH",
"327 499 OFFCURVE",
"340 559 OFFCURVE",
"402 559 CURVE SMOOTH",
"440 559 OFFCURVE",
"458 524 OFFCURVE",
"458 451 CURVE SMOOTH",
"458 0 LINE",
"484 0 LINE",
"484 451 LINE SMOOTH",
"484 540 OFFCURVE",
"460 585 OFFCURVE",
"403 585 CURVE SMOOTH",
"361 585 OFFCURVE",
"334 565 OFFCURVE",
"298 525 CURVE",
"296 525 LINE",
"265 564 OFFCURVE",
"238 586 OFFCURVE",
"201 586 CURVE SMOOTH",
"140 586 OFFCURVE",
"110 540 OFFCURVE",
"110 461 CURVE SMOOTH",
"110 187 LINE"
);
},
{
closed = 1;
nodes = (
"110 27 LINE SMOOTH",
"110 3 OFFCURVE",
"126 0 OFFCURVE",
"139 0 CURVE SMOOTH",
"142 0 LINE SMOOTH",
"178 0 OFFCURVE",
"221 33 OFFCURVE",
"221 94 CURVE SMOOTH",
"221 149 OFFCURVE",
"178 168 OFFCURVE",
"136 168 CURVE",
"136 208 LINE",
"110 208 LINE SMOOTH"
);
},
{
closed = 1;
nodes = (
"136 141 LINE",
"180 141 OFFCURVE",
"195 121 OFFCURVE",
"195 91 CURVE SMOOTH",
"195 68 OFFCURVE",
"183 26 OFFCURVE",
"136 26 CURVE"
);
}
);
width = 917;
},
{
layerId = "0F8E8D95-EFB6-4635-B30D-2DA8DDB35575";
paths = (
{
closed = 1;
nodes = (
"682 -244 OFFCURVE",
"766 -181 OFFCURVE",
"766 -55 CURVE SMOOTH",
"766 -28 LINE",
"589 -28 LINE",
"589 -113 LINE",
"615 -113 LINE",
"614 -125 OFFCURVE",
"599 -141 OFFCURVE",
"575 -141 CURVE SMOOTH",
"542 -141 OFFCURVE",
"505 -111 OFFCURVE",
"465 -88 CURVE SMOOTH",
"412 -57 OFFCURVE",
"337 -43 OFFCURVE",
"244 -43 CURVE SMOOTH",
"61 -43 LINE",
"61 -146 LINE",
"244 -146 LINE SMOOTH",
"315 -146 OFFCURVE",
"384 -154 OFFCURVE",
"420 -176 CURVE SMOOTH",
"476 -210 OFFCURVE",
"512 -244 OFFCURVE",
"585 -244 CURVE SMOOTH"
);
},
{
closed = 1;
nodes = (
"497 446 LINE",
"512 460 OFFCURVE",
"531 478 OFFCURVE",
"560 478 CURVE SMOOTH",
"599 478 OFFCURVE",
"615 459 OFFCURVE",
"615 428 CURVE SMOOTH",
"615 0 LINE",
"766 0 LINE",
"766 428 LINE SMOOTH",
"766 536 OFFCURVE",
"719 590 OFFCURVE",
"607 590 CURVE SMOOTH",
"542 590 OFFCURVE",
"496 558 OFFCURVE",
"465 524 CURVE"
);
},
{
closed = 1;
nodes = (
"211 251 LINE",
"211 451 LINE SMOOTH",
"211 462 OFFCURVE",
"215 468 OFFCURVE",
"222 468 CURVE SMOOTH",
"238 468 OFFCURVE",
"255 407 OFFCURVE",
"280 407 CURVE SMOOTH",
"306 407 OFFCURVE",
"322 468 OFFCURVE",
"340 468 CURVE SMOOTH",
"346 468 OFFCURVE",
"351 462 OFFCURVE",
"351 451 CURVE SMOOTH",
"351 0 LINE",
"502 0 LINE",
"502 451 LINE SMOOTH",
"502 520 OFFCURVE",
"466 586 OFFCURVE",
"387 586 CURVE SMOOTH",
"347 586 OFFCURVE",
"313 565 OFFCURVE",
"283 525 CURVE",
"280 525 LINE",
"250 566 OFFCURVE",
"215 586 OFFCURVE",
"176 586 CURVE SMOOTH",
"90 586 OFFCURVE",
"60 521 OFFCURVE",
"60 451 CURVE SMOOTH",
"60 251 LINE"
);
},
{
closed = 1;
nodes = (
"60 70 LINE SMOOTH",
"60 19 OFFCURVE",
"78 0 OFFCURVE",
"142 0 CURVE SMOOTH",
"189 0 LINE SMOOTH",
"267 0 OFFCURVE",
"316 52 OFFCURVE",
"316 125 CURVE SMOOTH",
"316 210 OFFCURVE",
"277 241 OFFCURVE",
"211 241 CURVE",
"211 259 LINE SMOOTH",
"60 259 LINE"
);
},
{
closed = 1;
nodes = (
"211 164 LINE",
"223 164 OFFCURVE",
"235 152 OFFCURVE",
"235 127 CURVE SMOOTH",
"235 100 OFFCURVE",
"222 80 OFFCURVE",
"211 80 CURVE"
);
}
);
width = 826;
},
{
layerId = "9C354F0E-63BE-4945-A1C1-0B7B127DD18D";
paths = (
{
closed = 1;
nodes = (
"646 -244 OFFCURVE",
"709 -178 OFFCURVE",
"709 -70 CURVE SMOOTH",
"709 -49 LINE",
"576 -49 LINE",
"576 -107 LINE",
"633 -107 LINE",
"633 -158 OFFCURVE",
"607 -186 OFFCURVE",
"557 -186 CURVE SMOOTH",
"518 -186 OFFCURVE",
"484 -162 OFFCURVE",
"439 -136 CURVE SMOOTH",
"394 -110 OFFCURVE",
"329 -88 OFFCURVE",
"242 -88 CURVE SMOOTH",
"79 -88 LINE",
"79 -146 LINE",
"242 -146 LINE SMOOTH",
"307 -146 OFFCURVE",
"366 -156 OFFCURVE",
"410 -183 CURVE SMOOTH",
"458 -212 OFFCURVE",
"492 -244 OFFCURVE",
"557 -244 CURVE SMOOTH"
);
},
{
closed = 1;
nodes = (
"433 466 LINE",
"460 503 OFFCURVE",
"485 523 OFFCURVE",
"531 523 CURVE SMOOTH",
"598 523 OFFCURVE",
"629 484 OFFCURVE",
"629 428 CURVE SMOOTH",
"629 0 LINE",
"706 0 LINE",
"706 428 LINE SMOOTH",
"706 514 OFFCURVE",
"668 590 OFFCURVE",
"547 590 CURVE SMOOTH",
"485 590 OFFCURVE",
"446 566 OFFCURVE",
"419 531 CURVE"
);
},
{
closed = 1;
nodes = (
"155 242 LINE",
"155 451 LINE SMOOTH",
"155 492 OFFCURVE",
"165 513 OFFCURVE",
"185 513 CURVE SMOOTH",
"218 513 OFFCURVE",
"234 452 OFFCURVE",
"262 452 CURVE SMOOTH",
"289 452 OFFCURVE",
"305 513 OFFCURVE",
"339 513 CURVE SMOOTH",
"359 513 OFFCURVE",
"368 492 OFFCURVE",
"368 451 CURVE SMOOTH",
"368 0 LINE",
"445 0 LINE",
"445 451 LINE SMOOTH",
"445 524 OFFCURVE",
"424 586 OFFCURVE",
"356 586 CURVE SMOOTH",
"313 586 OFFCURVE",
"294 565 OFFCURVE",
"265 525 CURVE",
"262 525 LINE",
"232 566 OFFCURVE",
"204 586 OFFCURVE",
"170 586 CURVE SMOOTH",
"102 586 OFFCURVE",
"78 524 OFFCURVE",
"78 451 CURVE SMOOTH",
"78 242 LINE"
);
},
{
closed = 1;
nodes = (
"78 60 LINE SMOOTH",
"78 20 OFFCURVE",
"104 0 OFFCURVE",
"144 0 CURVE SMOOTH",
"160 0 LINE SMOOTH",
"213 0 OFFCURVE",
"256 44 OFFCURVE",
"256 113 CURVE SMOOTH",
"256 187 OFFCURVE",
"206 219 OFFCURVE",
"155 219 CURVE",
"155 260 LINE SMOOTH",
"78 260 LINE"
);
},
{
closed = 1;
nodes = (
"155 151 LINE",
"180 150 OFFCURVE",
"193 138 OFFCURVE",
"193 111 CURVE SMOOTH",
"193 83 OFFCURVE",
"180 67 OFFCURVE",
"155 67 CURVE"
);
}
);
width = 787;
},
{
layerId = "DE962D09-1426-4D02-9608-9FE5B080C42D";
paths = (
{
closed = 1;
nodes = (
"618 -244 OFFCURVE",
"671 -181 OFFCURVE",
"671 -69 CURVE SMOOTH",
"671 -49 LINE",
"564 -49 LINE",
"564 -75 LINE",
"644 -75 LINE",
"644 -159 OFFCURVE",
"608 -218 OFFCURVE",
"530 -218 CURVE SMOOTH",
"476 -218 OFFCURVE",
"452 -197 OFFCURVE",
"393 -163 CURVE SMOOTH",
"328 -126 OFFCURVE",
"259 -120 OFFCURVE",
"148 -120 CURVE SMOOTH",
"97 -120 LINE",
"97 -146 LINE",
"156 -146 LINE SMOOTH",
"229 -146 OFFCURVE",
"325 -151 OFFCURVE",
"380 -185 CURVE SMOOTH",
"434 -218 OFFCURVE",
"477 -244 OFFCURVE",
"531 -244 CURVE SMOOTH"
);
},
{
closed = 1;
nodes = (
"390 506 LINE",
"433 544 OFFCURVE",
"462 564 OFFCURVE",
"523 564 CURVE SMOOTH",
"590 564 OFFCURVE",
"645 528 OFFCURVE",
"645 449 CURVE SMOOTH",
"645 0 LINE",
"671 0 LINE",
"671 449 LINE SMOOTH",
"671 544 OFFCURVE",
"602 590 OFFCURVE",
"523 590 CURVE SMOOTH",
"462 590 OFFCURVE",
"423 565 OFFCURVE",
"385 530 CURVE"
);
},
{
closed = 1;
nodes = (
"116 184 LINE",
"116 461 LINE SMOOTH",
"116 538 OFFCURVE",
"135 560 OFFCURVE",
"163 560 CURVE SMOOTH",
"201 560 OFFCURVE",
"216 497 OFFCURVE",
"245 497 CURVE SMOOTH",
"274 497 OFFCURVE",
"286 560 OFFCURVE",
"331 560 CURVE SMOOTH",
"360 560 OFFCURVE",
"375 534 OFFCURVE",
"375 461 CURVE SMOOTH",
"375 0 LINE",
"401 0 LINE",
"401 466 LINE SMOOTH",
"401 546 OFFCURVE",
"380 586 OFFCURVE",
"333 586 CURVE SMOOTH",
"301 586 OFFCURVE",
"278 564 OFFCURVE",
"248 525 CURVE",
"245 525 LINE",
"215 566 OFFCURVE",
"193 586 OFFCURVE",
"162 586 CURVE SMOOTH",
"120 586 OFFCURVE",
"90 550 OFFCURVE",
"90 466 CURVE SMOOTH",
"90 184 LINE"
);
},
{
closed = 1;
nodes = (
"90 27 LINE SMOOTH",
"90 3 OFFCURVE",
"106 0 OFFCURVE",
"117 0 CURVE SMOOTH",
"119 0 LINE SMOOTH",
"152 0 OFFCURVE",
"192 32 OFFCURVE",
"192 89 CURVE SMOOTH",
"192 146 OFFCURVE",
"146 168 OFFCURVE",
"116 168 CURVE",
"116 208 LINE",
"90 208 LINE SMOOTH"
);
},
{
closed = 1;
nodes = (
"116 141 LINE",
"148 141 OFFCURVE",
"166 118 OFFCURVE",
"166 89 CURVE SMOOTH",
"166 61 OFFCURVE",
"152 27 OFFCURVE",
"116 26 CURVE"
);
}
);
width = 761;
}
);
leftMetricsKey = uni1789.a;
note = uni1789;
rightMetricsKey = uni1789.a;
unicode = 1789;
},
{
glyphname = uni1789.a;
lastChange = "2017-12-14 22:51:23 +0000";
layers = (
{
layerId = "46DC2CF2-3687-4CD7-A306-8CA7072459C9";
paths = (
{
closed = 1;
nodes = (
"529 476 LINE",
"562 504 OFFCURVE",
"588 524 OFFCURVE",
"650 524 CURVE SMOOTH",
"724 524 OFFCURVE",
"762 488 OFFCURVE",
"762 428 CURVE SMOOTH",
"762 0 LINE",
"854 0 LINE",
"854 428 LINE SMOOTH",
"854 518 OFFCURVE",
"814 591 OFFCURVE",
"659 591 CURVE SMOOTH",
"584 591 OFFCURVE",
"536 562 OFFCURVE",
"503 533 CURVE"
);
},
{
closed = 1;
nodes = (
"190 234 LINE",
"190 451 LINE SMOOTH",
"190 492 OFFCURVE",
"201 513 OFFCURVE",
"225 513 CURVE SMOOTH",
"262 513 OFFCURVE",
"286 452 OFFCURVE",
"317 452 CURVE SMOOTH",
"350 452 OFFCURVE",
"369 513 OFFCURVE",
"410 513 CURVE SMOOTH",
"434 513 OFFCURVE",
"445 492 OFFCURVE",
"445 451 CURVE SMOOTH",
"445 0 LINE",
"537 0 LINE",
"537 451 LINE SMOOTH",
"537 524 OFFCURVE",
"511 586 OFFCURVE",
"437 586 CURVE SMOOTH",
"388 586 OFFCURVE",
"356 565 OFFCURVE",
"319 525 CURVE",
"317 525 LINE",
"281 566 OFFCURVE",
"248 586 OFFCURVE",
"214 586 CURVE SMOOTH",
"128 586 OFFCURVE",
"98 524 OFFCURVE",
"98 451 CURVE SMOOTH",
"98 234 LINE"
);
},
{
closed = 1;
nodes = (
"98 60 LINE SMOOTH",
"98 20 OFFCURVE",
"128 0 OFFCURVE",
"164 0 CURVE SMOOTH",
"192 0 LINE SMOOTH",
"250 0 OFFCURVE",
"296 44 OFFCURVE",
"296 113 CURVE SMOOTH",
"296 187 OFFCURVE",
"251 219 OFFCURVE",
"190 219 CURVE",
"190 247 LINE SMOOTH",
"98 247 LINE"
);
},
{
closed = 1;
nodes = (
"190 151 LINE",
"220 150 OFFCURVE",
"234 136 OFFCURVE",
"234 112 CURVE SMOOTH",
"234 84 OFFCURVE",
"220 67 OFFCURVE",
"190 67 CURVE"
);
}
);
width = 952;
},
{
layerId = "51E32C1F-DEF7-419B-8D63-3B39AA64BD60";
paths = (
{
closed = 1;
nodes = (
"618 445 LINE",
"634 460 OFFCURVE",
"651 477 OFFCURVE",
"692 477 CURVE SMOOTH",
"736 477 OFFCURVE",
"760 459 OFFCURVE",
"760 428 CURVE SMOOTH",
"760 0 LINE",
"941 0 LINE",
"941 428 LINE SMOOTH",
"941 541 OFFCURVE",
"870 589 OFFCURVE",
"742 589 CURVE SMOOTH",
"666 589 OFFCURVE",
"632 569 OFFCURVE",
"593 533 CURVE"
);
},
{
closed = 1;
nodes = (
"271 251 LINE",
"271 451 LINE SMOOTH",
"271 462 OFFCURVE",
"277 468 OFFCURVE",
"284 468 CURVE SMOOTH",
"302 468 OFFCURVE",
"325 407 OFFCURVE",
"354 407 CURVE SMOOTH",
"385 407 OFFCURVE",
"404 468 OFFCURVE",
"425 468 CURVE SMOOTH",
"432 468 OFFCURVE",
"439 462 OFFCURVE",
"439 451 CURVE SMOOTH",
"439 0 LINE",
"620 0 LINE",
"620 451 LINE SMOOTH",
"620 520 OFFCURVE",
"585 586 OFFCURVE",
"482 586 CURVE SMOOTH",
"434 586 OFFCURVE",
"394 565 OFFCURVE",
"357 525 CURVE",
"354 525 LINE",
"318 566 OFFCURVE",
"276 586 OFFCURVE",
"229 586 CURVE SMOOTH",
"127 586 OFFCURVE",
"90 521 OFFCURVE",
"90 451 CURVE SMOOTH",
"90 251 LINE"
);
},
{
closed = 1;
nodes = (
"90 70 LINE SMOOTH",
"90 19 OFFCURVE",
"112 0 OFFCURVE",
"186 0 CURVE SMOOTH",
"247 0 LINE SMOOTH",
"340 0 OFFCURVE",
"395 49 OFFCURVE",
"395 122 CURVE SMOOTH",
"395 207 OFFCURVE",
"350 240 OFFCURVE",
"271 241 CURVE",
"271 262 LINE SMOOTH",
"90 262 LINE"
);
},
{
closed = 1;
nodes = (
"271 164 LINE",
"286 164 OFFCURVE",
"299 150 OFFCURVE",
"299 123 CURVE SMOOTH",
"299 98 OFFCURVE",
"284 80 OFFCURVE",
"271 80 CURVE"
);
}
);
width = 1031;
},
{
layerId = "6517A2BC-7974-4B53-8E65-A6A29EB8D1E7";
paths = (
{
closed = 1;
nodes = (
"480 493 LINE",
"517 536 OFFCURVE",
"562 564 OFFCURVE",
"634 564 CURVE SMOOTH",
"737 564 OFFCURVE",
"781 533 OFFCURVE",
"781 449 CURVE SMOOTH",
"781 0 LINE",
"807 0 LINE",
"807 449 LINE SMOOTH",
"807 541 OFFCURVE",
"756 590 OFFCURVE",
"636 590 CURVE SMOOTH",
"559 590 OFFCURVE",
"502 554 OFFCURVE",
"466 513 CURVE"
);
},
{
closed = 1;
nodes = (
"136 187 LINE",
"136 458 LINE SMOOTH",
"136 526 OFFCURVE",
"154 560 OFFCURVE",
"201 560 CURVE SMOOTH",
"248 560 OFFCURVE",
"271 499 OFFCURVE",
"297 499 CURVE SMOOTH",
"327 499 OFFCURVE",
"340 559 OFFCURVE",
"402 559 CURVE SMOOTH",
"440 559 OFFCURVE",
"458 524 OFFCURVE",
"458 451 CURVE SMOOTH",
"458 0 LINE",
"484 0 LINE",
"484 451 LINE SMOOTH",
"484 540 OFFCURVE",
"460 585 OFFCURVE",
"403 585 CURVE SMOOTH",
"361 585 OFFCURVE",
"334 565 OFFCURVE",
"298 525 CURVE",
"296 525 LINE",
"265 564 OFFCURVE",
"238 586 OFFCURVE",
"201 586 CURVE SMOOTH",
"140 586 OFFCURVE",
"110 540 OFFCURVE",
"110 461 CURVE SMOOTH",
"110 187 LINE"
);
},
{
closed = 1;
nodes = (
"110 27 LINE SMOOTH",
"110 3 OFFCURVE",
"126 0 OFFCURVE",
"139 0 CURVE SMOOTH",
"142 0 LINE SMOOTH",
"178 0 OFFCURVE",
"221 33 OFFCURVE",
"221 94 CURVE SMOOTH",
"221 149 OFFCURVE",
"178 168 OFFCURVE",
"136 168 CURVE",
"136 208 LINE",
"110 208 LINE SMOOTH"
);
},
{
closed = 1;
nodes = (
"136 141 LINE",
"180 141 OFFCURVE",
"195 121 OFFCURVE",
"195 91 CURVE SMOOTH",
"195 68 OFFCURVE",
"183 26 OFFCURVE",
"136 26 CURVE"
);
}
);
width = 917;
},
{
layerId = "0F8E8D95-EFB6-4635-B30D-2DA8DDB35575";
paths = (
{
closed = 1;
nodes = (
"497 446 LINE",
"512 460 OFFCURVE",
"531 478 OFFCURVE",
"560 478 CURVE SMOOTH",
"599 478 OFFCURVE",
"615 459 OFFCURVE",
"615 428 CURVE SMOOTH",
"615 0 LINE",
"766 0 LINE",
"766 428 LINE SMOOTH",
"766 536 OFFCURVE",
"719 590 OFFCURVE",
"607 590 CURVE SMOOTH",
"542 590 OFFCURVE",
"496 558 OFFCURVE",
"465 524 CURVE"
);
},
{
closed = 1;
nodes = (
"211 251 LINE",
"211 451 LINE SMOOTH",
"211 462 OFFCURVE",
"215 468 OFFCURVE",
"222 468 CURVE SMOOTH",
"238 468 OFFCURVE",
"255 407 OFFCURVE",
"280 407 CURVE SMOOTH",
"306 407 OFFCURVE",
"322 468 OFFCURVE",
"340 468 CURVE SMOOTH",
"346 468 OFFCURVE",
"351 462 OFFCURVE",
"351 451 CURVE SMOOTH",
"351 0 LINE",
"502 0 LINE",
"502 451 LINE SMOOTH",
"502 520 OFFCURVE",
"466 586 OFFCURVE",
"387 586 CURVE SMOOTH",
"347 586 OFFCURVE",
"313 565 OFFCURVE",
"283 525 CURVE",
"280 525 LINE",
"250 566 OFFCURVE",
"215 586 OFFCURVE",
"176 586 CURVE SMOOTH",
"90 586 OFFCURVE",
"60 521 OFFCURVE",
"60 451 CURVE SMOOTH",
"60 251 LINE"
);
},
{
closed = 1;
nodes = (
"60 70 LINE SMOOTH",
"60 19 OFFCURVE",
"78 0 OFFCURVE",
"142 0 CURVE SMOOTH",
"189 0 LINE SMOOTH",
"267 0 OFFCURVE",
"316 52 OFFCURVE",
"316 125 CURVE SMOOTH",
"316 210 OFFCURVE",
"277 241 OFFCURVE",
"211 241 CURVE",
"211 259 LINE SMOOTH",
"60 259 LINE"
);
},
{
closed = 1;
nodes = (
"211 164 LINE",
"223 164 OFFCURVE",
"235 152 OFFCURVE",
"235 127 CURVE SMOOTH",
"235 100 OFFCURVE",
"222 80 OFFCURVE",
"211 80 CURVE"
);
}
);
width = 826;
},
{
layerId = "9C354F0E-63BE-4945-A1C1-0B7B127DD18D";
paths = (
{
closed = 1;
nodes = (
"433 466 LINE",
"460 503 OFFCURVE",
"485 523 OFFCURVE",
"531 523 CURVE SMOOTH",
"598 523 OFFCURVE",
"629 484 OFFCURVE",
"629 428 CURVE SMOOTH",
"629 0 LINE",
"706 0 LINE",
"706 428 LINE SMOOTH",
"706 514 OFFCURVE",
"668 590 OFFCURVE",
"547 590 CURVE SMOOTH",
"485 590 OFFCURVE",
"446 566 OFFCURVE",
"419 531 CURVE"
);
},
{
closed = 1;
nodes = (
"155 242 LINE",
"155 451 LINE SMOOTH",
"155 492 OFFCURVE",
"165 513 OFFCURVE",
"185 513 CURVE SMOOTH",
"218 513 OFFCURVE",
"234 452 OFFCURVE",
"262 452 CURVE SMOOTH",
"289 452 OFFCURVE",
"305 513 OFFCURVE",
"339 513 CURVE SMOOTH",
"359 513 OFFCURVE",
"368 492 OFFCURVE",
"368 451 CURVE SMOOTH",
"368 0 LINE",
"445 0 LINE",
"445 451 LINE SMOOTH",
"445 524 OFFCURVE",
"424 586 OFFCURVE",
"356 586 CURVE SMOOTH",
"313 586 OFFCURVE",
"294 565 OFFCURVE",
"265 525 CURVE",
"262 525 LINE",
"232 566 OFFCURVE",
"204 586 OFFCURVE",
"170 586 CURVE SMOOTH",
"102 586 OFFCURVE",
"78 524 OFFCURVE",
"78 451 CURVE SMOOTH",
"78 242 LINE"
);
},
{
closed = 1;
nodes = (
"78 60 LINE SMOOTH",
"78 20 OFFCURVE",
"104 0 OFFCURVE",
"144 0 CURVE SMOOTH",
"160 0 LINE SMOOTH",
"213 0 OFFCURVE",
"256 44 OFFCURVE",
"256 113 CURVE SMOOTH",
"256 187 OFFCURVE",
"206 219 OFFCURVE",
"155 219 CURVE",
"155 260 LINE SMOOTH",
"78 260 LINE"
);
},
{
closed = 1;
nodes = (
"155 151 LINE",
"180 150 OFFCURVE",
"193 138 OFFCURVE",
"193 111 CURVE SMOOTH",
"193 83 OFFCURVE",
"180 67 OFFCURVE",
"155 67 CURVE"
);
}
);
width = 784;
},
{
layerId = "DE962D09-1426-4D02-9608-9FE5B080C42D";
paths = (
{
closed = 1;
nodes = (
"390 506 LINE",
"433 544 OFFCURVE",
"462 564 OFFCURVE",
"523 564 CURVE SMOOTH",
"590 564 OFFCURVE",
"645 528 OFFCURVE",
"645 449 CURVE SMOOTH",
"645 0 LINE",
"671 0 LINE",
"671 449 LINE SMOOTH",
"671 544 OFFCURVE",
"602 590 OFFCURVE",
"523 590 CURVE SMOOTH",
"462 590 OFFCURVE",
"423 565 OFFCURVE",
"385 530 CURVE"
);
},
{
closed = 1;
nodes = (
"116 184 LINE",
"116 461 LINE SMOOTH",
"116 538 OFFCURVE",
"135 560 OFFCURVE",
"163 560 CURVE SMOOTH",
"201 560 OFFCURVE",
"216 497 OFFCURVE",
"245 497 CURVE SMOOTH",
"274 497 OFFCURVE",
"286 560 OFFCURVE",
"331 560 CURVE SMOOTH",
"360 560 OFFCURVE",
"375 534 OFFCURVE",
"375 461 CURVE SMOOTH",
"375 0 LINE",
"401 0 LINE",
"401 466 LINE SMOOTH",
"401 546 OFFCURVE",
"380 586 OFFCURVE",
"333 586 CURVE SMOOTH",
"301 586 OFFCURVE",
"278 564 OFFCURVE",
"248 525 CURVE",
"245 525 LINE",
"215 566 OFFCURVE",
"193 586 OFFCURVE",
"162 586 CURVE SMOOTH",
"120 586 OFFCURVE",
"90 550 OFFCURVE",
"90 466 CURVE SMOOTH",
"90 184 LINE"
);
},
{
closed = 1;
nodes = (
"90 27 LINE SMOOTH",
"90 3 OFFCURVE",
"106 0 OFFCURVE",
"117 0 CURVE SMOOTH",
"119 0 LINE SMOOTH",
"152 0 OFFCURVE",
"192 32 OFFCURVE",
"192 89 CURVE SMOOTH",
"192 146 OFFCURVE",
"146 168 OFFCURVE",
"116 168 CURVE",
"116 208 LINE",
"90 208 LINE SMOOTH"
);
},
{
closed = 1;
nodes = (
"116 141 LINE",
"148 141 OFFCURVE",
"166 118 OFFCURVE",
"166 89 CURVE SMOOTH",
"166 61 OFFCURVE",
"152 27 OFFCURVE",
"116 26 CURVE"
);
}
);
width = 761;
}
);
note = uni1789.a;
},
{
glyphname = uni178A;
lastChange = "2017-12-14 22:51:15 +0000";
layers = (
{
layerId = "46DC2CF2-3687-4CD7-A306-8CA7072459C9";
paths = (
{
closed = 1;
nodes = (
"408 470 LINE SMOOTH",
"512 470 OFFCURVE",
"537 500 OFFCURVE",
"537 562 CURVE SMOOTH",
"537 674 LINE",
"445 674 LINE",
"445 562 LINE SMOOTH",
"445 545 OFFCURVE",
"427 537 OFFCURVE",
"391 537 CURVE SMOOTH",
"189 537 LINE",
"189 610 LINE",
"98 610 LINE",
"98 470 LINE"
);
},
{
closed = 1;
nodes = (
"204 0 LINE",
"318 103 LINE",
"431 0 LINE",
"537 0 LINE",
"537 402 LINE",
"445 402 LINE",
"445 82 LINE",
"318 198 LINE",
"190 81 LINE",
"190 402 LINE",
"98 402 LINE",
"98 0 LINE"
);
}
);
width = 635;
},
{
layerId = "51E32C1F-DEF7-419B-8D63-3B39AA64BD60";
paths = (
{
closed = 1;
nodes = (
"503 443 LINE SMOOTH",
"586 443 OFFCURVE",
"619 489 OFFCURVE",
"619 578 CURVE SMOOTH",
"619 674 LINE",
"438 674 LINE",
"438 578 LINE SMOOTH",
"438 563 OFFCURVE",
"420 555 OFFCURVE",
"383 555 CURVE SMOOTH",
"271 555 LINE",
"271 610 LINE",
"90 610 LINE",
"90 443 LINE"
);
},
{
closed = 1;
nodes = (
"242 0 LINE",
"355 76 LINE",
"468 0 LINE",
"619 0 LINE",
"619 402 LINE",
"438 402 LINE",
"438 165 LINE",
"355 223 LINE",
"271 164 LINE",
"271 402 LINE",
"90 402 LINE",
"90 0 LINE"
);
}
);
width = 709;
},
{
layerId = "6517A2BC-7974-4B53-8E65-A6A29EB8D1E7";
paths = (
{
closed = 1;
nodes = (
"409 489 LINE SMOOTH",
"441 489 OFFCURVE",
"484 498 OFFCURVE",
"484 566 CURVE SMOOTH",
"484 674 LINE",
"458 674 LINE",
"458 567 LINE SMOOTH",
"458 533 OFFCURVE",
"449 513 OFFCURVE",
"392 513 CURVE SMOOTH",
"137 513 LINE",
"137 610 LINE",
"113 610 LINE",
"113 489 LINE"
);
},
{
closed = 1;
nodes = (
"142 0 LINE",
"298 135 LINE",
"452 0 LINE",
"484 0 LINE",
"484 402 LINE",
"458 402 LINE",
"458 30 LINE",
"298 170 LINE",
"136 30 LINE",
"136 402 LINE",
"110 402 LINE",
"110 0 LINE"
);
}
);
width = 594;
},
{
layerId = "0F8E8D95-EFB6-4635-B30D-2DA8DDB35575";
paths = (
{
closed = 1;
nodes = (
"397 443 LINE SMOOTH",
"483 443 OFFCURVE",
"501 489 OFFCURVE",
"501 578 CURVE SMOOTH",
"501 674 LINE",
"350 674 LINE",
"350 578 LINE SMOOTH",
"350 563 OFFCURVE",
"335 555 OFFCURVE",
"304 555 CURVE SMOOTH",
"211 555 LINE",
"211 610 LINE",
"60 610 LINE",
"60 443 LINE"
);
},
{
closed = 1;
nodes = (
"187 0 LINE",
"281 76 LINE",
"375 0 LINE",
"501 0 LINE",
"501 402 LINE",
"350 402 LINE",
"350 165 LINE",
"281 223 LINE",
"211 164 LINE",
"211 402 LINE",
"60 402 LINE",
"60 0 LINE"
);
}
);
width = 561;
},
{
layerId = "9C354F0E-63BE-4945-A1C1-0B7B127DD18D";
paths = (
{
closed = 1;
nodes = (
"333 470 LINE SMOOTH",
"414 470 OFFCURVE",
"444 500 OFFCURVE",
"444 562 CURVE SMOOTH",
"444 674 LINE",
"367 674 LINE",
"367 562 LINE SMOOTH",
"367 545 OFFCURVE",
"352 537 OFFCURVE",
"322 537 CURVE SMOOTH",
"155 537 LINE",
"155 610 LINE",
"78 610 LINE",
"78 470 LINE"
);
},
{
closed = 1;
nodes = (
"166 0 LINE",
"261 103 LINE",
"356 0 LINE",
"444 0 LINE",
"444 402 LINE",
"367 402 LINE",
"367 82 LINE",
"261 198 LINE",
"155 81 LINE",
"155 402 LINE",
"78 402 LINE",
"78 0 LINE"
);
}
);
width = 522;
},
{
layerId = "DE962D09-1426-4D02-9608-9FE5B080C42D";
paths = (
{
closed = 1;
nodes = (
"329 489 LINE SMOOTH",
"361 489 OFFCURVE",
"404 498 OFFCURVE",
"404 566 CURVE SMOOTH",
"404 674 LINE",
"378 674 LINE",
"378 567 LINE SMOOTH",
"378 533 OFFCURVE",
"369 513 OFFCURVE",
"312 513 CURVE SMOOTH",
"117 513 LINE",
"117 610 LINE",
"93 610 LINE",
"93 489 LINE"
);
},
{
closed = 1;
nodes = (
"125 0 LINE",
"248 132 LINE",
"369 0 LINE",
"404 0 LINE",
"404 402 LINE",
"378 402 LINE",
"378 29 LINE",
"248 170 LINE",
"116 29 LINE",
"116 402 LINE",
"90 402 LINE",
"90 0 LINE"
);
}
);
width = 494;
}
);
note = uni178A;
rightMetricsKey = uni1780;
unicode = 178A;
},
{
glyphname = uni178B;
lastChange = "2017-12-14 22:51:15 +0000";
layers = (
{
layerId = "46DC2CF2-3687-4CD7-A306-8CA7072459C9";
paths = (
{
closed = 1;
nodes = (
"464 0 OFFCURVE",
"537 53 OFFCURVE",
"537 158 CURVE SMOOTH",
"537 403 LINE",
"390 517 LINE",
"391 519 LINE",
"484 519 LINE SMOOTH",
"533 519 OFFCURVE",
"547 542 OFFCURVE",
"547 594 CURVE SMOOTH",
"547 674 LINE",
"455 674 LINE",
"455 616 LINE SMOOTH",
"455 594 OFFCURVE",
"444 586 OFFCURVE",
"421 586 CURVE SMOOTH",
"362 586 LINE",
"303 510 OFFCURVE",
"300 505 OFFCURVE",
"300 494 CURVE SMOOTH",
"300 480 OFFCURVE",
"312 470 OFFCURVE",
"445 364 CURVE",
"445 158 LINE SMOOTH",
"445 98 OFFCURVE",
"403 67 OFFCURVE",
"317 67 CURVE SMOOTH",
"232 67 OFFCURVE",
"190 98 OFFCURVE",
"190 158 CURVE SMOOTH",
"190 536 LINE SMOOTH",
"190 569 OFFCURVE",
"165 586 OFFCURVE",
"116 586 CURVE SMOOTH",
"39 586 LINE",
"39 519 LINE",
"78 519 OFFCURVE",
"98 511 OFFCURVE",
"98 486 CURVE SMOOTH",
"98 158 LINE SMOOTH",
"98 53 OFFCURVE",
"171 0 OFFCURVE",
"317 0 CURVE SMOOTH"
);
}
);
width = 635;
},
{
layerId = "51E32C1F-DEF7-419B-8D63-3B39AA64BD60";
paths = (
{
closed = 1;
nodes = (
"542 0 OFFCURVE",
"631 53 OFFCURVE",
"631 158 CURVE SMOOTH",
"631 403 LINE",
"569 472 LINE",
"570 474 LINE",
"595 474 LINE SMOOTH",
"631 474 OFFCURVE",
"640 495 OFFCURVE",
"640 520 CURVE SMOOTH",
"640 674 LINE",
"459 674 LINE",
"459 616 LINE SMOOTH",
"459 594 OFFCURVE",
"444 586 OFFCURVE",
"428 586 CURVE SMOOTH",
"410 586 LINE",
"375 540 OFFCURVE",
"348 511 OFFCURVE",
"348 494 CURVE SMOOTH",
"348 481 OFFCURVE",
"353 475 OFFCURVE",
"450 364 CURVE",
"450 203 LINE SMOOTH",
"450 143 OFFCURVE",
"420 112 OFFCURVE",
"365 112 CURVE SMOOTH",
"310 112 OFFCURVE",
"282 143 OFFCURVE",
"282 203 CURVE SMOOTH",
"282 523 LINE SMOOTH",
"282 569 OFFCURVE",
"243 586 OFFCURVE",
"164 586 CURVE SMOOTH",
"60 586 LINE",
"60 474 LINE",
"87 474 OFFCURVE",
"101 466 OFFCURVE",
"101 451 CURVE SMOOTH",
"101 158 LINE SMOOTH",
"101 53 OFFCURVE",
"189 0 OFFCURVE",
"365 0 CURVE SMOOTH"
);
}
);
width = 724;
},
{
layerId = "6517A2BC-7974-4B53-8E65-A6A29EB8D1E7";
paths = (
{
closed = 1;
nodes = (
"443 0 OFFCURVE",
"505 53 OFFCURVE",
"505 158 CURVE SMOOTH",
"505 395 LINE",
"383 506 LINE",
"421 560 LINE",
"471 560 LINE SMOOTH",
"509 560 OFFCURVE",
"518 575 OFFCURVE",
"518 611 CURVE SMOOTH",
"518 674 LINE",
"492 674 LINE",
"492 615 LINE SMOOTH",
"492 593 OFFCURVE",
"486 586 OFFCURVE",
"468 586 CURVE SMOOTH",
"413 586 LINE",
"402 572 OFFCURVE",
"361 526 OFFCURVE",
"361 506 CURVE SMOOTH",
"361 491 OFFCURVE",
"381 473 OFFCURVE",
"479 384 CURVE",
"479 158 LINE SMOOTH",
"479 64 OFFCURVE",
"426 26 OFFCURVE",
"318 26 CURVE SMOOTH",
"219 26 OFFCURVE",
"158 64 OFFCURVE",
"158 157 CURVE SMOOTH",
"158 553 LINE SMOOTH",
"158 582 OFFCURVE",
"144 586 OFFCURVE",
"117 586 CURVE SMOOTH",
"60 586 LINE",
"60 560 LINE",
"108 560 OFFCURVE",
"132 560 OFFCURVE",
"132 545 CURVE SMOOTH",
"132 158 LINE SMOOTH",
"132 53 OFFCURVE",
"194 0 OFFCURVE",
"318 0 CURVE SMOOTH"
);
}
);
width = 628;
},
{
layerId = "0F8E8D95-EFB6-4635-B30D-2DA8DDB35575";
paths = (
{
closed = 1;
nodes = (
"442 0 OFFCURVE",
"516 53 OFFCURVE",
"516 158 CURVE SMOOTH",
"516 410 LINE",
"466 472 LINE",
"467 474 LINE",
"481 474 LINE SMOOTH",
"517 474 OFFCURVE",
"526 495 OFFCURVE",
"526 520 CURVE SMOOTH",
"526 674 LINE",
"375 674 LINE",
"375 615 LINE SMOOTH",
"375 594 OFFCURVE",
"360 586 OFFCURVE",
"346 586 CURVE SMOOTH",
"332 586 LINE",
"303 540 OFFCURVE",
"280 511 OFFCURVE",
"280 494 CURVE SMOOTH",
"280 481 OFFCURVE",
"284 475 OFFCURVE",
"365 364 CURVE",
"365 203 LINE SMOOTH",
"365 143 OFFCURVE",
"340 112 OFFCURVE",
"294 112 CURVE SMOOTH",
"248 112 OFFCURVE",
"225 143 OFFCURVE",
"225 203 CURVE SMOOTH",
"225 531 LINE SMOOTH",
"225 569 OFFCURVE",
"193 586 OFFCURVE",
"127 586 CURVE SMOOTH",
"40 586 LINE",
"40 474 LINE",
"63 474 OFFCURVE",
"74 469 OFFCURVE",
"74 454 CURVE SMOOTH",
"74 158 LINE SMOOTH",
"74 53 OFFCURVE",
"148 0 OFFCURVE",
"294 0 CURVE SMOOTH"
);
}
);
width = 586;
},
{
layerId = "9C354F0E-63BE-4945-A1C1-0B7B127DD18D";
paths = (
{
closed = 1;
nodes = (
"394 0 OFFCURVE",
"455 53 OFFCURVE",
"455 158 CURVE SMOOTH",
"455 400 LINE",
"353 517 LINE",
"354 519 LINE",
"422 519 LINE SMOOTH",
"471 519 OFFCURVE",
"485 542 OFFCURVE",
"485 594 CURVE SMOOTH",
"485 674 LINE",
"408 674 LINE",
"408 613 LINE SMOOTH",
"408 594 OFFCURVE",
"399 586 OFFCURVE",
"378 586 CURVE SMOOTH",
"339 586 LINE",
"290 510 OFFCURVE",
"288 505 OFFCURVE",
"288 494 CURVE SMOOTH",
"288 476 OFFCURVE",
"298 470 OFFCURVE",
"378 364 CURVE",
"378 158 LINE SMOOTH",
"378 98 OFFCURVE",
"343 67 OFFCURVE",
"272 67 CURVE SMOOTH",
"201 67 OFFCURVE",
"166 98 OFFCURVE",
"166 158 CURVE SMOOTH",
"166 536 LINE SMOOTH",
"166 569 OFFCURVE",
"145 586 OFFCURVE",
"104 586 CURVE SMOOTH",
"40 586 LINE",
"40 519 LINE",
"73 519 OFFCURVE",
"89 511 OFFCURVE",
"89 496 CURVE SMOOTH",
"89 158 LINE SMOOTH",
"89 53 OFFCURVE",
"150 0 OFFCURVE",
"272 0 CURVE SMOOTH"
);
}
);
width = 563;
},
{
layerId = "DE962D09-1426-4D02-9608-9FE5B080C42D";
paths = (
{
closed = 1;
nodes = (
"375 0 OFFCURVE",
"437 53 OFFCURVE",
"437 158 CURVE SMOOTH",
"437 395 LINE",
"315 506 LINE",
"353 560 LINE",
"403 560 LINE SMOOTH",
"441 560 OFFCURVE",
"450 575 OFFCURVE",
"450 611 CURVE SMOOTH",
"450 674 LINE",
"424 674 LINE",
"424 615 LINE SMOOTH",
"424 593 OFFCURVE",
"418 586 OFFCURVE",
"400 586 CURVE SMOOTH",
"345 586 LINE",
"334 572 OFFCURVE",
"293 526 OFFCURVE",
"293 506 CURVE SMOOTH",
"293 491 OFFCURVE",
"313 473 OFFCURVE",
"411 384 CURVE",
"411 158 LINE SMOOTH",
"411 64 OFFCURVE",
"358 26 OFFCURVE",
"280 26 CURVE SMOOTH",
"211 26 OFFCURVE",
"150 64 OFFCURVE",
"150 157 CURVE SMOOTH",
"150 553 LINE SMOOTH",
"150 582 OFFCURVE",
"136 586 OFFCURVE",
"109 586 CURVE SMOOTH",
"60 586 LINE",
"60 560 LINE",
"108 560 OFFCURVE",
"124 560 OFFCURVE",
"124 545 CURVE SMOOTH",
"124 158 LINE SMOOTH",
"124 53 OFFCURVE",
"186 0 OFFCURVE",
"280 0 CURVE SMOOTH"
);
}
);
width = 540;
}
);
note = uni178B;
unicode = 178B;
},
{
glyphname = uni178C;
lastChange = "2017-12-14 22:51:15 +0000";
layers = (
{
layerId = "46DC2CF2-3687-4CD7-A306-8CA7072459C9";
paths = (
{
closed = 1;
nodes = (
"537 -10 LINE",
"537 234 LINE",
"445 234 LINE",
"445 186 LINE SMOOTH",
"445 145 OFFCURVE",
"332 67 OFFCURVE",
"265 67 CURVE SMOOTH",
"217 67 OFFCURVE",
"190 98 OFFCURVE",
"190 158 CURVE SMOOTH",
"190 231 LINE",
"276 244 LINE SMOOTH",
"450 270 OFFCURVE",
"537 330 OFFCURVE",
"537 458 CURVE SMOOTH",
"537 521 OFFCURVE",
"498 586 OFFCURVE",
"426 586 CURVE SMOOTH",
"385 586 OFFCURVE",
"349 565 OFFCURVE",
"319 525 CURVE",
"317 525 LINE",
"281 566 OFFCURVE",
"259 586 OFFCURVE",
"217 586 CURVE SMOOTH",
"155 586 OFFCURVE",
"97 536 OFFCURVE",
"97 462 CURVE SMOOTH",
"97 383 OFFCURVE",
"148 351 OFFCURVE",
"201 351 CURVE SMOOTH",
"238 351 LINE",
"238 418 LINE",
"206 423 OFFCURVE",
"189 433 OFFCURVE",
"189 466 CURVE SMOOTH",
"189 492 OFFCURVE",
"202 513 OFFCURVE",
"224 513 CURVE SMOOTH",
"256 513 OFFCURVE",
"286 452 OFFCURVE",
"315 452 CURVE SMOOTH",
"334 452 OFFCURVE",
"346 468 OFFCURVE",
"358 484 CURVE SMOOTH",
"370 499 OFFCURVE",
"383 513 OFFCURVE",
"403 513 CURVE SMOOTH",
"431 513 OFFCURVE",
"445 487 OFFCURVE",
"445 448 CURVE SMOOTH",
"445 362 OFFCURVE",
"387 328 OFFCURVE",
"271 311 CURVE SMOOTH",
"98 286 LINE",
"98 158 LINE SMOOTH",
"98 68 OFFCURVE",
"155 0 OFFCURVE",
"254 0 CURVE SMOOTH",
"325 0 OFFCURVE",
"379 32 OFFCURVE",
"444 75 CURVE",
"445 75 LINE",
"445 -10 LINE"
);
}
);
width = 635;
},
{
layerId = "51E32C1F-DEF7-419B-8D63-3B39AA64BD60";
paths = (
{
closed = 1;
nodes = (
"620 -10 LINE",
"620 224 LINE",
"439 224 LINE",
"439 197 LINE SMOOTH",
"439 156 OFFCURVE",
"354 112 OFFCURVE",
"317 112 CURVE SMOOTH",
"286 112 OFFCURVE",
"271 136 OFFCURVE",
"271 158 CURVE SMOOTH",
"271 207 LINE",
"313 215 LINE SMOOTH",
"502 251 OFFCURVE",
"619 337 OFFCURVE",
"619 454 CURVE SMOOTH",
"619 548 OFFCURVE",
"564 586 OFFCURVE",
"489 586 CURVE SMOOTH",
"432 586 OFFCURVE",
"393 565 OFFCURVE",
"356 525 CURVE",
"354 525 LINE",
"317 568 OFFCURVE",
"284 586 OFFCURVE",
"236 586 CURVE SMOOTH",
"136 586 OFFCURVE",
"90 530 OFFCURVE",
"90 462 CURVE SMOOTH",
"90 385 OFFCURVE",
"141 342 OFFCURVE",
"228 342 CURVE SMOOTH",
"273 342 LINE",
"273 427 LINE",
"270 427 OFFCURVE",
"260 431 OFFCURVE",
"260 446 CURVE SMOOTH",
"260 457 OFFCURVE",
"269 463 OFFCURVE",
"278 463 CURVE SMOOTH",
"300 463 OFFCURVE",
"328 407 OFFCURVE",
"355 407 CURVE SMOOTH",
"373 407 OFFCURVE",
"384 420 OFFCURVE",
"396 434 CURVE SMOOTH",
"409 448 OFFCURVE",
"423 463 OFFCURVE",
"431 463 CURVE SMOOTH",
"443 463 OFFCURVE",
"448 453 OFFCURVE",
"448 439 CURVE SMOOTH",
"448 395 OFFCURVE",
"396 345 OFFCURVE",
"308 328 CURVE SMOOTH",
"90 286 LINE",
"90 143 LINE SMOOTH",
"90 50 OFFCURVE",
"190 0 OFFCURVE",
"282 0 CURVE SMOOTH",
"329 0 OFFCURVE",
"382 13 OFFCURVE",
"438 65 CURVE",
"439 65 LINE",
"439 -10 LINE"
);
}
);
width = 704;
},
{
layerId = "6517A2BC-7974-4B53-8E65-A6A29EB8D1E7";
paths = (
{
closed = 1;
nodes = (
"492 -10 LINE",
"492 234 LINE",
"466 234 LINE",
"466 170 LINE SMOOTH",
"466 132 OFFCURVE",
"351 26 OFFCURVE",
"248 26 CURVE SMOOTH",
"182 26 OFFCURVE",
"144 73 OFFCURVE",
"144 158 CURVE SMOOTH",
"144 252 LINE",
"294 276 LINE SMOOTH",
"411 295 OFFCURVE",
"492 352 OFFCURVE",
"492 466 CURVE SMOOTH",
"492 544 OFFCURVE",
"460 586 OFFCURVE",
"401 586 CURVE SMOOTH",
"362 586 OFFCURVE",
"328 556 OFFCURVE",
"302 524 CURVE",
"301 524 LINE",
"282 551 OFFCURVE",
"255 586 OFFCURVE",
"206 586 CURVE SMOOTH",
"155 586 OFFCURVE",
"110 533 OFFCURVE",
"110 466 CURVE SMOOTH",
"110 412 OFFCURVE",
"136 351 OFFCURVE",
"209 351 CURVE SMOOTH",
"220 351 LINE",
"220 377 LINE",
"155 377 OFFCURVE",
"136 412 OFFCURVE",
"136 470 CURVE SMOOTH",
"136 512 OFFCURVE",
"164 560 OFFCURVE",
"205 560 CURVE SMOOTH",
"259 560 OFFCURVE",
"271 496 OFFCURVE",
"301 496 CURVE SMOOTH",
"314 496 OFFCURVE",
"328 513 OFFCURVE",
"338 525 CURVE SMOOTH",
"350 539 OFFCURVE",
"371 560 OFFCURVE",
"401 560 CURVE SMOOTH",
"439 560 OFFCURVE",
"466 530 OFFCURVE",
"466 461 CURVE SMOOTH",
"466 378 OFFCURVE",
"405 320 OFFCURVE",
"289 302 CURVE SMOOTH",
"118 276 LINE",
"118 158 LINE SMOOTH",
"118 45 OFFCURVE",
"177 0 OFFCURVE",
"248 0 CURVE SMOOTH",
"323 0 OFFCURVE",
"418 54 OFFCURVE",
"465 121 CURVE",
"466 121 LINE",
"466 -10 LINE"
);
}
);
width = 602;
},
{
layerId = "0F8E8D95-EFB6-4635-B30D-2DA8DDB35575";
paths = (
{
closed = 1;
nodes = (
"495 -10 LINE",
"495 224 LINE",
"344 224 LINE",
"344 197 LINE SMOOTH",
"344 156 OFFCURVE",
"292 112 OFFCURVE",
"249 112 CURVE SMOOTH",
"218 112 OFFCURVE",
"204 136 OFFCURVE",
"204 158 CURVE SMOOTH",
"204 209 LINE",
"239 217 LINE SMOOTH",
"397 253 OFFCURVE",
"494 331 OFFCURVE",
"494 454 CURVE SMOOTH",
"494 548 OFFCURVE",
"446 586 OFFCURVE",
"387 586 CURVE SMOOTH",
"343 586 OFFCURVE",
"317 566 OFFCURVE",
"275 525 CURVE",
"273 525 LINE",
"242 568 OFFCURVE",
"215 586 OFFCURVE",
"175 586 CURVE SMOOTH",
"91 586 OFFCURVE",
"53 530 OFFCURVE",
"53 462 CURVE SMOOTH",
"53 389 OFFCURVE",
"100 342 OFFCURVE",
"168 342 CURVE SMOOTH",
"206 342 LINE",
"206 427 LINE",
"203 427 OFFCURVE",
"194 431 OFFCURVE",
"194 446 CURVE SMOOTH",
"194 457 OFFCURVE",
"201 463 OFFCURVE",
"210 463 CURVE SMOOTH",
"230 463 OFFCURVE",
"246 407 OFFCURVE",
"273 407 CURVE SMOOTH",
"285 407 OFFCURVE",
"297 419 OFFCURVE",
"307 432 CURVE SMOOTH",
"318 447 OFFCURVE",
"329 463 OFFCURVE",
"337 463 CURVE SMOOTH",
"346 463 OFFCURVE",
"353 451 OFFCURVE",
"353 437 CURVE SMOOTH",
"353 393 OFFCURVE",
"308 345 OFFCURVE",
"235 328 CURVE SMOOTH",
"53 286 LINE",
"53 158 LINE SMOOTH",
"53 65 OFFCURVE",
"137 0 OFFCURVE",
"203 0 CURVE SMOOTH",
"252 0 OFFCURVE",
"296 13 OFFCURVE",
"343 65 CURVE",
"344 65 LINE",
"344 -10 LINE"
);
}
);
width = 555;
},
{
layerId = "9C354F0E-63BE-4945-A1C1-0B7B127DD18D";
paths = (
{
closed = 1;
nodes = (
"445 -10 LINE",
"445 234 LINE",
"368 234 LINE",
"368 197 LINE SMOOTH",
"368 146 OFFCURVE",
"269 67 OFFCURVE",
"217 67 CURVE SMOOTH",
"179 67 OFFCURVE",
"155 98 OFFCURVE",
"155 158 CURVE SMOOTH",
"155 231 LINE",
"227 244 LINE SMOOTH",
"372 270 OFFCURVE",
"445 334 OFFCURVE",
"445 456 CURVE SMOOTH",
"445 525 OFFCURVE",
"417 586 OFFCURVE",
"357 586 CURVE SMOOTH",
"322 586 OFFCURVE",
"292 564 OFFCURVE",
"263 525 CURVE",
"262 525 LINE",
"232 566 OFFCURVE",
"213 586 OFFCURVE",
"178 586 CURVE SMOOTH",
"127 586 OFFCURVE",
"79 536 OFFCURVE",
"79 467 CURVE SMOOTH",
"79 383 OFFCURVE",
"120 351 OFFCURVE",
"172 351 CURVE SMOOTH",
"196 351 LINE",
"196 421 LINE",
"169 421 OFFCURVE",
"155 433 OFFCURVE",
"155 466 CURVE SMOOTH",
"155 492 OFFCURVE",
"167 513 OFFCURVE",
"185 513 CURVE SMOOTH",
"216 513 OFFCURVE",
"236 452 OFFCURVE",
"262 452 CURVE SMOOTH",
"276 452 OFFCURVE",
"287 469 OFFCURVE",
"298 485 CURVE SMOOTH",
"309 499 OFFCURVE",
"320 513 OFFCURVE",
"336 513 CURVE SMOOTH",
"355 513 OFFCURVE",
"368 491 OFFCURVE",
"368 449 CURVE SMOOTH",
"368 366 OFFCURVE",
"320 328 OFFCURVE",
"223 311 CURVE SMOOTH",
"78 286 LINE",
"78 158 LINE SMOOTH",
"78 68 OFFCURVE",
"124 0 OFFCURVE",
"214 0 CURVE SMOOTH",
"271 0 OFFCURVE",
"307 32 OFFCURVE",
"367 75 CURVE",
"368 75 LINE",
"368 -10 LINE"
);
}
);
width = 523;
},
{
layerId = "DE962D09-1426-4D02-9608-9FE5B080C42D";
paths = (
{
closed = 1;
nodes = (
"413 -10 LINE",
"413 234 LINE",
"387 234 LINE",
"387 158 LINE SMOOTH",
"387 111 OFFCURVE",
"266 26 OFFCURVE",
"210 26 CURVE SMOOTH",
"152 26 OFFCURVE",
"125 73 OFFCURVE",
"125 158 CURVE SMOOTH",
"125 258 LINE",
"245 274 LINE SMOOTH",
"346 287 OFFCURVE",
"423 346 OFFCURVE",
"423 466 CURVE SMOOTH",
"423 537 OFFCURVE",
"385 586 OFFCURVE",
"340 586 CURVE SMOOTH",
"306 586 OFFCURVE",
"291 572 OFFCURVE",
"257 534 CURVE",
"256 534 LINE",
"224 571 OFFCURVE",
"210 586 OFFCURVE",
"182 586 CURVE SMOOTH",
"140 586 OFFCURVE",
"90 534 OFFCURVE",
"90 466 CURVE SMOOTH",
"90 402 OFFCURVE",
"127 351 OFFCURVE",
"189 351 CURVE SMOOTH",
"197 351 LINE",
"197 377 LINE",
"139 377 OFFCURVE",
"116 417 OFFCURVE",
"116 467 CURVE SMOOTH",
"116 512 OFFCURVE",
"146 560 OFFCURVE",
"180 560 CURVE SMOOTH",
"216 560 OFFCURVE",
"231 506 OFFCURVE",
"257 506 CURVE SMOOTH",
"270 506 OFFCURVE",
"280 522 OFFCURVE",
"293 535 CURVE SMOOTH",
"309 551 OFFCURVE",
"319 560 OFFCURVE",
"339 560 CURVE SMOOTH",
"371 560 OFFCURVE",
"397 522 OFFCURVE",
"397 458 CURVE SMOOTH",
"397 360 OFFCURVE",
"327 310 OFFCURVE",
"240 299 CURVE SMOOTH",
"99 281 LINE",
"99 158 LINE SMOOTH",
"99 45 OFFCURVE",
"139 0 OFFCURVE",
"211 0 CURVE SMOOTH",
"253 0 OFFCURVE",
"324 35 OFFCURVE",
"386 101 CURVE",
"387 101 LINE",
"387 -10 LINE"
);
}
);
width = 513;
}
);
note = uni178C;
unicode = 178C;
},
{
glyphname = uni178D;
lastChange = "2017-12-14 22:51:15 +0000";
layers = (
{
layerId = "46DC2CF2-3687-4CD7-A306-8CA7072459C9";
paths = (
{
closed = 1;
nodes = (
"738 379 LINE",
"738 145 LINE SMOOTH",
"738 106 OFFCURVE",
"720 64 OFFCURVE",
"683 64 CURVE SMOOTH",
"648 64 OFFCURVE",
"609 92 OFFCURVE",
"590 184 CURVE",
"520 184 LINE",
"520 117 LINE",
"544 117 LINE",
"572 50 OFFCURVE",
"613 0 OFFCURVE",
"692 0 CURVE SMOOTH",
"776 0 OFFCURVE",
"830 68 OFFCURVE",
"830 158 CURVE SMOOTH",
"830 379 LINE"
);
},
{
closed = 1;
nodes = (
"190 234 LINE",
"190 451 LINE SMOOTH",
"190 492 OFFCURVE",
"201 513 OFFCURVE",
"225 513 CURVE SMOOTH",
"262 513 OFFCURVE",
"286 452 OFFCURVE",
"317 452 CURVE SMOOTH",
"350 452 OFFCURVE",
"369 513 OFFCURVE",
"410 513 CURVE SMOOTH",
"434 513 OFFCURVE",
"445 492 OFFCURVE",
"445 451 CURVE SMOOTH",
"445 0 LINE",
"537 0 LINE",
"537 451 LINE SMOOTH",
"537 524 OFFCURVE",
"511 586 OFFCURVE",
"437 586 CURVE SMOOTH",
"388 586 OFFCURVE",
"356 565 OFFCURVE",
"319 525 CURVE",
"317 525 LINE",
"281 566 OFFCURVE",
"248 586 OFFCURVE",
"214 586 CURVE SMOOTH",
"128 586 OFFCURVE",
"98 524 OFFCURVE",
"98 451 CURVE SMOOTH",
"98 234 LINE"
);
},
{
closed = 1;
nodes = (
"98 60 LINE SMOOTH",
"98 20 OFFCURVE",
"128 0 OFFCURVE",
"164 0 CURVE SMOOTH",
"192 0 LINE SMOOTH",
"250 0 OFFCURVE",
"296 44 OFFCURVE",
"296 113 CURVE SMOOTH",
"296 187 OFFCURVE",
"251 219 OFFCURVE",
"190 219 CURVE",
"190 247 LINE SMOOTH",
"98 247 LINE"
);
},
{
closed = 1;
nodes = (
"190 151 LINE",
"220 150 OFFCURVE",
"234 136 OFFCURVE",
"234 112 CURVE SMOOTH",
"234 84 OFFCURVE",
"220 67 OFFCURVE",
"190 67 CURVE"
);
},
{
closed = 1;
nodes = (
"830 361 LINE",
"830 410 LINE",
"733 518 LINE",
"733 519 LINE",
"854 519 LINE",
"854 586 LINE",
"733 586 LINE",
"679 515 OFFCURVE",
"669 502 OFFCURVE",
"669 491 CURVE SMOOTH",
"669 478 OFFCURVE",
"675 471 OFFCURVE",
"738 394 CURVE",
"738 361 LINE"
);
}
);
width = 924;
},
{
layerId = "51E32C1F-DEF7-419B-8D63-3B39AA64BD60";
paths = (
{
closed = 1;
nodes = (
"746 371 LINE",
"746 169 LINE SMOOTH",
"746 136 OFFCURVE",
"729 121 OFFCURVE",
"706 121 CURVE SMOOTH",
"679 121 OFFCURVE",
"664 141 OFFCURVE",
"653 175 CURVE",
"606 175 LINE",
"606 59 LINE",
"633 59 LINE",
"667 22 OFFCURVE",
"700 0 OFFCURVE",
"762 0 CURVE SMOOTH",
"838 0 OFFCURVE",
"927 51 OFFCURVE",
"927 163 CURVE SMOOTH",
"927 371 LINE"
);
},
{
closed = 1;
nodes = (
"265 251 LINE",
"265 451 LINE SMOOTH",
"265 462 OFFCURVE",
"271 468 OFFCURVE",
"278 468 CURVE SMOOTH",
"296 468 OFFCURVE",
"319 407 OFFCURVE",
"348 407 CURVE SMOOTH",
"379 407 OFFCURVE",
"398 468 OFFCURVE",
"419 468 CURVE SMOOTH",
"426 468 OFFCURVE",
"433 462 OFFCURVE",
"433 451 CURVE SMOOTH",
"433 0 LINE",
"614 0 LINE",
"614 451 LINE SMOOTH",
"614 520 OFFCURVE",
"579 586 OFFCURVE",
"476 586 CURVE SMOOTH",
"428 586 OFFCURVE",
"388 565 OFFCURVE",
"351 525 CURVE",
"348 525 LINE",
"312 566 OFFCURVE",
"270 586 OFFCURVE",
"223 586 CURVE SMOOTH",
"121 586 OFFCURVE",
"84 521 OFFCURVE",
"84 451 CURVE SMOOTH",
"84 251 LINE"
);
},
{
closed = 1;
nodes = (
"84 70 LINE SMOOTH",
"84 19 OFFCURVE",
"106 0 OFFCURVE",
"180 0 CURVE SMOOTH",
"241 0 LINE SMOOTH",
"334 0 OFFCURVE",
"389 49 OFFCURVE",
"389 122 CURVE SMOOTH",
"389 207 OFFCURVE",
"344 240 OFFCURVE",
"265 241 CURVE",
"265 262 LINE SMOOTH",
"84 262 LINE"
);
},
{
closed = 1;
nodes = (
"265 164 LINE",
"280 164 OFFCURVE",
"293 150 OFFCURVE",
"293 123 CURVE SMOOTH",
"293 98 OFFCURVE",
"278 80 OFFCURVE",
"265 80 CURVE"
);
},
{
closed = 1;
nodes = (
"927 354 LINE",
"927 410 LINE",
"865 473 LINE",
"865 474 LINE",
"935 474 LINE",
"935 586 LINE",
"768 586 LINE",
"726 532 OFFCURVE",
"704 504 OFFCURVE",
"704 491 CURVE SMOOTH",
"704 482 OFFCURVE",
"706 479 OFFCURVE",
"746 426 CURVE",
"746 354 LINE"
);
}
);
width = 1005;
},
{
layerId = "6517A2BC-7974-4B53-8E65-A6A29EB8D1E7";
paths = (
{
closed = 1;
nodes = (
"746 387 LINE",
"746 138 LINE SMOOTH",
"746 69 OFFCURVE",
"697 26 OFFCURVE",
"642 26 CURVE SMOOTH",
"580 26 OFFCURVE",
"530 64 OFFCURVE",
"511 171 CURVE",
"476 171 LINE",
"476 145 LINE",
"493 145 LINE",
"516 36 OFFCURVE",
"577 0 OFFCURVE",
"642 0 CURVE SMOOTH",
"714 0 OFFCURVE",
"772 50 OFFCURVE",
"772 148 CURVE SMOOTH",
"772 387 LINE"
);
},
{
closed = 1;
nodes = (
"136 187 LINE",
"136 458 LINE SMOOTH",
"136 526 OFFCURVE",
"154 560 OFFCURVE",
"201 560 CURVE SMOOTH",
"248 560 OFFCURVE",
"271 499 OFFCURVE",
"297 499 CURVE SMOOTH",
"327 499 OFFCURVE",
"340 559 OFFCURVE",
"402 559 CURVE SMOOTH",
"440 559 OFFCURVE",
"458 524 OFFCURVE",
"458 451 CURVE SMOOTH",
"458 0 LINE",
"484 0 LINE",
"484 451 LINE SMOOTH",
"484 540 OFFCURVE",
"460 585 OFFCURVE",
"403 585 CURVE SMOOTH",
"361 585 OFFCURVE",
"334 565 OFFCURVE",
"298 525 CURVE",
"296 525 LINE",
"265 564 OFFCURVE",
"238 586 OFFCURVE",
"201 586 CURVE SMOOTH",
"140 586 OFFCURVE",
"110 540 OFFCURVE",
"110 461 CURVE SMOOTH",
"110 187 LINE"
);
},
{
closed = 1;
nodes = (
"110 27 LINE SMOOTH",
"110 3 OFFCURVE",
"126 0 OFFCURVE",
"139 0 CURVE SMOOTH",
"142 0 LINE SMOOTH",
"178 0 OFFCURVE",
"221 33 OFFCURVE",
"221 94 CURVE SMOOTH",
"221 149 OFFCURVE",
"178 168 OFFCURVE",
"136 168 CURVE",
"136 208 LINE",
"110 208 LINE SMOOTH"
);
},
{
closed = 1;
nodes = (
"136 141 LINE",
"180 141 OFFCURVE",
"195 121 OFFCURVE",
"195 91 CURVE SMOOTH",
"195 68 OFFCURVE",
"183 26 OFFCURVE",
"136 26 CURVE"
);
},
{
closed = 1;
nodes = (
"772 376 LINE",
"772 398 LINE",
"690 536 LINE",
"698 560 LINE",
"791 560 LINE",
"791 586 LINE",
"700 586 LINE",
"685 569 OFFCURVE",
"675 547 OFFCURVE",
"675 530 CURVE SMOOTH",
"675 514 OFFCURVE",
"689 486 OFFCURVE",
"746 394 CURVE",
"746 376 LINE"
);
}
);
width = 885;
},
{
layerId = "0F8E8D95-EFB6-4635-B30D-2DA8DDB35575";
paths = (
{
closed = 1;
nodes = (
"603 371 LINE",
"603 169 LINE SMOOTH",
"603 136 OFFCURVE",
"588 121 OFFCURVE",
"569 121 CURVE SMOOTH",
"547 121 OFFCURVE",
"534 141 OFFCURVE",
"525 175 CURVE",
"486 175 LINE",
"486 59 LINE",
"509 59 LINE",
"529 22 OFFCURVE",
"561 0 OFFCURVE",
"610 0 CURVE SMOOTH",
"673 0 OFFCURVE",
"754 51 OFFCURVE",
"754 163 CURVE SMOOTH",
"754 371 LINE"
);
},
{
closed = 1;
nodes = (
"211 251 LINE",
"211 451 LINE SMOOTH",
"211 462 OFFCURVE",
"215 468 OFFCURVE",
"222 468 CURVE SMOOTH",
"238 468 OFFCURVE",
"255 407 OFFCURVE",
"280 407 CURVE SMOOTH",
"306 407 OFFCURVE",
"322 468 OFFCURVE",
"340 468 CURVE SMOOTH",
"346 468 OFFCURVE",
"351 462 OFFCURVE",
"351 451 CURVE SMOOTH",
"351 0 LINE",
"502 0 LINE",
"502 451 LINE SMOOTH",
"502 520 OFFCURVE",
"466 586 OFFCURVE",
"387 586 CURVE SMOOTH",
"347 586 OFFCURVE",
"313 565 OFFCURVE",
"283 525 CURVE",
"280 525 LINE",
"250 566 OFFCURVE",
"215 586 OFFCURVE",
"176 586 CURVE SMOOTH",
"90 586 OFFCURVE",
"60 521 OFFCURVE",
"60 451 CURVE SMOOTH",
"60 251 LINE"
);
},
{
closed = 1;
nodes = (
"60 70 LINE SMOOTH",
"60 19 OFFCURVE",
"78 0 OFFCURVE",
"142 0 CURVE SMOOTH",
"189 0 LINE SMOOTH",
"267 0 OFFCURVE",
"316 52 OFFCURVE",
"316 125 CURVE SMOOTH",
"316 210 OFFCURVE",
"277 241 OFFCURVE",
"211 241 CURVE",
"211 259 LINE SMOOTH",
"60 259 LINE"
);
},
{
closed = 1;
nodes = (
"211 164 LINE",
"223 164 OFFCURVE",
"235 152 OFFCURVE",
"235 127 CURVE SMOOTH",
"235 100 OFFCURVE",
"222 80 OFFCURVE",
"211 80 CURVE"
);
},
{
closed = 1;
nodes = (
"754 354 LINE",
"754 410 LINE",
"698 473 LINE",
"698 474 LINE",
"762 474 LINE",
"762 586 LINE",
"611 586 LINE",
"561 511 OFFCURVE",
"543 484 OFFCURVE",
"543 473 CURVE SMOOTH",
"543 462 OFFCURVE",
"575 424 OFFCURVE",
"603 391 CURVE",
"603 354 LINE"
);
}
);
width = 822;
},
{
layerId = "9C354F0E-63BE-4945-A1C1-0B7B127DD18D";
paths = (
{
closed = 1;
nodes = (
"621 379 LINE",
"621 145 LINE SMOOTH",
"621 106 OFFCURVE",
"606 64 OFFCURVE",
"575 64 CURVE SMOOTH",
"546 64 OFFCURVE",
"513 92 OFFCURVE",
"497 184 CURVE",
"439 184 LINE",
"439 117 LINE",
"459 117 LINE",
"482 50 OFFCURVE",
"517 0 OFFCURVE",
"582 0 CURVE SMOOTH",
"652 0 OFFCURVE",
"698 68 OFFCURVE",
"698 158 CURVE SMOOTH",
"698 379 LINE"
);
},
{
closed = 1;
nodes = (
"155 242 LINE",
"155 451 LINE SMOOTH",
"155 492 OFFCURVE",
"165 513 OFFCURVE",
"185 513 CURVE SMOOTH",
"218 513 OFFCURVE",
"234 452 OFFCURVE",
"262 452 CURVE SMOOTH",
"289 452 OFFCURVE",
"305 513 OFFCURVE",
"339 513 CURVE SMOOTH",
"359 513 OFFCURVE",
"368 492 OFFCURVE",
"368 451 CURVE SMOOTH",
"368 0 LINE",
"445 0 LINE",
"445 451 LINE SMOOTH",
"445 524 OFFCURVE",
"424 586 OFFCURVE",
"356 586 CURVE SMOOTH",
"313 586 OFFCURVE",
"294 565 OFFCURVE",
"265 525 CURVE",
"262 525 LINE",
"232 566 OFFCURVE",
"204 586 OFFCURVE",
"170 586 CURVE SMOOTH",
"102 586 OFFCURVE",
"78 524 OFFCURVE",
"78 451 CURVE SMOOTH",
"78 242 LINE"
);
},
{
closed = 1;
nodes = (
"78 60 LINE SMOOTH",
"78 20 OFFCURVE",
"104 0 OFFCURVE",
"144 0 CURVE SMOOTH",
"160 0 LINE SMOOTH",
"213 0 OFFCURVE",
"256 44 OFFCURVE",
"256 113 CURVE SMOOTH",
"256 187 OFFCURVE",
"206 219 OFFCURVE",
"155 219 CURVE",
"155 260 LINE SMOOTH",
"78 260 LINE"
);
},
{
closed = 1;
nodes = (
"155 151 LINE",
"180 150 OFFCURVE",
"193 138 OFFCURVE",
"193 111 CURVE SMOOTH",
"193 83 OFFCURVE",
"180 67 OFFCURVE",
"155 67 CURVE"
);
},
{
closed = 1;
nodes = (
"698 356 LINE",
"698 410 LINE",
"616 518 LINE",
"616 519 LINE",
"717 519 LINE",
"717 586 LINE",
"616 586 LINE",
"571 515 OFFCURVE",
"563 502 OFFCURVE",
"563 491 CURVE SMOOTH",
"563 478 OFFCURVE",
"568 471 OFFCURVE",
"621 394 CURVE",
"621 356 LINE"
);
}
);
width = 787;
},
{
layerId = "DE962D09-1426-4D02-9608-9FE5B080C42D";
paths = (
{
closed = 1;
nodes = (
"619 367 LINE",
"619 138 LINE SMOOTH",
"619 69 OFFCURVE",
"588 26 OFFCURVE",
"536 26 CURVE SMOOTH",
"475 26 OFFCURVE",
"450 80 OFFCURVE",
"424 171 CURVE",
"389 171 LINE",
"389 145 LINE",
"406 145 LINE",
"432 49 OFFCURVE",
"466 0 OFFCURVE",
"536 0 CURVE SMOOTH",
"605 0 OFFCURVE",
"645 50 OFFCURVE",
"645 148 CURVE SMOOTH",
"645 367 LINE"
);
},
{
closed = 1;
nodes = (
"116 184 LINE",
"116 461 LINE SMOOTH",
"116 538 OFFCURVE",
"135 560 OFFCURVE",
"163 560 CURVE SMOOTH",
"201 560 OFFCURVE",
"216 497 OFFCURVE",
"245 497 CURVE SMOOTH",
"274 497 OFFCURVE",
"286 560 OFFCURVE",
"331 560 CURVE SMOOTH",
"360 560 OFFCURVE",
"375 534 OFFCURVE",
"375 461 CURVE SMOOTH",
"375 0 LINE",
"401 0 LINE",
"401 466 LINE SMOOTH",
"401 546 OFFCURVE",
"380 586 OFFCURVE",
"333 586 CURVE SMOOTH",
"301 586 OFFCURVE",
"278 564 OFFCURVE",
"248 525 CURVE",
"245 525 LINE",
"215 566 OFFCURVE",
"193 586 OFFCURVE",
"162 586 CURVE SMOOTH",
"120 586 OFFCURVE",
"90 550 OFFCURVE",
"90 466 CURVE SMOOTH",
"90 184 LINE"
);
},
{
closed = 1;
nodes = (
"90 27 LINE SMOOTH",
"90 3 OFFCURVE",
"106 0 OFFCURVE",
"117 0 CURVE SMOOTH",
"119 0 LINE SMOOTH",
"152 0 OFFCURVE",
"192 32 OFFCURVE",
"192 89 CURVE SMOOTH",
"192 146 OFFCURVE",
"146 168 OFFCURVE",
"116 168 CURVE",
"116 208 LINE",
"90 208 LINE SMOOTH"
);
},
{
closed = 1;
nodes = (
"116 141 LINE",
"148 141 OFFCURVE",
"166 118 OFFCURVE",
"166 89 CURVE SMOOTH",
"166 61 OFFCURVE",
"152 27 OFFCURVE",
"116 26 CURVE"
);
},
{
closed = 1;
nodes = (
"645 356 LINE",
"645 398 LINE",
"577 536 LINE",
"584 560 LINE",
"661 560 LINE",
"661 586 LINE",
"585 586 LINE",
"572 569 OFFCURVE",
"564 547 OFFCURVE",
"564 530 CURVE SMOOTH",
"564 514 OFFCURVE",
"574 484 OFFCURVE",
"619 392 CURVE",
"619 356 LINE"
);
}
);
width = 745;
}
);
leftMetricsKey = uni1796;
note = uni178D;
unicode = 178D;
},
{
glyphname = uni178E;
lastChange = "2017-12-14 22:51:15 +0000";
layers = (
{
layerId = "46DC2CF2-3687-4CD7-A306-8CA7072459C9";
paths = (
{
closed = 1;
nodes = (
"190 235 LINE",
"190 428 LINE SMOOTH",
"190 488 OFFCURVE",
"227 519 OFFCURVE",
"302 519 CURVE SMOOTH",
"377 519 OFFCURVE",
"415 488 OFFCURVE",
"415 428 CURVE SMOOTH",
"415 0 LINE",
"521 0 LINE",
"620 89 LINE",
"718 0 LINE",
"824 0 LINE",
"824 428 LINE SMOOTH",
"824 488 OFFCURVE",
"862 519 OFFCURVE",
"937 519 CURVE SMOOTH",
"1012 519 OFFCURVE",
"1050 488 OFFCURVE",
"1050 428 CURVE SMOOTH",
"1050 0 LINE",
"1142 0 LINE",
"1142 428 LINE SMOOTH",
"1142 533 OFFCURVE",
"1073 586 OFFCURVE",
"937 586 CURVE SMOOTH",
"801 586 OFFCURVE",
"732 533 OFFCURVE",
"732 428 CURVE SMOOTH",
"732 82 LINE",
"620 184 LINE",
"507 81 LINE",
"507 428 LINE SMOOTH",
"507 533 OFFCURVE",
"438 586 OFFCURVE",
"302 586 CURVE SMOOTH",
"166 586 OFFCURVE",
"98 533 OFFCURVE",
"98 428 CURVE SMOOTH",
"98 235 LINE"
);
},
{
closed = 1;
nodes = (
"98 60 LINE SMOOTH",
"98 20 OFFCURVE",
"128 0 OFFCURVE",
"164 0 CURVE SMOOTH",
"192 0 LINE SMOOTH",
"250 0 OFFCURVE",
"296 44 OFFCURVE",
"296 113 CURVE SMOOTH",
"296 187 OFFCURVE",
"251 219 OFFCURVE",
"190 219 CURVE",
"190 247 LINE SMOOTH",
"98 247 LINE"
);
},
{
closed = 1;
nodes = (
"190 151 LINE",
"220 150 OFFCURVE",
"234 136 OFFCURVE",
"234 112 CURVE SMOOTH",
"234 84 OFFCURVE",
"220 67 OFFCURVE",
"190 67 CURVE"
);
}
);
width = 1240;
},
{
layerId = "51E32C1F-DEF7-419B-8D63-3B39AA64BD60";
paths = (
{
closed = 1;
nodes = (
"271 251 LINE",
"271 428 LINE SMOOTH",
"271 459 OFFCURVE",
"294 474 OFFCURVE",
"339 474 CURVE SMOOTH",
"386 474 OFFCURVE",
"409 459 OFFCURVE",
"409 428 CURVE SMOOTH",
"409 0 LINE",
"560 0 LINE",
"657 62 LINE",
"755 0 LINE",
"906 0 LINE",
"906 428 LINE SMOOTH",
"906 459 OFFCURVE",
"929 474 OFFCURVE",
"974 474 CURVE SMOOTH",
"1019 474 OFFCURVE",
"1042 459 OFFCURVE",
"1042 428 CURVE SMOOTH",
"1042 0 LINE",
"1223 0 LINE",
"1223 428 LINE SMOOTH",
"1223 533 OFFCURVE",
"1139 586 OFFCURVE",
"974 586 CURVE SMOOTH",
"809 586 OFFCURVE",
"725 533 OFFCURVE",
"725 428 CURVE SMOOTH",
"725 165 LINE",
"657 209 LINE",
"590 164 LINE",
"590 428 LINE SMOOTH",
"590 533 OFFCURVE",
"504 586 OFFCURVE",
"339 586 CURVE SMOOTH",
"173 586 OFFCURVE",
"90 533 OFFCURVE",
"90 428 CURVE SMOOTH",
"90 251 LINE"
);
},
{
closed = 1;
nodes = (
"90 70 LINE SMOOTH",
"90 19 OFFCURVE",
"112 0 OFFCURVE",
"186 0 CURVE SMOOTH",
"247 0 LINE SMOOTH",
"340 0 OFFCURVE",
"395 49 OFFCURVE",
"395 122 CURVE SMOOTH",
"395 207 OFFCURVE",
"350 240 OFFCURVE",
"271 241 CURVE",
"271 262 LINE SMOOTH",
"90 262 LINE"
);
},
{
closed = 1;
nodes = (
"271 164 LINE",
"286 164 OFFCURVE",
"299 150 OFFCURVE",
"299 123 CURVE SMOOTH",
"299 98 OFFCURVE",
"284 80 OFFCURVE",
"271 80 CURVE"
);
}
);
width = 1313;
},
{
layerId = "6517A2BC-7974-4B53-8E65-A6A29EB8D1E7";
paths = (
{
closed = 1;
nodes = (
"136 188 LINE",
"136 428 LINE SMOOTH",
"136 509 OFFCURVE",
"186 560 OFFCURVE",
"281 560 CURVE SMOOTH",
"376 560 OFFCURVE",
"427 509 OFFCURVE",
"427 428 CURVE SMOOTH",
"427 0 LINE",
"459 0 LINE",
"599 134 LINE",
"738 0 LINE",
"770 0 LINE",
"770 428 LINE SMOOTH",
"770 509 OFFCURVE",
"821 560 OFFCURVE",
"916 560 CURVE SMOOTH",
"1011 560 OFFCURVE",
"1062 509 OFFCURVE",
"1062 428 CURVE SMOOTH",
"1062 0 LINE",
"1088 0 LINE",
"1088 428 LINE SMOOTH",
"1088 533 OFFCURVE",
"1029 586 OFFCURVE",
"916 586 CURVE SMOOTH",
"803 586 OFFCURVE",
"744 533 OFFCURVE",
"744 428 CURVE SMOOTH",
"744 30 LINE",
"599 170 LINE",
"453 30 LINE",
"453 428 LINE SMOOTH",
"453 533 OFFCURVE",
"394 586 OFFCURVE",
"281 586 CURVE SMOOTH",
"167 586 OFFCURVE",
"110 533 OFFCURVE",
"110 428 CURVE SMOOTH",
"110 188 LINE"
);
},
{
closed = 1;
nodes = (
"110 27 LINE SMOOTH",
"110 3 OFFCURVE",
"126 0 OFFCURVE",
"139 0 CURVE SMOOTH",
"142 0 LINE SMOOTH",
"178 0 OFFCURVE",
"221 33 OFFCURVE",
"221 94 CURVE SMOOTH",
"221 149 OFFCURVE",
"178 168 OFFCURVE",
"136 168 CURVE",
"136 208 LINE",
"110 208 LINE SMOOTH"
);
},
{
closed = 1;
nodes = (
"136 141 LINE",
"180 141 OFFCURVE",
"195 121 OFFCURVE",
"195 91 CURVE SMOOTH",
"195 68 OFFCURVE",
"183 26 OFFCURVE",
"136 26 CURVE"
);
}
);
width = 1198;
},
{
layerId = "0F8E8D95-EFB6-4635-B30D-2DA8DDB35575";
paths = (
{
closed = 1;
nodes = (
"211 251 LINE",
"211 428 LINE SMOOTH",
"211 459 OFFCURVE",
"230 474 OFFCURVE",
"268 474 CURVE SMOOTH",
"307 474 OFFCURVE",
"326 459 OFFCURVE",
"326 428 CURVE SMOOTH",
"326 0 LINE",
"452 0 LINE",
"533 62 LINE",
"614 0 LINE",
"740 0 LINE",
"740 428 LINE SMOOTH",
"740 459 OFFCURVE",
"759 474 OFFCURVE",
"797 474 CURVE SMOOTH",
"834 474 OFFCURVE",
"853 459 OFFCURVE",
"853 428 CURVE SMOOTH",
"853 0 LINE",
"1004 0 LINE",
"1004 428 LINE SMOOTH",
"1004 533 OFFCURVE",
"934 586 OFFCURVE",
"797 586 CURVE SMOOTH",
"659 586 OFFCURVE",
"589 533 OFFCURVE",
"589 428 CURVE SMOOTH",
"589 165 LINE",
"533 209 LINE",
"477 164 LINE",
"477 428 LINE SMOOTH",
"477 533 OFFCURVE",
"405 586 OFFCURVE",
"268 586 CURVE SMOOTH",
"129 586 OFFCURVE",
"60 533 OFFCURVE",
"60 428 CURVE SMOOTH",
"60 251 LINE"
);
},
{
closed = 1;
nodes = (
"60 70 LINE SMOOTH",
"60 19 OFFCURVE",
"78 0 OFFCURVE",
"142 0 CURVE SMOOTH",
"189 0 LINE SMOOTH",
"267 0 OFFCURVE",
"316 52 OFFCURVE",
"316 125 CURVE SMOOTH",
"316 210 OFFCURVE",
"277 241 OFFCURVE",
"211 241 CURVE",
"211 259 LINE SMOOTH",
"60 259 LINE"
);
},
{
closed = 1;
nodes = (
"211 164 LINE",
"223 164 OFFCURVE",
"235 152 OFFCURVE",
"235 127 CURVE SMOOTH",
"235 100 OFFCURVE",
"222 80 OFFCURVE",
"211 80 CURVE"
);
}
);
width = 1064;
},
{
layerId = "9C354F0E-63BE-4945-A1C1-0B7B127DD18D";
paths = (
{
closed = 1;
nodes = (
"155 236 LINE",
"155 428 LINE SMOOTH",
"155 488 OFFCURVE",
"187 519 OFFCURVE",
"249 519 CURVE SMOOTH",
"312 519 OFFCURVE",
"343 488 OFFCURVE",
"343 428 CURVE SMOOTH",
"343 0 LINE",
"432 0 LINE",
"514 89 LINE",
"596 0 LINE",
"684 0 LINE",
"684 428 LINE SMOOTH",
"684 488 OFFCURVE",
"716 519 OFFCURVE",
"778 519 CURVE SMOOTH",
"841 519 OFFCURVE",
"872 488 OFFCURVE",
"872 428 CURVE SMOOTH",
"872 0 LINE",
"949 0 LINE",
"949 428 LINE SMOOTH",
"949 533 OFFCURVE",
"892 586 OFFCURVE",
"778 586 CURVE SMOOTH",
"665 586 OFFCURVE",
"607 533 OFFCURVE",
"607 428 CURVE SMOOTH",
"607 82 LINE",
"514 184 LINE",
"420 81 LINE",
"420 428 LINE SMOOTH",
"420 533 OFFCURVE",
"362 586 OFFCURVE",
"249 586 CURVE SMOOTH",
"136 586 OFFCURVE",
"78 533 OFFCURVE",
"78 428 CURVE SMOOTH",
"78 236 LINE"
);
},
{
closed = 1;
nodes = (
"78 60 LINE SMOOTH",
"78 20 OFFCURVE",
"104 0 OFFCURVE",
"144 0 CURVE SMOOTH",
"160 0 LINE SMOOTH",
"213 0 OFFCURVE",
"256 44 OFFCURVE",
"256 113 CURVE SMOOTH",
"256 187 OFFCURVE",
"206 219 OFFCURVE",
"155 219 CURVE",
"155 260 LINE SMOOTH",
"78 260 LINE"
);
},
{
closed = 1;
nodes = (
"155 151 LINE",
"180 150 OFFCURVE",
"193 138 OFFCURVE",
"193 111 CURVE SMOOTH",
"193 83 OFFCURVE",
"180 67 OFFCURVE",
"155 67 CURVE"
);
}
);
width = 1027;
},
{
layerId = "DE962D09-1426-4D02-9608-9FE5B080C42D";
paths = (
{
closed = 1;
nodes = (
"116 190 LINE",
"116 428 LINE SMOOTH",
"116 509 OFFCURVE",
"153 560 OFFCURVE",
"233 560 CURVE SMOOTH",
"312 560 OFFCURVE",
"350 509 OFFCURVE",
"350 428 CURVE SMOOTH",
"350 0 LINE",
"384 0 LINE",
"498 129 LINE",
"610 0 LINE",
"644 0 LINE",
"644 428 LINE SMOOTH",
"644 509 OFFCURVE",
"683 560 OFFCURVE",
"762 560 CURVE SMOOTH",
"841 560 OFFCURVE",
"879 509 OFFCURVE",
"879 428 CURVE SMOOTH",
"879 0 LINE",
"905 0 LINE",
"905 428 LINE SMOOTH",
"905 533 OFFCURVE",
"852 586 OFFCURVE",
"762 586 CURVE SMOOTH",
"672 586 OFFCURVE",
"618 533 OFFCURVE",
"618 428 CURVE SMOOTH",
"618 30 LINE",
"498 168 LINE",
"376 30 LINE",
"376 428 LINE SMOOTH",
"376 533 OFFCURVE",
"323 586 OFFCURVE",
"233 586 CURVE SMOOTH",
"142 586 OFFCURVE",
"90 533 OFFCURVE",
"90 428 CURVE SMOOTH",
"90 190 LINE"
);
},
{
closed = 1;
nodes = (
"90 27 LINE SMOOTH",
"90 3 OFFCURVE",
"106 0 OFFCURVE",
"117 0 CURVE SMOOTH",
"119 0 LINE SMOOTH",
"152 0 OFFCURVE",
"192 32 OFFCURVE",
"192 89 CURVE SMOOTH",
"192 146 OFFCURVE",
"146 168 OFFCURVE",
"116 168 CURVE",
"116 208 LINE",
"90 208 LINE SMOOTH"
);
},
{
closed = 1;
nodes = (
"116 141 LINE",
"148 141 OFFCURVE",
"166 118 OFFCURVE",
"166 89 CURVE SMOOTH",
"166 61 OFFCURVE",
"152 27 OFFCURVE",
"116 26 CURVE"
);
}
);
width = 995;
}
);
note = uni178E;
unicode = 178E;
},
{
glyphname = uni178F;
lastChange = "2017-12-14 22:51:15 +0000";
layers = (
{
layerId = "46DC2CF2-3687-4CD7-A306-8CA7072459C9";
paths = (
{
closed = 1;
nodes = (
"537 519 LINE",
"537 586 LINE",
"98 586 LINE",
"98 519 LINE"
);
},
{
closed = 1;
nodes = (
"98 60 LINE SMOOTH",
"98 20 OFFCURVE",
"128 0 OFFCURVE",
"164 0 CURVE SMOOTH",
"192 0 LINE SMOOTH",
"250 0 OFFCURVE",
"296 44 OFFCURVE",
"296 113 CURVE SMOOTH",
"296 187 OFFCURVE",
"251 219 OFFCURVE",
"190 219 CURVE",
"190 247 LINE SMOOTH",
"98 247 LINE"
);
},
{
closed = 1;
nodes = (
"190 151 LINE",
"220 150 OFFCURVE",
"234 136 OFFCURVE",
"234 112 CURVE SMOOTH",
"234 84 OFFCURVE",
"220 67 OFFCURVE",
"190 67 CURVE"
);
},
{
closed = 1;
nodes = (
"190 229 LINE",
"190 293 LINE SMOOTH",
"190 353 OFFCURVE",
"232 383 OFFCURVE",
"317 383 CURVE SMOOTH",
"403 383 OFFCURVE",
"445 353 OFFCURVE",
"445 293 CURVE SMOOTH",
"445 0 LINE",
"537 0 LINE",
"537 293 LINE SMOOTH",
"537 398 OFFCURVE",
"464 451 OFFCURVE",
"317 451 CURVE SMOOTH",
"171 451 OFFCURVE",
"98 398 OFFCURVE",
"98 293 CURVE SMOOTH",
"98 229 LINE"
);
},
{
closed = 1;
nodes = (
"98 60 LINE SMOOTH",
"98 20 OFFCURVE",
"128 0 OFFCURVE",
"164 0 CURVE SMOOTH",
"192 0 LINE SMOOTH",
"250 0 OFFCURVE",
"296 44 OFFCURVE",
"296 113 CURVE SMOOTH",
"296 187 OFFCURVE",
"251 219 OFFCURVE",
"190 219 CURVE",
"190 247 LINE SMOOTH",
"98 247 LINE"
);
},
{
closed = 1;
nodes = (
"190 151 LINE",
"220 150 OFFCURVE",
"234 136 OFFCURVE",
"234 112 CURVE SMOOTH",
"234 84 OFFCURVE",
"220 67 OFFCURVE",
"190 67 CURVE"
);
}
);
width = 635;
},
{
layerId = "51E32C1F-DEF7-419B-8D63-3B39AA64BD60";
paths = (
{
closed = 1;
nodes = (
"619 474 LINE",
"619 586 LINE",
"90 586 LINE",
"90 474 LINE"
);
},
{
closed = 1;
nodes = (
"90 70 LINE SMOOTH",
"90 19 OFFCURVE",
"112 0 OFFCURVE",
"186 0 CURVE SMOOTH",
"247 0 LINE SMOOTH",
"340 0 OFFCURVE",
"395 49 OFFCURVE",
"395 122 CURVE SMOOTH",
"395 207 OFFCURVE",
"350 240 OFFCURVE",
"271 241 CURVE",
"271 262 LINE SMOOTH",
"90 262 LINE"
);
},
{
closed = 1;
nodes = (
"271 164 LINE",
"286 164 OFFCURVE",
"299 150 OFFCURVE",
"299 123 CURVE SMOOTH",
"299 98 OFFCURVE",
"284 80 OFFCURVE",
"271 80 CURVE"
);
},
{
closed = 1;
nodes = (
"271 253 LINE",
"271 266 LINE SMOOTH",
"271 297 OFFCURVE",
"299 313 OFFCURVE",
"354 313 CURVE SMOOTH",
"409 313 OFFCURVE",
"439 297 OFFCURVE",
"439 266 CURVE SMOOTH",
"439 0 LINE",
"620 0 LINE",
"620 266 LINE SMOOTH",
"620 371 OFFCURVE",
"531 424 OFFCURVE",
"354 424 CURVE SMOOTH",
"178 424 OFFCURVE",
"90 371 OFFCURVE",
"90 266 CURVE SMOOTH",
"90 253 LINE"
);
},
{
closed = 1;
nodes = (
"90 70 LINE SMOOTH",
"90 19 OFFCURVE",
"112 0 OFFCURVE",
"186 0 CURVE SMOOTH",
"247 0 LINE SMOOTH",
"340 0 OFFCURVE",
"395 49 OFFCURVE",
"395 122 CURVE SMOOTH",
"395 207 OFFCURVE",
"350 240 OFFCURVE",
"271 241 CURVE",
"271 262 LINE SMOOTH",
"90 262 LINE"
);
},
{
closed = 1;
nodes = (
"271 164 LINE",
"286 164 OFFCURVE",
"299 150 OFFCURVE",
"299 123 CURVE SMOOTH",
"299 98 OFFCURVE",
"284 80 OFFCURVE",
"271 80 CURVE"
);
}
);
width = 710;
},
{
layerId = "6517A2BC-7974-4B53-8E65-A6A29EB8D1E7";
paths = (
{
closed = 1;
nodes = (
"481 560 LINE",
"481 586 LINE",
"110 586 LINE",
"110 560 LINE"
);
},
{
closed = 1;
nodes = (
"110 27 LINE SMOOTH",
"110 3 OFFCURVE",
"126 0 OFFCURVE",
"139 0 CURVE SMOOTH",
"142 0 LINE SMOOTH",
"178 0 OFFCURVE",
"221 33 OFFCURVE",
"221 94 CURVE SMOOTH",
"221 149 OFFCURVE",
"178 168 OFFCURVE",
"136 168 CURVE",
"136 208 LINE",
"110 208 LINE SMOOTH"
);
},
{
closed = 1;
nodes = (
"136 141 LINE",
"180 141 OFFCURVE",
"195 121 OFFCURVE",
"195 91 CURVE SMOOTH",
"195 68 OFFCURVE",
"183 26 OFFCURVE",
"136 26 CURVE"
);
},
{
closed = 1;
nodes = (
"136 186 LINE",
"136 312 LINE",
"136 394 OFFCURVE",
"189 444 OFFCURVE",
"296 444 CURVE SMOOTH",
"403 444 OFFCURVE",
"457 394 OFFCURVE",
"457 312 CURVE SMOOTH",
"457 0 LINE",
"483 0 LINE",
"483 312 LINE SMOOTH",
"483 417 OFFCURVE",
"421 470 OFFCURVE",
"296 470 CURVE SMOOTH",
"172 470 OFFCURVE",
"110 417 OFFCURVE",
"110 312 CURVE",
"110 186 LINE"
);
},
{
closed = 1;
nodes = (
"110 27 LINE SMOOTH",
"110 3 OFFCURVE",
"126 0 OFFCURVE",
"139 0 CURVE SMOOTH",
"142 0 LINE SMOOTH",
"178 0 OFFCURVE",
"221 33 OFFCURVE",
"221 94 CURVE SMOOTH",
"221 149 OFFCURVE",
"178 168 OFFCURVE",
"136 168 CURVE",
"136 208 LINE",
"110 208 LINE SMOOTH"
);
},
{
closed = 1;
nodes = (
"136 141 LINE",
"180 141 OFFCURVE",
"195 121 OFFCURVE",
"195 91 CURVE SMOOTH",
"195 68 OFFCURVE",
"183 26 OFFCURVE",
"136 26 CURVE"
);
}
);
width = 593;
},
{
layerId = "0F8E8D95-EFB6-4635-B30D-2DA8DDB35575";
paths = (
{
closed = 1;
nodes = (
"501 474 LINE",
"501 586 LINE",
"60 586 LINE",
"60 474 LINE"
);
},
{
closed = 1;
nodes = (
"60 70 LINE SMOOTH",
"60 19 OFFCURVE",
"78 0 OFFCURVE",
"142 0 CURVE SMOOTH",
"189 0 LINE SMOOTH",
"267 0 OFFCURVE",
"316 52 OFFCURVE",
"316 125 CURVE SMOOTH",
"316 210 OFFCURVE",
"277 241 OFFCURVE",
"211 241 CURVE",
"211 259 LINE SMOOTH",
"60 259 LINE"
);
},
{
closed = 1;
nodes = (
"211 164 LINE",
"223 164 OFFCURVE",
"235 152 OFFCURVE",
"235 127 CURVE SMOOTH",
"235 100 OFFCURVE",
"222 80 OFFCURVE",
"211 80 CURVE"
);
},
{
closed = 1;
nodes = (
"211 254 LINE",
"211 266 LINE SMOOTH",
"211 297 OFFCURVE",
"234 313 OFFCURVE",
"280 313 CURVE SMOOTH",
"326 313 OFFCURVE",
"351 297 OFFCURVE",
"351 266 CURVE SMOOTH",
"351 0 LINE",
"502 0 LINE",
"502 266 LINE SMOOTH",
"502 371 OFFCURVE",
"428 424 OFFCURVE",
"280 424 CURVE SMOOTH",
"133 424 OFFCURVE",
"60 371 OFFCURVE",
"60 266 CURVE SMOOTH",
"60 254 LINE"
);
},
{
closed = 1;
nodes = (
"60 70 LINE SMOOTH",
"60 19 OFFCURVE",
"78 0 OFFCURVE",
"142 0 CURVE SMOOTH",
"189 0 LINE SMOOTH",
"267 0 OFFCURVE",
"316 52 OFFCURVE",
"316 125 CURVE SMOOTH",
"316 210 OFFCURVE",
"277 241 OFFCURVE",
"211 241 CURVE",
"211 259 LINE SMOOTH",
"60 259 LINE"
);
},
{
closed = 1;
nodes = (
"211 164 LINE",
"223 164 OFFCURVE",
"235 152 OFFCURVE",
"235 127 CURVE SMOOTH",
"235 100 OFFCURVE",
"222 80 OFFCURVE",
"211 80 CURVE"
);
}
);
width = 562;
},
{
layerId = "9C354F0E-63BE-4945-A1C1-0B7B127DD18D";
paths = (
{
closed = 1;
nodes = (
"445 519 LINE",
"445 586 LINE",
"79 586 LINE",
"79 519 LINE"
);
},
{
closed = 1;
nodes = (
"78 60 LINE SMOOTH",
"78 20 OFFCURVE",
"104 0 OFFCURVE",
"144 0 CURVE SMOOTH",
"160 0 LINE SMOOTH",
"213 0 OFFCURVE",
"256 44 OFFCURVE",
"256 113 CURVE SMOOTH",
"256 187 OFFCURVE",
"206 219 OFFCURVE",
"155 219 CURVE",
"155 260 LINE SMOOTH",
"78 260 LINE"
);
},
{
closed = 1;
nodes = (
"155 151 LINE",
"180 150 OFFCURVE",
"193 138 OFFCURVE",
"193 111 CURVE SMOOTH",
"193 83 OFFCURVE",
"180 67 OFFCURVE",
"155 67 CURVE"
);
},
{
closed = 1;
nodes = (
"155 240 LINE",
"155 293 LINE SMOOTH",
"155 353 OFFCURVE",
"191 383 OFFCURVE",
"262 383 CURVE SMOOTH",
"333 383 OFFCURVE",
"368 353 OFFCURVE",
"368 293 CURVE SMOOTH",
"368 0 LINE",
"445 0 LINE",
"445 293 LINE SMOOTH",
"445 398 OFFCURVE",
"384 451 OFFCURVE",
"262 451 CURVE SMOOTH",
"140 451 OFFCURVE",
"78 398 OFFCURVE",
"78 293 CURVE SMOOTH",
"78 240 LINE"
);
},
{
closed = 1;
nodes = (
"78 60 LINE SMOOTH",
"78 20 OFFCURVE",
"104 0 OFFCURVE",
"144 0 CURVE SMOOTH",
"160 0 LINE SMOOTH",
"213 0 OFFCURVE",
"256 44 OFFCURVE",
"256 113 CURVE SMOOTH",
"256 187 OFFCURVE",
"206 219 OFFCURVE",
"155 219 CURVE",
"155 260 LINE SMOOTH",
"78 260 LINE"
);
},
{
closed = 1;
nodes = (
"155 151 LINE",
"180 150 OFFCURVE",
"193 138 OFFCURVE",
"193 111 CURVE SMOOTH",
"193 83 OFFCURVE",
"180 67 OFFCURVE",
"155 67 CURVE"
);
}
);
width = 523;
},
{
layerId = "DE962D09-1426-4D02-9608-9FE5B080C42D";
paths = (
{
closed = 1;
nodes = (
"401 560 LINE",
"401 586 LINE",
"90 586 LINE",
"90 560 LINE"
);
},
{
closed = 1;
nodes = (
"90 27 LINE SMOOTH",
"90 3 OFFCURVE",
"106 0 OFFCURVE",
"117 0 CURVE SMOOTH",
"119 0 LINE SMOOTH",
"152 0 OFFCURVE",
"192 32 OFFCURVE",
"192 89 CURVE SMOOTH",
"192 146 OFFCURVE",
"146 168 OFFCURVE",
"116 168 CURVE",
"116 208 LINE",
"90 208 LINE SMOOTH"
);
},
{
closed = 1;
nodes = (
"116 141 LINE",
"148 141 OFFCURVE",
"166 118 OFFCURVE",
"166 89 CURVE SMOOTH",
"166 61 OFFCURVE",
"152 27 OFFCURVE",
"116 26 CURVE"
);
},
{
closed = 1;
nodes = (
"116 188 LINE",
"116 312 LINE SMOOTH",
"116 394 OFFCURVE",
"156 444 OFFCURVE",
"245 444 CURVE SMOOTH",
"334 444 OFFCURVE",
"375 394 OFFCURVE",
"375 312 CURVE SMOOTH",
"375 0 LINE",
"401 0 LINE",
"401 312 LINE SMOOTH",
"401 417 OFFCURVE",
"349 470 OFFCURVE",
"245 470 CURVE SMOOTH",
"142 470 OFFCURVE",
"90 417 OFFCURVE",
"90 312 CURVE SMOOTH",
"90 188 LINE"
);
},
{
closed = 1;
nodes = (
"90 27 LINE SMOOTH",
"90 3 OFFCURVE",
"106 0 OFFCURVE",
"117 0 CURVE SMOOTH",
"119 0 LINE SMOOTH",
"152 0 OFFCURVE",
"192 32 OFFCURVE",
"192 89 CURVE SMOOTH",
"192 146 OFFCURVE",
"146 168 OFFCURVE",
"116 168 CURVE",
"116 208 LINE",
"90 208 LINE SMOOTH"
);
},
{
closed = 1;
nodes = (
"116 141 LINE",
"148 141 OFFCURVE",
"166 118 OFFCURVE",
"166 89 CURVE SMOOTH",
"166 61 OFFCURVE",
"152 27 OFFCURVE",
"116 26 CURVE"
);
}
);
width = 491;
}
);
leftMetricsKey = uni1780;
note = uni178F;
rightMetricsKey = uni1780;
unicode = 178F;
},
{
glyphname = uni1790;
lastChange = "2017-12-14 22:51:15 +0000";
layers = (
{
layerId = "46DC2CF2-3687-4CD7-A306-8CA7072459C9";
paths = (
{
closed = 1;
nodes = (
"445 216 LINE",
"445 158 LINE SMOOTH",
"445 98 OFFCURVE",
"403 67 OFFCURVE",
"317 67 CURVE SMOOTH",
"232 67 OFFCURVE",
"190 98 OFFCURVE",
"190 158 CURVE SMOOTH",
"190 400 LINE",
"137 460 OFFCURVE",
"116 483 OFFCURVE",
"116 500 CURVE SMOOTH",
"116 503 OFFCURVE",
"119 507 OFFCURVE",
"128 519 CURVE",
"436 519 LINE SMOOTH",
"502 519 OFFCURVE",
"537 549 OFFCURVE",
"537 610 CURVE SMOOTH",
"537 674 LINE",
"445 674 LINE",
"445 610 LINE SMOOTH",
"445 594 OFFCURVE",
"436 586 OFFCURVE",
"409 586 CURVE SMOOTH",
"126 586 LINE",
"56 493 OFFCURVE",
"49 493 OFFCURVE",
"49 466 CURVE SMOOTH",
"49 449 OFFCURVE",
"63 428 OFFCURVE",
"98 384 CURVE",
"98 158 LINE SMOOTH",
"98 53 OFFCURVE",
"171 0 OFFCURVE",
"317 0 CURVE SMOOTH",
"464 0 OFFCURVE",
"537 53 OFFCURVE",
"537 158 CURVE SMOOTH",
"537 216 LINE"
);
},
{
closed = 1;
nodes = (
"537 380 LINE SMOOTH",
"537 419 OFFCURVE",
"506 439 OFFCURVE",
"455 439 CURVE SMOOTH",
"388 439 OFFCURVE",
"333 403 OFFCURVE",
"333 337 CURVE SMOOTH",
"333 277 OFFCURVE",
"377 245 OFFCURVE",
"445 245 CURVE",
"445 198 LINE",
"537 198 LINE"
);
},
{
closed = 1;
nodes = (
"416 313 OFFCURVE",
"400 322 OFFCURVE",
"400 342 CURVE SMOOTH",
"400 362 OFFCURVE",
"416 372 OFFCURVE",
"445 372 CURVE",
"445 313 LINE"
);
}
);
width = 635;
},
{
layerId = "51E32C1F-DEF7-419B-8D63-3B39AA64BD60";
paths = (
{
closed = 1;
nodes = (
"457 209 LINE",
"457 198 LINE SMOOTH",
"457 143 OFFCURVE",
"428 112 OFFCURVE",
"373 112 CURVE SMOOTH",
"318 112 OFFCURVE",
"290 143 OFFCURVE",
"290 203 CURVE SMOOTH",
"290 374 LINE",
"255 390 OFFCURVE",
"187 443 OFFCURVE",
"187 456 CURVE SMOOTH",
"187 463 OFFCURVE",
"191 469 OFFCURVE",
"198 474 CURVE",
"512 474 LINE SMOOTH",
"612 474 OFFCURVE",
"638 519 OFFCURVE",
"638 610 CURVE SMOOTH",
"638 674 LINE",
"458 674 LINE",
"458 610 LINE SMOOTH",
"458 594 OFFCURVE",
"454 586 OFFCURVE",
"430 586 CURVE SMOOTH",
"146 586 LINE",
"100 531 OFFCURVE",
"60 502 OFFCURVE",
"60 466 CURVE SMOOTH",
"60 452 OFFCURVE",
"86 416 OFFCURVE",
"109 384 CURVE",
"109 158 LINE SMOOTH",
"109 53 OFFCURVE",
"197 0 OFFCURVE",
"373 0 CURVE SMOOTH",
"550 0 OFFCURVE",
"638 53 OFFCURVE",
"638 158 CURVE SMOOTH",
"638 209 LINE"
);
},
{
closed = 1;
nodes = (
"638 363 LINE SMOOTH",
"638 404 OFFCURVE",
"592 434 OFFCURVE",
"521 434 CURVE SMOOTH",
"402 434 OFFCURVE",
"344 383 OFFCURVE",
"344 311 CURVE SMOOTH",
"344 253 OFFCURVE",
"389 211 OFFCURVE",
"457 211 CURVE",
"457 198 LINE",
"638 198 LINE"
);
},
{
closed = 1;
nodes = (
"445 286 OFFCURVE",
"433 295 OFFCURVE",
"433 316 CURVE SMOOTH",
"433 335 OFFCURVE",
"445 345 OFFCURVE",
"457 345 CURVE",
"457 286 LINE"
);
}
);
width = 728;
},
{
layerId = "6517A2BC-7974-4B53-8E65-A6A29EB8D1E7";
paths = (
{
closed = 1;
nodes = (
"457 246 LINE",
"457 152 LINE SMOOTH",
"457 72 OFFCURVE",
"404 26 OFFCURVE",
"296 26 CURVE SMOOTH",
"188 26 OFFCURVE",
"136 72 OFFCURVE",
"136 152 CURVE SMOOTH",
"136 394 LINE",
"103 437 OFFCURVE",
"87 458 OFFCURVE",
"87 474 CURVE SMOOTH",
"87 505 OFFCURVE",
"119 543 OFFCURVE",
"135 560 CURVE",
"423 560 LINE SMOOTH",
"473 560 OFFCURVE",
"483 581 OFFCURVE",
"483 623 CURVE SMOOTH",
"483 674 LINE",
"457 674 LINE",
"457 623 LINE SMOOTH",
"457 593 OFFCURVE",
"446 586 OFFCURVE",
"423 586 CURVE SMOOTH",
"130 586 LINE",
"76 521 OFFCURVE",
"60 491 OFFCURVE",
"60 470 CURVE SMOOTH",
"60 453 OFFCURVE",
"74 434 OFFCURVE",
"110 384 CURVE",
"110 158 LINE SMOOTH",
"110 53 OFFCURVE",
"169 0 OFFCURVE",
"293 0 CURVE SMOOTH",
"410 0 OFFCURVE",
"483 47 OFFCURVE",
"483 158 CURVE SMOOTH",
"483 246 LINE"
);
},
{
closed = 1;
nodes = (
"483 412 LINE SMOOTH",
"483 431 OFFCURVE",
"476 439 OFFCURVE",
"447 439 CURVE SMOOTH",
"397 439 OFFCURVE",
"364 396 OFFCURVE",
"364 354 CURVE SMOOTH",
"364 297 OFFCURVE",
"419 268 OFFCURVE",
"457 268 CURVE",
"457 216 LINE",
"483 216 LINE"
);
},
{
closed = 1;
nodes = (
"413 295 OFFCURVE",
"390 329 OFFCURVE",
"390 354 CURVE SMOOTH",
"390 377 OFFCURVE",
"399 413 OFFCURVE",
"457 413 CURVE",
"457 295 LINE"
);
}
);
width = 593;
},
{
layerId = "0F8E8D95-EFB6-4635-B30D-2DA8DDB35575";
paths = (
{
closed = 1;
nodes = (
"371 210 LINE",
"371 198 LINE SMOOTH",
"371 143 OFFCURVE",
"347 112 OFFCURVE",
"301 112 CURVE SMOOTH",
"255 112 OFFCURVE",
"232 143 OFFCURVE",
"232 198 CURVE SMOOTH",
"232 374 LINE",
"164 421 OFFCURVE",
"146 450 OFFCURVE",
"146 457 CURVE SMOOTH",
"146 462 OFFCURVE",
"148 469 OFFCURVE",
"156 474 CURVE",
"417 474 LINE SMOOTH",
"500 474 OFFCURVE",
"522 519 OFFCURVE",
"522 610 CURVE SMOOTH",
"522 674 LINE",
"372 674 LINE",
"372 610 LINE SMOOTH",
"372 594 OFFCURVE",
"368 586 OFFCURVE",
"348 586 CURVE SMOOTH",
"112 586 LINE",
"58 517 OFFCURVE",
"40 495 OFFCURVE",
"40 469 CURVE SMOOTH",
"40 453 OFFCURVE",
"62 416 OFFCURVE",
"81 384 CURVE",
"81 158 LINE SMOOTH",
"81 53 OFFCURVE",
"154 0 OFFCURVE",
"301 0 CURVE SMOOTH",
"448 0 OFFCURVE",
"522 53 OFFCURVE",
"522 158 CURVE SMOOTH",
"522 210 LINE"
);
},
{
closed = 1;
nodes = (
"522 363 LINE SMOOTH",
"522 404 OFFCURVE",
"484 434 OFFCURVE",
"425 434 CURVE SMOOTH",
"325 434 OFFCURVE",
"277 383 OFFCURVE",
"277 311 CURVE SMOOTH",
"277 253 OFFCURVE",
"315 211 OFFCURVE",
"371 211 CURVE",
"371 198 LINE",
"522 198 LINE"
);
},
{
closed = 1;
nodes = (
"361 286 OFFCURVE",
"350 295 OFFCURVE",
"350 316 CURVE SMOOTH",
"350 335 OFFCURVE",
"361 345 OFFCURVE",
"371 345 CURVE",
"371 286 LINE"
);
}
);
width = 582;
},
{
layerId = "9C354F0E-63BE-4945-A1C1-0B7B127DD18D";
paths = (
{
closed = 1;
nodes = (
"369 228 LINE",
"369 158 LINE SMOOTH",
"369 98 OFFCURVE",
"335 67 OFFCURVE",
"263 67 CURVE SMOOTH",
"193 67 OFFCURVE",
"158 98 OFFCURVE",
"158 158 CURVE SMOOTH",
"158 400 LINE",
"114 460 OFFCURVE",
"96 485 OFFCURVE",
"96 500 CURVE SMOOTH",
"96 503 OFFCURVE",
"98 507 OFFCURVE",
"106 519 CURVE",
"363 519 LINE SMOOTH",
"418 519 OFFCURVE",
"447 549 OFFCURVE",
"447 610 CURVE SMOOTH",
"447 674 LINE",
"370 674 LINE",
"370 610 LINE SMOOTH",
"370 594 OFFCURVE",
"363 586 OFFCURVE",
"340 586 CURVE SMOOTH",
"104 586 LINE",
"46 493 OFFCURVE",
"40 493 OFFCURVE",
"40 466 CURVE SMOOTH",
"40 449 OFFCURVE",
"52 428 OFFCURVE",
"81 384 CURVE",
"81 158 LINE SMOOTH",
"81 53 OFFCURVE",
"142 0 OFFCURVE",
"263 0 CURVE SMOOTH",
"386 0 OFFCURVE",
"446 53 OFFCURVE",
"446 158 CURVE SMOOTH",
"446 228 LINE"
);
},
{
closed = 1;
nodes = (
"446 380 LINE SMOOTH",
"446 419 OFFCURVE",
"421 439 OFFCURVE",
"379 439 CURVE SMOOTH",
"323 439 OFFCURVE",
"277 403 OFFCURVE",
"277 337 CURVE SMOOTH",
"277 277 OFFCURVE",
"313 245 OFFCURVE",
"369 245 CURVE",
"369 207 LINE",
"446 207 LINE"
);
},
{
closed = 1;
nodes = (
"346 313 OFFCURVE",
"333 322 OFFCURVE",
"333 342 CURVE SMOOTH",
"333 362 OFFCURVE",
"346 372 OFFCURVE",
"370 372 CURVE",
"370 313 LINE"
);
}
);
width = 517;
},
{
layerId = "DE962D09-1426-4D02-9608-9FE5B080C42D";
paths = (
{
closed = 1;
nodes = (
"387 246 LINE",
"387 152 LINE SMOOTH",
"387 72 OFFCURVE",
"347 26 OFFCURVE",
"257 26 CURVE SMOOTH",
"167 26 OFFCURVE",
"128 72 OFFCURVE",
"128 152 CURVE SMOOTH",
"128 394 LINE",
"98 436 OFFCURVE",
"83 457 OFFCURVE",
"83 476 CURVE SMOOTH",
"83 504 OFFCURVE",
"114 543 OFFCURVE",
"128 560 CURVE",
"363 560 LINE SMOOTH",
"404 560 OFFCURVE",
"413 581 OFFCURVE",
"413 623 CURVE SMOOTH",
"413 674 LINE",
"391 674 LINE",
"391 623 LINE SMOOTH",
"391 593 OFFCURVE",
"382 586 OFFCURVE",
"363 586 CURVE SMOOTH",
"122 586 LINE",
"77 521 OFFCURVE",
"60 493 OFFCURVE",
"60 470 CURVE SMOOTH",
"60 454 OFFCURVE",
"71 436 OFFCURVE",
"102 384 CURVE",
"102 158 LINE SMOOTH",
"102 53 OFFCURVE",
"151 0 OFFCURVE",
"254 0 CURVE SMOOTH",
"352 0 OFFCURVE",
"413 47 OFFCURVE",
"413 158 CURVE SMOOTH",
"413 246 LINE"
);
},
{
closed = 1;
nodes = (
"413 412 LINE SMOOTH",
"413 431 OFFCURVE",
"406 439 OFFCURVE",
"377 439 CURVE SMOOTH",
"332 439 OFFCURVE",
"304 396 OFFCURVE",
"304 354 CURVE SMOOTH",
"304 297 OFFCURVE",
"349 268 OFFCURVE",
"387 268 CURVE",
"387 226 LINE",
"413 226 LINE"
);
},
{
closed = 1;
nodes = (
"348 295 OFFCURVE",
"330 329 OFFCURVE",
"330 354 CURVE SMOOTH",
"330 377 OFFCURVE",
"339 413 OFFCURVE",
"387 413 CURVE",
"387 295 LINE"
);
}
);
width = 503;
}
);
note = uni1790;
unicode = 1790;
},
{
glyphname = uni1791;
lastChange = "2017-12-14 22:51:15 +0000";
layers = (
{
layerId = "46DC2CF2-3687-4CD7-A306-8CA7072459C9";
paths = (
{
closed = 1;
nodes = (
"425 0 OFFCURVE",
"489 53 OFFCURVE",
"489 158 CURVE SMOOTH",
"489 230 LINE",
"504 236 OFFCURVE",
"519 257 OFFCURVE",
"519 286 CURVE SMOOTH",
"519 314 OFFCURVE",
"495 343 OFFCURVE",
"458 343 CURVE SMOOTH",
"430 343 OFFCURVE",
"409 329 OFFCURVE",
"401 303 CURVE",
"238 326 OFFCURVE",
"171 354 OFFCURVE",
"171 428 CURVE SMOOTH",
"171 488 OFFCURVE",
"205 519 OFFCURVE",
"299 519 CURVE SMOOTH",
"394 519 OFFCURVE",
"427 485 OFFCURVE",
"427 438 CURVE SMOOTH",
"427 414 LINE",
"519 414 LINE",
"519 438 LINE SMOOTH",
"519 515 OFFCURVE",
"462 586 OFFCURVE",
"299 586 CURVE SMOOTH",
"137 586 OFFCURVE",
"80 518 OFFCURVE",
"80 428 CURVE SMOOTH",
"80 318 OFFCURVE",
"172 268 OFFCURVE",
"397 235 CURVE",
"397 158 LINE SMOOTH",
"397 98 OFFCURVE",
"363 67 OFFCURVE",
"296 67 CURVE SMOOTH",
"230 67 OFFCURVE",
"196 98 OFFCURVE",
"196 158 CURVE SMOOTH",
"196 234 LINE",
"104 234 LINE",
"104 158 LINE SMOOTH",
"104 53 OFFCURVE",
"168 0 OFFCURVE",
"296 0 CURVE SMOOTH"
);
}
);
width = 599;
},
{
layerId = "51E32C1F-DEF7-419B-8D63-3B39AA64BD60";
paths = (
{
closed = 1;
nodes = (
"478 0 OFFCURVE",
"557 53 OFFCURVE",
"557 158 CURVE SMOOTH",
"557 210 LINE",
"579 226 OFFCURVE",
"593 245 OFFCURVE",
"593 289 CURVE SMOOTH",
"593 344 OFFCURVE",
"541 387 OFFCURVE",
"484 387 CURVE SMOOTH",
"433 387 OFFCURVE",
"401 360 OFFCURVE",
"383 328 CURVE",
"303 355 OFFCURVE",
"241 379 OFFCURVE",
"241 428 CURVE SMOOTH",
"241 457 OFFCURVE",
"275 474 OFFCURVE",
"324 474 CURVE SMOOTH",
"371 474 OFFCURVE",
"409 466 OFFCURVE",
"409 425 CURVE SMOOTH",
"409 414 LINE",
"589 414 LINE",
"589 438 LINE SMOOTH",
"589 549 OFFCURVE",
"500 586 OFFCURVE",
"324 586 CURVE SMOOTH",
"153 586 OFFCURVE",
"60 536 OFFCURVE",
"60 424 CURVE SMOOTH",
"60 321 OFFCURVE",
"176 253 OFFCURVE",
"376 217 CURVE",
"376 158 LINE SMOOTH",
"376 127 OFFCURVE",
"360 112 OFFCURVE",
"321 112 CURVE SMOOTH",
"283 112 OFFCURVE",
"267 127 OFFCURVE",
"267 158 CURVE SMOOTH",
"267 218 LINE",
"86 218 LINE",
"86 158 LINE SMOOTH",
"86 53 OFFCURVE",
"164 0 OFFCURVE",
"321 0 CURVE SMOOTH"
);
}
);
width = 667;
},
{
layerId = "6517A2BC-7974-4B53-8E65-A6A29EB8D1E7";
paths = (
{
closed = 1;
nodes = (
"390 0 OFFCURVE",
"443 53 OFFCURVE",
"443 158 CURVE SMOOTH",
"443 242 LINE",
"460 244 OFFCURVE",
"474 258 OFFCURVE",
"474 274 CURVE SMOOTH",
"474 290 OFFCURVE",
"464 301 OFFCURVE",
"448 301 CURVE SMOOTH",
"431 301 OFFCURVE",
"419 288 OFFCURVE",
"417 264 CURVE",
"211 297 OFFCURVE",
"125 331 OFFCURVE",
"125 428 CURVE SMOOTH",
"125 519 OFFCURVE",
"166 560 OFFCURVE",
"286 560 CURVE SMOOTH",
"393 560 OFFCURVE",
"447 514 OFFCURVE",
"447 438 CURVE SMOOTH",
"447 414 LINE",
"473 414 LINE",
"473 438 LINE SMOOTH",
"473 522 OFFCURVE",
"410 586 OFFCURVE",
"286 586 CURVE SMOOTH",
"155 586 OFFCURVE",
"100 529 OFFCURVE",
"100 428 CURVE SMOOTH",
"100 322 OFFCURVE",
"179 277 OFFCURVE",
"417 242 CURVE",
"417 158 LINE SMOOTH",
"417 78 OFFCURVE",
"370 26 OFFCURVE",
"283 26 CURVE SMOOTH",
"196 26 OFFCURVE",
"150 77 OFFCURVE",
"150 158 CURVE SMOOTH",
"150 246 LINE",
"124 246 LINE",
"124 158 LINE SMOOTH",
"124 53 OFFCURVE",
"177 0 OFFCURVE",
"283 0 CURVE SMOOTH"
);
}
);
width = 574;
},
{
layerId = "0F8E8D95-EFB6-4635-B30D-2DA8DDB35575";
paths = (
{
closed = 1;
nodes = (
"398 0 OFFCURVE",
"464 53 OFFCURVE",
"464 158 CURVE SMOOTH",
"464 210 LINE",
"483 226 OFFCURVE",
"497 245 OFFCURVE",
"497 289 CURVE SMOOTH",
"497 344 OFFCURVE",
"451 383 OFFCURVE",
"403 383 CURVE SMOOTH",
"361 383 OFFCURVE",
"334 360 OFFCURVE",
"319 328 CURVE",
"231 364 OFFCURVE",
"201 386 OFFCURVE",
"201 425 CURVE SMOOTH",
"201 457 OFFCURVE",
"229 474 OFFCURVE",
"270 474 CURVE SMOOTH",
"309 474 OFFCURVE",
"341 463 OFFCURVE",
"341 438 CURVE SMOOTH",
"341 414 LINE",
"491 414 LINE",
"491 438 LINE SMOOTH",
"491 549 OFFCURVE",
"417 586 OFFCURVE",
"270 586 CURVE SMOOTH",
"128 586 OFFCURVE",
"50 540 OFFCURVE",
"50 428 CURVE SMOOTH",
"50 315 OFFCURVE",
"146 259 OFFCURVE",
"313 219 CURVE",
"313 158 LINE SMOOTH",
"313 127 OFFCURVE",
"300 112 OFFCURVE",
"268 112 CURVE SMOOTH",
"236 112 OFFCURVE",
"223 127 OFFCURVE",
"223 158 CURVE SMOOTH",
"223 218 LINE",
"72 218 LINE",
"72 158 LINE SMOOTH",
"72 53 OFFCURVE",
"137 0 OFFCURVE",
"268 0 CURVE SMOOTH"
);
}
);
width = 547;
},
{
layerId = "9C354F0E-63BE-4945-A1C1-0B7B127DD18D";
paths = (
{
closed = 1;
nodes = (
"366 0 OFFCURVE",
"419 53 OFFCURVE",
"419 158 CURVE SMOOTH",
"419 230 LINE",
"431 236 OFFCURVE",
"444 257 OFFCURVE",
"444 286 CURVE SMOOTH",
"444 314 OFFCURVE",
"424 343 OFFCURVE",
"393 343 CURVE SMOOTH",
"370 343 OFFCURVE",
"352 329 OFFCURVE",
"346 303 CURVE",
"210 326 OFFCURVE",
"154 354 OFFCURVE",
"154 428 CURVE SMOOTH",
"154 488 OFFCURVE",
"182 519 OFFCURVE",
"261 519 CURVE SMOOTH",
"340 519 OFFCURVE",
"367 485 OFFCURVE",
"367 438 CURVE SMOOTH",
"367 414 LINE",
"444 414 LINE",
"444 438 LINE SMOOTH",
"444 515 OFFCURVE",
"396 586 OFFCURVE",
"261 586 CURVE SMOOTH",
"126 586 OFFCURVE",
"78 518 OFFCURVE",
"78 428 CURVE SMOOTH",
"78 318 OFFCURVE",
"155 268 OFFCURVE",
"342 235 CURVE",
"342 158 LINE SMOOTH",
"342 98 OFFCURVE",
"314 67 OFFCURVE",
"258 67 CURVE SMOOTH",
"203 67 OFFCURVE",
"175 98 OFFCURVE",
"175 158 CURVE SMOOTH",
"175 234 LINE",
"98 234 LINE",
"98 158 LINE SMOOTH",
"98 53 OFFCURVE",
"151 0 OFFCURVE",
"258 0 CURVE SMOOTH"
);
}
);
width = 522;
},
{
layerId = "DE962D09-1426-4D02-9608-9FE5B080C42D";
paths = (
{
closed = 1;
nodes = (
"326 0 OFFCURVE",
"376 53 OFFCURVE",
"376 158 CURVE SMOOTH",
"376 240 LINE",
"391 243 OFFCURVE",
"400 254 OFFCURVE",
"400 270 CURVE SMOOTH",
"400 286 OFFCURVE",
"388 295 OFFCURVE",
"377 295 CURVE SMOOTH",
"362 295 OFFCURVE",
"349 286 OFFCURVE",
"349 264 CURVE",
"178 297 OFFCURVE",
"116 331 OFFCURVE",
"116 428 CURVE SMOOTH",
"116 519 OFFCURVE",
"151 560 OFFCURVE",
"247 560 CURVE SMOOTH",
"334 560 OFFCURVE",
"375 514 OFFCURVE",
"375 438 CURVE SMOOTH",
"375 414 LINE",
"401 414 LINE",
"401 438 LINE SMOOTH",
"401 522 OFFCURVE",
"348 586 OFFCURVE",
"247 586 CURVE SMOOTH",
"141 586 OFFCURVE",
"90 529 OFFCURVE",
"90 428 CURVE SMOOTH",
"90 322 OFFCURVE",
"152 277 OFFCURVE",
"350 242 CURVE",
"350 158 LINE SMOOTH",
"350 78 OFFCURVE",
"315 26 OFFCURVE",
"243 26 CURVE SMOOTH",
"170 26 OFFCURVE",
"136 77 OFFCURVE",
"136 158 CURVE SMOOTH",
"136 246 LINE",
"110 246 LINE",
"110 158 LINE SMOOTH",
"110 53 OFFCURVE",
"161 0 OFFCURVE",
"243 0 CURVE SMOOTH"
);
}
);
width = 491;
}
);
note = uni1791;
unicode = 1791;
},
